Jost-300-LightItalic.ufo
<glyph name="exclam" format="1">
  <advance width="267"/>
  <unicode hex="0021"/>
  <outline>
    <contour>
      <point x="286" y="700" type="line"/>
      <point x="352" y="700" type="line"/>
      <point x="168" y="201" type="line"/>
      <point x="130" y="201" type="line"/>
    </contour>
    <contour>
      <point x="50" y="24" type="curve" smooth="yes"/>
      <point x="50" y="45"/>
      <point x="68" y="62"/>
      <point x="88" y="62" type="curve" smooth="yes"/>
      <point x="108" y="62"/>
      <point x="125" y="45"/>
      <point x="125" y="24" type="curve" smooth="yes"/>
      <point x="125" y="3"/>
      <point x="108" y="-13"/>
      <point x="88" y="-13" type="curve" smooth="yes"/>
      <point x="68" y="-13"/>
      <point x="50" y="3"/>
    </contour>
  </outline>
</glyph>
<glyph name="quotedbl" format="1">
  <advance width="413"/>
  <unicode hex="0022"/>
  <outline>
    <contour>
      <point x="306" y="699" type="line"/>
      <point x="370" y="699" type="line"/>
      <point x="205" y="410" type="line"/>
      <point x="169" y="409" type="line"/>
    </contour>
    <contour>
      <point x="476" y="699" type="line"/>
      <point x="539" y="699" type="line"/>
      <point x="374" y="410" type="line"/>
      <point x="338" y="409" type="line"/>
    </contour>
  </outline>
</glyph>
<glyph name="numbersign" format="1">
  <advance width="556"/>
  <unicode hex="0023"/>
  <outline>
    <contour>
      <point x="168" y="446" type="line"/>
      <point x="182" y="488" type="line"/>
      <point x="637" y="488" type="line"/>
      <point x="622" y="446" type="line"/>
      <point x="502" y="446" type="line"/>
      <point x="493" y="446" type="line"/>
      <point x="306" y="446" type="line"/>
      <point x="297" y="446" type="line"/>
    </contour>
    <contour>
      <point x="52" y="217" type="line"/>
      <point x="66" y="259" type="line"/>
      <point x="183" y="259" type="line"/>
      <point x="194" y="259" type="line"/>
      <point x="383" y="259" type="line"/>
      <point x="397" y="259" type="line"/>
      <point x="520" y="259" type="line"/>
      <point x="507" y="217" type="line"/>
    </contour>
    <contour>
      <point x="617" y="699" type="line"/>
      <point x="668" y="699" type="line"/>
      <point x="266" y="0" type="line"/>
      <point x="216" y="0" type="line"/>
      <point x="351" y="234" type="line"/>
      <point x="358" y="246" type="line"/>
      <point x="480" y="460" type="line"/>
      <point x="486" y="472" type="line"/>
    </contour>
    <contour>
      <point x="419" y="699" type="line"/>
      <point x="470" y="699" type="line"/>
      <point x="340" y="474" type="line"/>
      <point x="334" y="463" type="line"/>
      <point x="209" y="244" type="line"/>
      <point x="203" y="233" type="line"/>
      <point x="69" y="0" type="line"/>
      <point x="21" y="0" type="line"/>
    </contour>
  </outline>
</glyph>
<glyph name="dollar" format="1">
  <advance width="545"/>
  <unicode hex="0024"/>
  <outline>
    <contour>
      <point x="457" y="817" type="line"/>
      <point x="504" y="817" type="line"/>
      <point x="460" y="682" type="line"/>
      <point x="414" y="682" type="line"/>
    </contour>
    <contour>
      <point x="215" y="27" type="line"/>
      <point x="261" y="27" type="line"/>
      <point x="217" y="-111" type="line"/>
      <point x="170" y="-111" type="line"/>
    </contour>
    <contour>
      <point x="540" y="528" type="line"/>
      <point x="531" y="592"/>
      <point x="506" y="653"/>
      <point x="432" y="655" type="curve" smooth="yes"/>
      <point x="362" y="657"/>
      <point x="289" y="608"/>
      <point x="267" y="540" type="curve" smooth="yes"/>
      <point x="240" y="457"/>
      <point x="314" y="417"/>
      <point x="376" y="385" type="curve" smooth="yes"/>
      <point x="457" y="344"/>
      <point x="509" y="277"/>
      <point x="483" y="183" type="curve" smooth="yes"/>
      <point x="453" y="74"/>
      <point x="350" y="-9"/>
      <point x="235" y="-8" type="curve" smooth="yes"/>
      <point x="121" y="-7"/>
      <point x="79" y="90"/>
      <point x="69" y="188" type="curve"/>
      <point x="121" y="214" type="line"/>
      <point x="128" y="135"/>
      <point x="151" y="45"/>
      <point x="247" y="44" type="curve" smooth="yes"/>
      <point x="329" y="43"/>
      <point x="402" y="103"/>
      <point x="426" y="180" type="curve" smooth="yes"/>
      <point x="452" y="264"/>
      <point x="394" y="312"/>
      <point x="326" y="346" type="curve" smooth="yes"/>
      <point x="246" y="386"/>
      <point x="185" y="450"/>
      <point x="213" y="545" type="curve" smooth="yes"/>
      <point x="241" y="639"/>
      <point x="344" y="709"/>
      <point x="441" y="708" type="curve" smooth="yes"/>
      <point x="534" y="707"/>
      <point x="578" y="638"/>
      <point x="590" y="555" type="curve"/>
    </contour>
  </outline>
</glyph>
<glyph name="percent" format="1">
  <advance width="687"/>
  <unicode hex="0025"/>
  <outline>
    <contour>
      <point x="167" y="555" type="curve" smooth="yes"/>
      <point x="193" y="636"/>
      <point x="274" y="709"/>
      <point x="362" y="709" type="curve" smooth="yes"/>
      <point x="449" y="709"/>
      <point x="483" y="629"/>
      <point x="459" y="553" type="curve" smooth="yes"/>
      <point x="433" y="472"/>
      <point x="351" y="399"/>
      <point x="263" y="399" type="curve" smooth="yes"/>
      <point x="176" y="399"/>
      <point x="143" y="479"/>
    </contour>
    <contour>
      <point x="211" y="554" type="curve" smooth="yes"/>
      <point x="193" y="504"/>
      <point x="210" y="444"/>
      <point x="271" y="442" type="curve" smooth="yes"/>
      <point x="333" y="440"/>
      <point x="394" y="498"/>
      <point x="414" y="554" type="curve" smooth="yes"/>
      <point x="432" y="604"/>
      <point x="416" y="664"/>
      <point x="355" y="666" type="curve" smooth="yes"/>
      <point x="293" y="668"/>
      <point x="231" y="610"/>
    </contour>
    <contour>
      <point x="360" y="147" type="curve" smooth="yes"/>
      <point x="386" y="228"/>
      <point x="467" y="301"/>
      <point x="555" y="301" type="curve" smooth="yes"/>
      <point x="642" y="301"/>
      <point x="676" y="221"/>
      <point x="652" y="145" type="curve" smooth="yes"/>
      <point x="626" y="64"/>
      <point x="544" y="-9"/>
      <point x="456" y="-9" type="curve" smooth="yes"/>
      <point x="369" y="-9"/>
      <point x="336" y="71"/>
    </contour>
    <contour>
      <point x="404" y="146" type="curve" smooth="yes"/>
      <point x="386" y="96"/>
      <point x="402" y="36"/>
      <point x="463" y="34" type="curve" smooth="yes"/>
      <point x="525" y="32"/>
      <point x="587" y="90"/>
      <point x="607" y="146" type="curve" smooth="yes"/>
      <point x="625" y="196"/>
      <point x="608" y="256"/>
      <point x="547" y="258" type="curve" smooth="yes"/>
      <point x="485" y="260"/>
      <point x="424" y="202"/>
    </contour>
    <contour>
      <point x="716" y="699" type="line"/>
      <point x="769" y="699" type="line"/>
      <point x="102" y="0" type="line"/>
      <point x="52" y="0" type="line"/>
    </contour>
  </outline>
</glyph>
<glyph name="ampersand" format="1">
  <advance width="635"/>
  <unicode hex="0026"/>
  <outline>
    <contour>
      <point x="285" y="401" type="line" smooth="yes"/>
      <point x="258" y="453"/>
      <point x="231" y="505"/>
      <point x="248" y="565" type="curve" smooth="yes"/>
      <point x="272" y="648"/>
      <point x="358" y="712"/>
      <point x="445" y="710" type="curve" smooth="yes"/>
      <point x="527" y="709"/>
      <point x="573" y="639"/>
      <point x="550" y="561" type="curve" smooth="yes"/>
      <point x="525" y="474"/>
      <point x="433" y="422"/>
      <point x="359" y="382" type="curve" smooth="yes"/>
      <point x="268" y="333"/>
      <point x="146" y="291"/>
      <point x="112" y="182" type="curve" smooth="yes"/>
      <point x="87" y="101"/>
      <point x="137" y="41"/>
      <point x="219" y="39" type="curve" smooth="yes"/>
      <point x="386" y="34"/>
      <point x="520" y="209"/>
      <point x="628" y="314" type="curve"/>
      <point x="662" y="288" type="line"/>
      <point x="540" y="169"/>
      <point x="396" y="-12"/>
      <point x="208" y="-9" type="curve" smooth="yes"/>
      <point x="102" y="-7"/>
      <point x="27" y="72"/>
      <point x="57" y="179" type="curve" smooth="yes"/>
      <point x="93" y="306"/>
      <point x="222" y="358"/>
      <point x="328" y="413" type="curve" smooth="yes"/>
      <point x="391" y="446"/>
      <point x="476" y="489"/>
      <point x="499" y="562" type="curve" smooth="yes"/>
      <point x="515" y="612"/>
      <point x="493" y="661"/>
      <point x="437" y="663" type="curve" smooth="yes"/>
      <point x="378" y="665"/>
      <point x="318" y="618"/>
      <point x="300" y="564" type="curve" smooth="yes"/>
      <point x="284" y="516"/>
      <point x="308" y="471"/>
      <point x="329" y="429" type="curve" smooth="yes"/>
      <point x="550" y="0" type="line"/>
      <point x="494" y="0" type="line"/>
    </contour>
  </outline>
</glyph>
<glyph name="quotesingle" format="1">
  <advance width="244"/>
  <unicode hex="0027"/>
  <outline>
    <contour>
      <point x="306" y="699" type="line"/>
      <point x="370" y="699" type="line"/>
      <point x="205" y="410" type="line"/>
      <point x="169" y="409" type="line"/>
    </contour>
  </outline>
</glyph>
<glyph name="parenleft" format="1">
  <advance width="264"/>
  <unicode hex="0028"/>
  <outline>
    <contour>
      <point x="398" y="778" type="curve"/>
      <point x="444" y="778" type="line"/>
      <point x="335" y="630"/>
      <point x="250" y="466"/>
      <point x="195" y="290" type="curve" smooth="yes"/>
      <point x="146" y="131"/>
      <point x="123" y="-35"/>
      <point x="142" y="-201" type="curve"/>
      <point x="98" y="-201" type="line"/>
      <point x="71" y="-36"/>
      <point x="90" y="131"/>
      <point x="138" y="290" type="curve" smooth="yes"/>
      <point x="192" y="468"/>
      <point x="281" y="634"/>
    </contour>
  </outline>
</glyph>
<glyph name="parenright" format="1">
  <advance width="264"/>
  <unicode hex="0029"/>
  <outline>
    <contour>
      <point x="-22" y="-198" type="curve"/>
      <point x="-68" y="-198" type="line"/>
      <point x="41" y="-50"/>
      <point x="125" y="114"/>
      <point x="180" y="290" type="curve" smooth="yes"/>
      <point x="229" y="449"/>
      <point x="252" y="615"/>
      <point x="233" y="781" type="curve"/>
      <point x="277" y="781" type="line"/>
      <point x="304" y="616"/>
      <point x="285" y="449"/>
      <point x="237" y="290" type="curve" smooth="yes"/>
      <point x="183" y="112"/>
      <point x="95" y="-54"/>
    </contour>
  </outline>
</glyph>
<glyph name="asterisk" format="1">
  <advance width="557"/>
  <unicode hex="002A"/>
  <outline>
    <contour>
      <point x="587" y="592" type="line"/>
      <point x="586" y="547" type="line"/>
      <point x="399" y="498" type="line"/>
      <point x="399" y="530" type="line"/>
    </contour>
    <contour>
      <point x="474" y="374" type="line"/>
      <point x="430" y="348" type="line"/>
      <point x="383" y="504" type="line"/>
      <point x="412" y="523" type="line"/>
    </contour>
    <contour>
      <point x="259" y="350" type="line"/>
      <point x="229" y="379" type="line"/>
      <point x="388" y="522" type="line"/>
      <point x="409" y="500" type="line"/>
    </contour>
    <contour>
      <point x="236" y="550" type="line"/>
      <point x="264" y="592" type="line"/>
      <point x="411" y="528" type="line"/>
      <point x="392" y="499" type="line"/>
    </contour>
    <contour>
      <point x="442" y="699" type="line"/>
      <point x="487" y="699" type="line"/>
      <point x="415" y="514" type="line"/>
      <point x="383" y="514" type="line"/>
    </contour>
  </outline>
</glyph>
<glyph name="plus" format="1">
  <advance width="553"/>
  <unicode hex="002B"/>
  <outline>
    <contour>
      <point x="85" y="230" type="line"/>
      <point x="102" y="281" type="line"/>
      <point x="533" y="281" type="line"/>
      <point x="515" y="229" type="line"/>
    </contour>
    <contour>
      <point x="362" y="491" type="line"/>
      <point x="417" y="492" type="line"/>
      <point x="252" y="18" type="line"/>
      <point x="201" y="19" type="line"/>
    </contour>
  </outline>
</glyph>
<glyph name="comma" format="1">
  <advance width="277"/>
  <unicode hex="002C"/>
  <outline>
    <contour>
      <point x="129" y="102" type="line"/>
      <point x="176" y="80" type="line"/>
      <point x="-14" y="-164" type="line"/>
      <point x="-49" y="-151" type="line"/>
    </contour>
  </outline>
</glyph>
<glyph name="hyphen" format="1">
  <advance width="197"/>
  <unicode hex="002D"/>
  <outline>
    <contour>
      <point x="28" y="227" type="line"/>
      <point x="44" y="275" type="line"/>
      <point x="235" y="275" type="line"/>
      <point x="218" y="227" type="line"/>
    </contour>
  </outline>
</glyph>
<glyph name="period" format="1">
  <advance width="266"/>
  <unicode hex="002E"/>
  <outline>
    <contour>
      <point x="50" y="24" type="curve" smooth="yes"/>
      <point x="50" y="44"/>
      <point x="67" y="61"/>
      <point x="87" y="61" type="curve" smooth="yes"/>
      <point x="107" y="61"/>
      <point x="124" y="44"/>
      <point x="124" y="24" type="curve" smooth="yes"/>
      <point x="124" y="4"/>
      <point x="107" y="-12"/>
      <point x="87" y="-12" type="curve" smooth="yes"/>
      <point x="67" y="-12"/>
      <point x="50" y="4"/>
    </contour>
  </outline>
</glyph>
<glyph name="slash" format="1">
  <advance width="468"/>
  <unicode hex="002F"/>
  <outline>
    <contour>
      <point x="588" y="699" type="line"/>
      <point x="644" y="699" type="line"/>
      <point x="-41" y="-149" type="line"/>
      <point x="-92" y="-148" type="line"/>
    </contour>
  </outline>
</glyph>
<glyph name="zero" format="1">
  <advance width="545"/>
  <unicode hex="0030"/>
  <outline>
    <contour>
      <point x="162" y="350" type="curve" smooth="yes"/>
      <point x="132" y="264"/>
      <point x="79" y="46"/>
      <point x="229" y="43" type="curve" smooth="yes"/>
      <point x="379" y="40"/>
      <point x="474" y="231"/>
      <point x="515" y="350" type="curve" smooth="yes"/>
      <point x="545" y="436"/>
      <point x="597" y="654"/>
      <point x="447" y="657" type="curve" smooth="yes"/>
      <point x="297" y="660"/>
      <point x="203" y="469"/>
    </contour>
    <contour>
      <point x="107" y="350" type="curve" smooth="yes"/>
      <point x="156" y="498"/>
      <point x="276" y="710"/>
      <point x="457" y="709" type="curve" smooth="yes"/>
      <point x="642" y="708"/>
      <point x="608" y="467"/>
      <point x="569" y="350" type="curve" smooth="yes"/>
      <point x="520" y="202"/>
      <point x="400" y="-10"/>
      <point x="219" y="-9" type="curve" smooth="yes"/>
      <point x="34" y="-8"/>
      <point x="68" y="233"/>
    </contour>
  </outline>
</glyph>
<glyph name="one" format="1">
  <advance width="407"/>
  <unicode hex="0031"/>
  <outline>
    <contour>
      <point x="229" y="599" type="line"/>
      <point x="250" y="658" type="line"/>
      <point x="474" y="709" type="line"/>
      <point x="229" y="0" type="line"/>
      <point x="176" y="0" type="line"/>
      <point x="396" y="639" type="line"/>
    </contour>
  </outline>
</glyph>
<glyph name="two" format="1">
  <advance width="514"/>
  <unicode hex="0032"/>
  <outline>
    <contour>
      <point x="-14" y="0" type="line"/>
      <point x="397" y="345" type="line" smooth="yes"/>
      <point x="450" y="390"/>
      <point x="507" y="442"/>
      <point x="528" y="511" type="curve" smooth="yes"/>
      <point x="551" y="584"/>
      <point x="516" y="656"/>
      <point x="434" y="658" type="curve" smooth="yes"/>
      <point x="322" y="661"/>
      <point x="252" y="552"/>
      <point x="214" y="461" type="curve"/>
      <point x="161" y="461" type="line"/>
      <point x="207" y="582"/>
      <point x="299" y="711"/>
      <point x="443" y="710" type="curve" smooth="yes"/>
      <point x="552" y="709"/>
      <point x="612" y="615"/>
      <point x="583" y="513" type="curve" smooth="yes"/>
      <point x="560" y="433"/>
      <point x="497" y="368"/>
      <point x="435" y="315" type="curve" smooth="yes"/>
      <point x="114" y="53" type="line"/>
      <point x="454" y="52" type="line"/>
      <point x="438" y="0" type="line"/>
    </contour>
  </outline>
</glyph>
<glyph name="three" format="1">
  <advance width="515"/>
  <unicode hex="0033"/>
  <outline>
    <contour>
      <point x="310" y="353" type="curve"/>
      <point x="320" y="388" type="line"/>
      <point x="404" y="400"/>
      <point x="493" y="439"/>
      <point x="522" y="526" type="curve" smooth="yes"/>
      <point x="544" y="591"/>
      <point x="515" y="657"/>
      <point x="441" y="659" type="curve" smooth="yes"/>
      <point x="357" y="661"/>
      <point x="300" y="594"/>
      <point x="265" y="527" type="curve"/>
      <point x="213" y="528" type="line"/>
      <point x="254" y="625"/>
      <point x="335" y="710"/>
      <point x="449" y="709" type="curve" smooth="yes"/>
      <point x="550" y="708"/>
      <point x="604" y="621"/>
      <point x="576" y="527" type="curve" smooth="yes"/>
      <point x="541" y="411"/>
      <point x="421" y="362"/>
    </contour>
    <contour>
      <point x="230" y="-9" type="curve" smooth="yes"/>
      <point x="112" y="-9"/>
      <point x="61" y="76"/>
      <point x="80" y="185" type="curve"/>
      <point x="133" y="184" type="line"/>
      <point x="121" y="104"/>
      <point x="150" y="44"/>
      <point x="239" y="43" type="curve" smooth="yes"/>
      <point x="325" y="42"/>
      <point x="411" y="105"/>
      <point x="436" y="187" type="curve" smooth="yes"/>
      <point x="466" y="284"/>
      <point x="389" y="328"/>
      <point x="305" y="339" type="curve"/>
      <point x="316" y="374" type="line"/>
      <point x="426" y="365"/>
      <point x="525" y="305"/>
      <point x="489" y="180" type="curve" smooth="yes"/>
      <point x="457" y="70"/>
      <point x="344" y="-9"/>
    </contour>
  </outline>
</glyph>
<glyph name="four" format="1">
  <advance width="536"/>
  <unicode hex="0034"/>
  <outline>
    <contour>
      <point x="15" y="142" type="line"/>
      <point x="567" y="698" type="line"/>
      <point x="590" y="699" type="line"/>
      <point x="349" y="0" type="line"/>
      <point x="296" y="0" type="line"/>
      <point x="352" y="162" type="line"/>
      <point x="355" y="171" type="line"/>
      <point x="492" y="565" type="line"/>
      <point x="120" y="190" type="line"/>
      <point x="379" y="189" type="line"/>
      <point x="390" y="189" type="line"/>
      <point x="519" y="189" type="line"/>
      <point x="503" y="140" type="line"/>
    </contour>
  </outline>
</glyph>
<glyph name="five" format="1">
  <advance width="527"/>
  <unicode hex="0035"/>
  <outline>
    <contour>
      <point x="517" y="230" type="curve" smooth="yes"/>
      <point x="480" y="101"/>
      <point x="362" y="-9"/>
      <point x="223" y="-9" type="curve" smooth="yes"/>
      <point x="126" y="-9"/>
      <point x="70" y="50"/>
      <point x="45" y="138" type="curve"/>
      <point x="97" y="168" type="line"/>
      <point x="115" y="98"/>
      <point x="153" y="44"/>
      <point x="232" y="43" type="curve" smooth="yes"/>
      <point x="340" y="42"/>
      <point x="432" y="131"/>
      <point x="463" y="230" type="curve" smooth="yes"/>
      <point x="489" y="313"/>
      <point x="458" y="403"/>
      <point x="361" y="407" type="curve" smooth="yes"/>
      <point x="285" y="410"/>
      <point x="216" y="369"/>
      <point x="155" y="329" type="curve"/>
      <point x="355" y="700" type="line"/>
      <point x="668" y="700" type="line"/>
      <point x="652" y="651" type="line"/>
      <point x="384" y="651" type="line"/>
      <point x="247" y="408" type="line"/>
      <point x="290" y="435"/>
      <point x="338" y="458"/>
      <point x="390" y="457" type="curve" smooth="yes"/>
      <point x="514" y="455"/>
      <point x="547" y="332"/>
    </contour>
  </outline>
</glyph>
<glyph name="six" format="1">
  <advance width="526"/>
  <unicode hex="0036"/>
  <outline>
    <contour>
      <point x="132" y="226" type="curve" smooth="yes"/>
      <point x="104" y="141"/>
      <point x="136" y="42"/>
      <point x="238" y="41" type="curve" smooth="yes"/>
      <point x="342" y="40"/>
      <point x="436" y="131"/>
      <point x="466" y="226" type="curve" smooth="yes"/>
      <point x="492" y="308"/>
      <point x="461" y="405"/>
      <point x="363" y="407" type="curve" smooth="yes"/>
      <point x="259" y="409"/>
      <point x="163" y="320"/>
    </contour>
    <contour>
      <point x="490" y="699" type="line"/>
      <point x="561" y="699" type="line"/>
      <point x="248" y="389" type="line"/>
      <point x="242" y="394" type="line"/>
      <point x="285" y="424"/>
      <point x="332" y="449"/>
      <point x="386" y="448" type="curve" smooth="yes"/>
      <point x="505" y="445"/>
      <point x="545" y="327"/>
      <point x="516" y="226" type="curve" smooth="yes"/>
      <point x="481" y="102"/>
      <point x="364" y="-9"/>
      <point x="230" y="-9" type="curve" smooth="yes"/>
      <point x="98" y="-9"/>
      <point x="47" y="112"/>
      <point x="81" y="226" type="curve" smooth="yes"/>
      <point x="98" y="282"/>
      <point x="132" y="334"/>
      <point x="172" y="377" type="curve" smooth="yes"/>
    </contour>
  </outline>
</glyph>
<glyph name="seven" format="1">
  <advance width="489"/>
  <unicode hex="0037"/>
  <outline>
    <contour>
      <point x="194" y="648" type="line"/>
      <point x="210" y="700" type="line"/>
      <point x="668" y="699" type="line"/>
      <point x="122" y="0" type="line"/>
      <point x="63" y="0" type="line"/>
      <point x="569" y="647" type="line"/>
    </contour>
  </outline>
</glyph>
<glyph name="eight" format="1">
  <advance width="501"/>
  <unicode hex="0038"/>
  <outline>
    <contour>
      <point x="205" y="536" type="curve" smooth="yes"/>
      <point x="235" y="629"/>
      <point x="335" y="710"/>
      <point x="435" y="709" type="curve" smooth="yes"/>
      <point x="531" y="708"/>
      <point x="583" y="622"/>
      <point x="555" y="534" type="curve" smooth="yes"/>
      <point x="525" y="439"/>
      <point x="425" y="361"/>
      <point x="324" y="361" type="curve" smooth="yes"/>
      <point x="226" y="361"/>
      <point x="176" y="446"/>
    </contour>
    <contour>
      <point x="253" y="529" type="curve" smooth="yes"/>
      <point x="233" y="470"/>
      <point x="258" y="399"/>
      <point x="328" y="397" type="curve" smooth="yes"/>
      <point x="401" y="395"/>
      <point x="478" y="463"/>
      <point x="502" y="529" type="curve" smooth="yes"/>
      <point x="524" y="590"/>
      <point x="499" y="658"/>
      <point x="427" y="660" type="curve" smooth="yes"/>
      <point x="353" y="662"/>
      <point x="277" y="597"/>
    </contour>
    <contour>
      <point x="64" y="189" type="curve" smooth="yes"/>
      <point x="99" y="295"/>
      <point x="211" y="383"/>
      <point x="324" y="382" type="curve" smooth="yes"/>
      <point x="433" y="382"/>
      <point x="490" y="288"/>
      <point x="458" y="187" type="curve" smooth="yes"/>
      <point x="424" y="79"/>
      <point x="311" y="-10"/>
      <point x="197" y="-9" type="curve" smooth="yes"/>
      <point x="87" y="-8"/>
      <point x="32" y="89"/>
    </contour>
    <contour>
      <point x="117" y="194" type="curve" smooth="yes"/>
      <point x="90" y="120"/>
      <point x="120" y="42"/>
      <point x="206" y="40" type="curve" smooth="yes"/>
      <point x="294" y="38"/>
      <point x="382" y="113"/>
      <point x="410" y="194" type="curve" smooth="yes"/>
      <point x="434" y="264"/>
      <point x="401" y="344"/>
      <point x="319" y="346" type="curve" smooth="yes"/>
      <point x="234" y="348"/>
      <point x="145" y="271"/>
    </contour>
  </outline>
</glyph>
<glyph name="nine" format="1">
  <advance width="526"/>
  <unicode hex="0039"/>
  <outline>
    <contour>
      <point x="542" y="474" type="curve" smooth="yes"/>
      <point x="570" y="559"/>
      <point x="538" y="658"/>
      <point x="436" y="659" type="curve" smooth="yes"/>
      <point x="332" y="660"/>
      <point x="238" y="569"/>
      <point x="208" y="474" type="curve" smooth="yes"/>
      <point x="182" y="392"/>
      <point x="213" y="295"/>
      <point x="311" y="293" type="curve" smooth="yes"/>
      <point x="415" y="291"/>
      <point x="511" y="380"/>
    </contour>
    <contour>
      <point x="184" y="0" type="line"/>
      <point x="113" y="0" type="line"/>
      <point x="426" y="311" type="line"/>
      <point x="432" y="306" type="line"/>
      <point x="389" y="276"/>
      <point x="342" y="251"/>
      <point x="288" y="252" type="curve" smooth="yes"/>
      <point x="169" y="255"/>
      <point x="129" y="373"/>
      <point x="158" y="474" type="curve" smooth="yes"/>
      <point x="193" y="598"/>
      <point x="310" y="709"/>
      <point x="444" y="709" type="curve" smooth="yes"/>
      <point x="576" y="709"/>
      <point x="627" y="588"/>
      <point x="593" y="474" type="curve" smooth="yes"/>
      <point x="576" y="418"/>
      <point x="542" y="366"/>
      <point x="502" y="323" type="curve" smooth="yes"/>
    </contour>
  </outline>
</glyph>
<glyph name="colon" format="1">
  <advance width="282"/>
  <unicode hex="003A"/>
  <outline>
    <contour>
      <point x="50" y="24" type="curve" smooth="yes"/>
      <point x="50" y="44"/>
      <point x="67" y="61"/>
      <point x="87" y="61" type="curve" smooth="yes"/>
      <point x="107" y="61"/>
      <point x="124" y="44"/>
      <point x="124" y="24" type="curve" smooth="yes"/>
      <point x="124" y="4"/>
      <point x="107" y="-12"/>
      <point x="87" y="-12" type="curve" smooth="yes"/>
      <point x="67" y="-12"/>
      <point x="50" y="4"/>
    </contour>
    <contour>
      <point x="176" y="392" type="curve" smooth="yes"/>
      <point x="176" y="412"/>
      <point x="193" y="428"/>
      <point x="213" y="428" type="curve" smooth="yes"/>
      <point x="233" y="428"/>
      <point x="250" y="412"/>
      <point x="250" y="392" type="curve" smooth="yes"/>
      <point x="250" y="372"/>
      <point x="233" y="355"/>
      <point x="213" y="355" type="curve" smooth="yes"/>
      <point x="193" y="355"/>
      <point x="176" y="372"/>
    </contour>
  </outline>
</glyph>
<glyph name="semicolon" format="1">
  <advance width="289"/>
  <unicode hex="003B"/>
  <outline>
    <contour>
      <point x="205" y="392" type="curve" smooth="yes"/>
      <point x="205" y="412"/>
      <point x="221" y="428"/>
      <point x="241" y="428" type="curve" smooth="yes"/>
      <point x="261" y="428"/>
      <point x="278" y="412"/>
      <point x="278" y="392" type="curve" smooth="yes"/>
      <point x="278" y="372"/>
      <point x="261" y="355"/>
      <point x="241" y="355" type="curve" smooth="yes"/>
      <point x="221" y="355"/>
      <point x="205" y="372"/>
    </contour>
    <contour>
      <point x="129" y="102" type="line"/>
      <point x="176" y="80" type="line"/>
      <point x="-14" y="-164" type="line"/>
      <point x="-49" y="-151" type="line"/>
    </contour>
  </outline>
</glyph>
<glyph name="less" format="1">
  <advance width="602"/>
  <unicode hex="003C"/>
  <outline>
    <contour>
      <point x="177" y="255" type="line"/>
      <point x="515" y="74" type="line"/>
      <point x="498" y="29" type="line"/>
      <point x="89" y="243" type="line"/>
      <point x="99" y="272" type="line"/>
      <point x="656" y="489" type="line"/>
      <point x="637" y="433" type="line"/>
    </contour>
  </outline>
</glyph>
<glyph name="equal" format="1">
  <advance width="578"/>
  <unicode hex="003D"/>
  <outline>
    <contour>
      <point x="62" y="159" type="line"/>
      <point x="77" y="207" type="line"/>
      <point x="536" y="207" type="line"/>
      <point x="519" y="158" type="line"/>
    </contour>
    <contour>
      <point x="109" y="299" type="line"/>
      <point x="125" y="347" type="line"/>
      <point x="584" y="347" type="line"/>
      <point x="567" y="298" type="line"/>
    </contour>
  </outline>
</glyph>
<glyph name="greater" format="1">
  <advance width="640"/>
  <unicode hex="003E"/>
  <outline>
    <contour>
      <point x="534" y="255" type="line"/>
      <point x="142" y="436" type="line"/>
      <point x="151" y="488" type="line"/>
      <point x="623" y="272" type="line"/>
      <point x="618" y="243" type="line"/>
      <point x="70" y="27" type="line"/>
      <point x="79" y="79" type="line"/>
    </contour>
  </outline>
</glyph>
<glyph name="question" format="1">
  <advance width="518"/>
  <unicode hex="003F"/>
  <outline>
    <contour>
      <point x="524" y="508" type="curve" smooth="yes"/>
      <point x="553" y="587"/>
      <point x="514" y="659"/>
      <point x="426" y="660" type="curve" smooth="yes"/>
      <point x="352" y="661"/>
      <point x="292" y="614"/>
      <point x="240" y="567" type="curve"/>
      <point x="205" y="596" type="line"/>
      <point x="270" y="657"/>
      <point x="347" y="711"/>
      <point x="441" y="709" type="curve" smooth="yes"/>
      <point x="554" y="707"/>
      <point x="609" y="610"/>
      <point x="575" y="507" type="curve" smooth="yes"/>
      <point x="536" y="390"/>
      <point x="419" y="327"/>
      <point x="304" y="309" type="curve"/>
      <point x="250" y="171" type="line"/>
      <point x="212" y="171" type="line"/>
      <point x="257" y="345" type="line"/>
      <point x="271" y="345" type="line" smooth="yes"/>
      <point x="373" y="353"/>
      <point x="487" y="406"/>
    </contour>
    <contour>
      <point x="143" y="24" type="curve" smooth="yes"/>
      <point x="143" y="44"/>
      <point x="159" y="61"/>
      <point x="180" y="61" type="curve" smooth="yes"/>
      <point x="202" y="61"/>
      <point x="217" y="42"/>
      <point x="217" y="24" type="curve" smooth="yes"/>
      <point x="217" y="4"/>
      <point x="200" y="-12"/>
      <point x="180" y="-12" type="curve" smooth="yes"/>
      <point x="158" y="-12"/>
      <point x="143" y="4"/>
    </contour>
  </outline>
</glyph>
<glyph name="at" format="1">
  <advance width="724"/>
  <unicode hex="0040"/>
  <outline>
    <contour>
      <point x="286" y="320" type="curve" smooth="yes"/>
      <point x="270" y="272"/>
      <point x="275" y="213"/>
      <point x="336" y="209" type="curve" smooth="yes"/>
      <point x="419" y="204"/>
      <point x="497" y="299"/>
      <point x="520" y="370" type="curve" smooth="yes"/>
      <point x="535" y="416"/>
      <point x="530" y="478"/>
      <point x="470" y="482" type="curve" smooth="yes"/>
      <point x="386" y="487"/>
      <point x="309" y="391"/>
    </contour>
    <contour>
      <point x="237" y="319" type="curve" smooth="yes"/>
      <point x="266" y="415"/>
      <point x="368" y="534"/>
      <point x="479" y="528" type="curve" smooth="yes"/>
      <point x="564" y="524"/>
      <point x="564" y="430"/>
      <point x="544" y="368" type="curve" smooth="yes"/>
      <point x="514" y="275"/>
      <point x="426" y="160"/>
      <point x="317" y="162" type="curve" smooth="yes"/>
      <point x="231" y="164"/>
      <point x="216" y="251"/>
    </contour>
    <contour>
      <point x="86" y="320" type="curve" smooth="yes"/>
      <point x="153" y="522"/>
      <point x="352" y="711"/>
      <point x="574" y="709" type="curve" smooth="yes"/>
      <point x="751" y="707"/>
      <point x="824" y="545"/>
      <point x="772" y="390" type="curve" smooth="yes"/>
      <point x="739" y="293"/>
      <point x="643" y="140"/>
      <point x="523" y="151" type="curve" smooth="yes"/>
      <point x="450" y="157"/>
      <point x="468" y="230"/>
      <point x="485" y="279" type="curve"/>
      <point x="480" y="279" type="line"/>
      <point x="598" y="519" type="line"/>
      <point x="649" y="519" type="line"/>
      <point x="528" y="289" type="line" smooth="yes"/>
      <point x="524" y="279"/>
      <point x="518" y="269"/>
      <point x="515" y="259" type="curve" smooth="yes"/>
      <point x="508" y="233"/>
      <point x="504" y="203"/>
      <point x="537" y="196" type="curve" smooth="yes"/>
      <point x="623" y="177"/>
      <point x="703" y="327"/>
      <point x="726" y="390" type="curve" smooth="yes"/>
      <point x="774" y="521"/>
      <point x="721" y="662"/>
      <point x="567" y="665" type="curve" smooth="yes"/>
      <point x="369" y="668"/>
      <point x="194" y="497"/>
      <point x="132" y="320" type="curve" smooth="yes"/>
      <point x="84" y="181"/>
      <point x="128" y="39"/>
      <point x="293" y="35" type="curve" smooth="yes"/>
      <point x="372" y="33"/>
      <point x="447" y="58"/>
      <point x="518" y="88" type="curve"/>
      <point x="530" y="48" type="line"/>
      <point x="453" y="14"/>
      <point x="371" y="-9"/>
      <point x="286" y="-8" type="curve" smooth="yes"/>
      <point x="95" y="-5"/>
      <point x="31" y="154"/>
    </contour>
  </outline>
</glyph>
<glyph name="A" format="1">
  <advance width="597"/>
  <unicode hex="0041"/>
  <outline>
    <contour>
      <point x="158" y="235" type="line"/>
      <point x="191" y="286" type="line"/>
      <point x="497" y="286" type="line"/>
      <point x="497" y="235" type="line"/>
    </contour>
    <contour>
      <point x="454" y="600" type="line"/>
      <point x="211" y="269" type="line"/>
      <point x="202" y="257" type="line"/>
      <point x="13" y="0" type="line"/>
      <point x="-50" y="0" type="line"/>
      <point x="493" y="729" type="line"/>
      <point x="535" y="0" type="line"/>
      <point x="477" y="0" type="line"/>
      <point x="467" y="253" type="line"/>
      <point x="467" y="266" type="line"/>
    </contour>
  </outline>
</glyph>
<glyph name="B" format="1">
  <advance width="501"/>
  <unicode hex="0042"/>
  <outline>
    <contour>
      <point x="194" y="377" type="line"/>
      <point x="203" y="407" type="line"/>
      <point x="304" y="408" type="line"/>
      <point x="381" y="410"/>
      <point x="460" y="451"/>
      <point x="487" y="528" type="curve" smooth="yes"/>
      <point x="513" y="602"/>
      <point x="464" y="649"/>
      <point x="393" y="650" type="curve" smooth="yes"/>
      <point x="300" y="651" type="line"/>
      <point x="94" y="49" type="line"/>
      <point x="190" y="50" type="line" smooth="yes"/>
      <point x="288" y="51"/>
      <point x="381" y="111"/>
      <point x="414" y="206" type="curve" smooth="yes"/>
      <point x="444" y="293"/>
      <point x="390" y="358"/>
      <point x="303" y="359" type="curve" smooth="yes"/>
      <point x="187" y="360" type="line"/>
      <point x="198" y="390" type="line"/>
      <point x="311" y="391" type="line" smooth="yes"/>
      <point x="419" y="389"/>
      <point x="502" y="316"/>
      <point x="467" y="202" type="curve" smooth="yes"/>
      <point x="428" y="77"/>
      <point x="307" y="0"/>
      <point x="181" y="0" type="curve" smooth="yes"/>
      <point x="23" y="0" type="line"/>
      <point x="263" y="700" type="line"/>
      <point x="403" y="700" type="line" smooth="yes"/>
      <point x="502" y="700"/>
      <point x="577" y="636"/>
      <point x="542" y="530" type="curve" smooth="yes"/>
      <point x="508" y="428"/>
      <point x="404" y="380"/>
      <point x="303" y="377" type="curve"/>
    </contour>
  </outline>
</glyph>
<glyph name="D" format="1">
  <advance width="622"/>
  <unicode hex="0044"/>
  <outline>
    <contour>
      <point x="262" y="699" type="line"/>
      <point x="318" y="700" type="line"/>
      <point x="77" y="0" type="line"/>
      <point x="25" y="0" type="line"/>
    </contour>
    <contour>
      <point x="208" y="0" type="curve" smooth="yes"/>
      <point x="52" y="0" type="line"/>
      <point x="71" y="55" type="line"/>
      <point x="219" y="55" type="line" smooth="yes"/>
      <point x="392" y="55"/>
      <point x="538" y="190"/>
      <point x="594" y="350" type="curve" smooth="yes"/>
      <point x="645" y="494"/>
      <point x="594" y="645"/>
      <point x="427" y="645" type="curve" smooth="yes"/>
      <point x="272" y="645" type="line"/>
      <point x="291" y="700" type="line"/>
      <point x="438" y="700" type="line" smooth="yes"/>
      <point x="635" y="700"/>
      <point x="705" y="522"/>
      <point x="648" y="350" type="curve" smooth="yes"/>
      <point x="586" y="161"/>
      <point x="412" y="0"/>
    </contour>
  </outline>
</glyph>
<glyph name="E" format="1">
  <advance width="501"/>
  <unicode hex="0045"/>
  <outline>
    <contour>
      <point x="52" y="0" type="line"/>
      <point x="69" y="52" type="line"/>
      <point x="398" y="52" type="line"/>
      <point x="381" y="0" type="line"/>
    </contour>
    <contour>
      <point x="274" y="648" type="line"/>
      <point x="291" y="700" type="line"/>
      <point x="619" y="700" type="line"/>
      <point x="602" y="648" type="line"/>
    </contour>
    <contour>
      <point x="174" y="358" type="line"/>
      <point x="192" y="410" type="line"/>
      <point x="501" y="410" type="line"/>
      <point x="484" y="358" type="line"/>
    </contour>
    <contour>
      <point x="262" y="700" type="line"/>
      <point x="318" y="700" type="line"/>
      <point x="77" y="0" type="line"/>
      <point x="25" y="0" type="line"/>
    </contour>
  </outline>
</glyph>
<glyph name="F" format="1">
  <advance width="480"/>
  <unicode hex="0046"/>
  <outline>
    <contour>
      <point x="227" y="648" type="line"/>
      <point x="236" y="700" type="line"/>
      <point x="543" y="700" type="line"/>
      <point x="534" y="648" type="line"/>
    </contour>
    <contour>
      <point x="175" y="353" type="line"/>
      <point x="184" y="405" type="line"/>
      <point x="481" y="405" type="line"/>
      <point x="472" y="353" type="line"/>
    </contour>
    <contour>
      <point x="207" y="700" type="line"/>
      <point x="262" y="700" type="line"/>
      <point x="139" y="0" type="line"/>
      <point x="84" y="0" type="line"/>
    </contour>
  </outline>
</glyph>
<glyph name="G" format="1">
  <advance width="725"/>
  <unicode hex="0047"/>
  <outline>
    <contour>
      <point x="432" y="297" type="line"/>
      <point x="451" y="348" type="line"/>
      <point x="744" y="348" type="line"/>
      <point x="676" y="170"/>
      <point x="522" y="-9"/>
      <point x="316" y="-9" type="curve" smooth="yes"/>
      <point x="117" y="-9"/>
      <point x="50" y="183"/>
      <point x="105" y="350" type="curve" smooth="yes"/>
      <point x="167" y="537"/>
      <point x="349" y="709"/>
      <point x="554" y="709" type="curve" smooth="yes"/>
      <point x="660" y="710"/>
      <point x="737" y="655"/>
      <point x="776" y="558" type="curve"/>
      <point x="728" y="524" type="line"/>
      <point x="699" y="608"/>
      <point x="633" y="654"/>
      <point x="543" y="653" type="curve" smooth="yes"/>
      <point x="370" y="653"/>
      <point x="218" y="506"/>
      <point x="163" y="350" type="curve" smooth="yes"/>
      <point x="115" y="213"/>
      <point x="158" y="48"/>
      <point x="327" y="47" type="curve" smooth="yes"/>
      <point x="483" y="46"/>
      <point x="596" y="172"/>
      <point x="666" y="297" type="curve"/>
    </contour>
  </outline>
</glyph>
<glyph name="H" format="1">
  <advance width="646"/>
  <unicode hex="0048"/>
  <outline>
    <contour>
      <point x="174" y="355" type="line"/>
      <point x="191" y="407" type="line"/>
      <point x="637" y="407" type="line"/>
      <point x="620" y="355" type="line"/>
    </contour>
    <contour>
      <point x="699" y="699" type="line"/>
      <point x="756" y="700" type="line"/>
      <point x="513" y="0" type="line"/>
      <point x="462" y="0" type="line"/>
    </contour>
    <contour>
      <point x="262" y="699" type="line"/>
      <point x="318" y="700" type="line"/>
      <point x="77" y="0" type="line"/>
      <point x="25" y="0" type="line"/>
    </contour>
  </outline>
</glyph>
<glyph name="J" format="1">
  <advance width="209"/>
  <unicode hex="004A"/>
  <outline>
    <contour>
      <point x="-186" y="-127" type="line"/>
      <point x="-167" y="-150"/>
      <point x="-148" y="-168"/>
      <point x="-115" y="-167" type="curve" smooth="yes"/>
      <point x="-50" y="-166"/>
      <point x="-10" y="-104"/>
      <point x="9" y="-50" type="curve" smooth="yes"/>
      <point x="266" y="700" type="line"/>
      <point x="318" y="700" type="line"/>
      <point x="58" y="-61" type="line" smooth="yes"/>
      <point x="28" y="-142"/>
      <point x="-33" y="-221"/>
      <point x="-128" y="-219" type="curve" smooth="yes"/>
      <point x="-171" y="-218"/>
      <point x="-200" y="-198"/>
      <point x="-226" y="-167" type="curve"/>
    </contour>
  </outline>
</glyph>
<glyph name="K" format="1">
  <advance width="489"/>
  <unicode hex="004B"/>
  <outline>
    <contour>
      <point x="261" y="700" type="line"/>
      <point x="316" y="700" type="line"/>
      <point x="75" y="0" type="line"/>
      <point x="23" y="0" type="line"/>
    </contour>
    <contour>
      <point x="584" y="699" type="line"/>
      <point x="656" y="699" type="line"/>
      <point x="249" y="369" type="line"/>
      <point x="425" y="0" type="line"/>
      <point x="364" y="0" type="line"/>
      <point x="186" y="374" type="line"/>
    </contour>
  </outline>
</glyph>
<glyph name="L" format="1">
  <advance width="415"/>
  <unicode hex="004C"/>
  <outline>
    <contour>
      <point x="263" y="700" type="line"/>
      <point x="318" y="700" type="line"/>
      <point x="95" y="52" type="line"/>
      <point x="367" y="52" type="line"/>
      <point x="349" y="0" type="line"/>
      <point x="23" y="0" type="line"/>
    </contour>
  </outline>
</glyph>
<glyph name="M" format="1">
  <advance width="818"/>
  <unicode hex="004D"/>
  <outline>
    <contour>
      <point x="754" y="573" type="line"/>
      <point x="817" y="727" type="line"/>
      <point x="770" y="0" type="line"/>
      <point x="715" y="0" type="line"/>
    </contour>
    <contour>
      <point x="257" y="727" type="line"/>
      <point x="266" y="573" type="line"/>
      <point x="103" y="0" type="line"/>
      <point x="48" y="0" type="line"/>
    </contour>
    <contour>
      <point x="817" y="727" type="line"/>
      <point x="793" y="609" type="line"/>
      <point x="423" y="81" type="line"/>
      <point x="239" y="609" type="line"/>
      <point x="257" y="727" type="line"/>
      <point x="442" y="189" type="line"/>
    </contour>
  </outline>
</glyph>
<glyph name="O" format="1">
  <advance width="737"/>
  <unicode hex="004F"/>
  <outline>
    <contour>
      <point x="163" y="350" type="curve" smooth="yes"/>
      <point x="115" y="213"/>
      <point x="157" y="49"/>
      <point x="326" y="47" type="curve" smooth="yes"/>
      <point x="499" y="45"/>
      <point x="651" y="196"/>
      <point x="705" y="350" type="curve" smooth="yes"/>
      <point x="753" y="487"/>
      <point x="711" y="651"/>
      <point x="542" y="653" type="curve" smooth="yes"/>
      <point x="369" y="655"/>
      <point x="217" y="504"/>
    </contour>
    <contour>
      <point x="105" y="350" type="curve" smooth="yes"/>
      <point x="166" y="536"/>
      <point x="348" y="710"/>
      <point x="552" y="709" type="curve" smooth="yes"/>
      <point x="751" y="708"/>
      <point x="818" y="517"/>
      <point x="763" y="350" type="curve" smooth="yes"/>
      <point x="702" y="164"/>
      <point x="520" y="-10"/>
      <point x="316" y="-9" type="curve" smooth="yes"/>
      <point x="117" y="-8"/>
      <point x="50" y="183"/>
    </contour>
  </outline>
</glyph>
<glyph name="P" format="1">
  <advance width="489"/>
  <unicode hex="0050"/>
  <outline>
    <contour>
      <point x="262" y="699" type="line"/>
      <point x="318" y="700" type="line"/>
      <point x="77" y="0" type="line"/>
      <point x="25" y="0" type="line"/>
    </contour>
    <contour>
      <point x="273" y="648" type="line"/>
      <point x="292" y="700" type="line"/>
      <point x="414" y="700" type="line" smooth="yes"/>
      <point x="532" y="700"/>
      <point x="602" y="608"/>
      <point x="564" y="492" type="curve" smooth="yes"/>
      <point x="525" y="370"/>
      <point x="405" y="286"/>
      <point x="280" y="286" type="curve" smooth="yes"/>
      <point x="150" y="286" type="line"/>
      <point x="168" y="338" type="line"/>
      <point x="291" y="338" type="line" smooth="yes"/>
      <point x="388" y="340"/>
      <point x="477" y="400"/>
      <point x="510" y="493" type="curve" smooth="yes"/>
      <point x="541" y="581"/>
      <point x="494" y="646"/>
      <point x="404" y="647" type="curve" smooth="yes"/>
    </contour>
  </outline>
</glyph>
<glyph name="Q" format="1">
  <advance width="735"/>
  <unicode hex="0051"/>
  <outline>
    <contour>
      <point x="163" y="350" type="curve" smooth="yes"/>
      <point x="115" y="213"/>
      <point x="157" y="49"/>
      <point x="326" y="47" type="curve" smooth="yes"/>
      <point x="499" y="45"/>
      <point x="651" y="196"/>
      <point x="705" y="350" type="curve" smooth="yes"/>
      <point x="753" y="487"/>
      <point x="711" y="651"/>
      <point x="542" y="653" type="curve" smooth="yes"/>
      <point x="369" y="655"/>
      <point x="217" y="504"/>
    </contour>
    <contour>
      <point x="105" y="350" type="curve" smooth="yes"/>
      <point x="166" y="536"/>
      <point x="348" y="710"/>
      <point x="552" y="709" type="curve" smooth="yes"/>
      <point x="751" y="708"/>
      <point x="818" y="517"/>
      <point x="763" y="350" type="curve" smooth="yes"/>
      <point x="702" y="164"/>
      <point x="520" y="-10"/>
      <point x="316" y="-9" type="curve" smooth="yes"/>
      <point x="117" y="-8"/>
      <point x="50" y="183"/>
    </contour>
    <contour>
      <point x="414" y="300" type="line"/>
      <point x="478" y="300" type="line"/>
      <point x="667" y="0" type="line"/>
      <point x="602" y="0" type="line"/>
    </contour>
  </outline>
</glyph>
<glyph name="S" format="1">
  <advance width="492"/>
  <unicode hex="0053"/>
  <outline>
    <contour>
      <point x="100" y="214" type="line"/>
      <point x="104" y="137"/>
      <point x="123" y="45"/>
      <point x="219" y="44" type="curve" smooth="yes"/>
      <point x="302" y="43"/>
      <point x="377" y="103"/>
      <point x="404" y="180" type="curve" smooth="yes"/>
      <point x="433" y="263"/>
      <point x="377" y="312"/>
      <point x="309" y="346" type="curve" smooth="yes"/>
      <point x="230" y="385"/>
      <point x="171" y="443"/>
      <point x="201" y="539" type="curve" smooth="yes"/>
      <point x="232" y="636"/>
      <point x="334" y="708"/>
      <point x="436" y="708" type="curve" smooth="yes"/>
      <point x="530" y="708"/>
      <point x="569" y="638"/>
      <point x="580" y="555" type="curve"/>
      <point x="529" y="528" type="line"/>
      <point x="521" y="592"/>
      <point x="496" y="654"/>
      <point x="421" y="655" type="curve" smooth="yes"/>
      <point x="351" y="656"/>
      <point x="279" y="603"/>
      <point x="256" y="537" type="curve" smooth="yes"/>
      <point x="228" y="456"/>
      <point x="300" y="416"/>
      <point x="361" y="385" type="curve" smooth="yes"/>
      <point x="442" y="344"/>
      <point x="490" y="276"/>
      <point x="461" y="183" type="curve" smooth="yes"/>
      <point x="428" y="75"/>
      <point x="321" y="-9"/>
      <point x="206" y="-8" type="curve" smooth="yes"/>
      <point x="92" y="-7"/>
      <point x="54" y="90"/>
      <point x="47" y="188" type="curve"/>
    </contour>
  </outline>
</glyph>
<glyph name="T" format="1">
  <advance width="424"/>
  <unicode hex="0054"/>
  <outline>
    <contour>
      <point x="178" y="648" type="line"/>
      <point x="197" y="700" type="line"/>
      <point x="598" y="700" type="line"/>
      <point x="579" y="648" type="line"/>
      <point x="406" y="648" type="line"/>
      <point x="184" y="0" type="line"/>
      <point x="130" y="0" type="line"/>
      <point x="352" y="648" type="line"/>
    </contour>
  </outline>
</glyph>
<glyph name="U" format="1">
  <advance width="569"/>
  <unicode hex="0055"/>
  <outline>
    <contour>
      <point x="259" y="700" type="line"/>
      <point x="313" y="700" type="line"/>
      <point x="149" y="226" type="line" smooth="yes"/>
      <point x="123" y="143"/>
      <point x="135" y="43"/>
      <point x="242" y="43" type="curve" smooth="yes"/>
      <point x="362" y="43"/>
      <point x="432" y="132"/>
      <point x="465" y="226" type="curve" smooth="yes"/>
      <point x="629" y="700" type="line"/>
      <point x="683" y="700" type="line"/>
      <point x="521" y="226" type="line" smooth="yes"/>
      <point x="478" y="103"/>
      <point x="390" y="-9"/>
      <point x="233" y="-9" type="curve" smooth="yes"/>
      <point x="97" y="-9"/>
      <point x="60" y="114"/>
      <point x="97" y="226" type="curve" smooth="yes"/>
    </contour>
  </outline>
</glyph>
<glyph name="V" format="1">
  <advance width="597"/>
  <unicode hex="0056"/>
  <outline>
    <contour>
      <point x="293" y="101" type="line"/>
      <point x="712" y="699" type="line"/>
      <point x="774" y="699" type="line"/>
      <point x="256" y="-29" type="line"/>
      <point x="191" y="700" type="line"/>
      <point x="247" y="700" type="line"/>
    </contour>
  </outline>
</glyph>
<glyph name="W" format="1">
  <advance width="974"/>
  <unicode hex="0057"/>
  <outline>
    <contour>
      <point x="306" y="58" type="line"/>
      <point x="268" y="-27" type="line"/>
      <point x="137" y="700" type="line"/>
      <point x="198" y="700" type="line"/>
    </contour>
    <contour>
      <point x="696" y="-27" type="line"/>
      <point x="688" y="58" type="line"/>
      <point x="1022" y="700" type="line"/>
      <point x="1083" y="700" type="line"/>
    </contour>
    <contour>
      <point x="268" y="-27" type="line"/>
      <point x="261" y="56" type="line"/>
      <point x="615" y="727" type="line"/>
      <point x="733" y="56" type="line"/>
      <point x="696" y="-27" type="line"/>
      <point x="589" y="576" type="line"/>
    </contour>
  </outline>
</glyph>
<glyph name="X" format="1">
  <advance width="501"/>
  <unicode hex="0058"/>
  <outline>
    <contour>
      <point x="592" y="699" type="line"/>
      <point x="659" y="699" type="line"/>
      <point x="358" y="364" type="line"/>
      <point x="453" y="0" type="line"/>
      <point x="394" y="0" type="line"/>
      <point x="319" y="316" type="line"/>
      <point x="42" y="0" type="line"/>
      <point x="-25" y="0" type="line"/>
      <point x="307" y="370" type="line"/>
      <point x="219" y="700" type="line"/>
      <point x="279" y="700" type="line"/>
      <point x="345" y="418" type="line"/>
    </contour>
  </outline>
</glyph>
<glyph name="Y" format="1">
  <advance width="507"/>
  <unicode hex="0059"/>
  <outline>
    <contour>
      <point x="623" y="699" type="line"/>
      <point x="687" y="699" type="line"/>
      <point x="322" y="285" type="line"/>
      <point x="224" y="0" type="line"/>
      <point x="169" y="0" type="line"/>
      <point x="271" y="291" type="line"/>
      <point x="194" y="700" type="line"/>
      <point x="251" y="700" type="line"/>
      <point x="311" y="340" type="line"/>
    </contour>
  </outline>
</glyph>
<glyph name="Z" format="1">
  <advance width="508"/>
  <unicode hex="005A"/>
  <outline>
    <contour>
      <point x="200" y="648" type="line"/>
      <point x="219" y="700" type="line"/>
      <point x="680" y="699" type="line"/>
      <point x="71" y="53" type="line"/>
      <point x="443" y="53" type="line"/>
      <point x="424" y="0" type="line"/>
      <point x="-42" y="0" type="line"/>
      <point x="568" y="647" type="line"/>
    </contour>
  </outline>
</glyph>
<glyph name="bracketleft" format="1">
  <advance width="266"/>
  <unicode hex="005B"/>
  <outline>
    <contour>
      <point x="336" y="731" type="line"/>
      <point x="57" y="-171" type="line"/>
      <point x="163" y="-171" type="line"/>
      <point x="147" y="-220" type="line"/>
      <point x="-10" y="-220" type="line"/>
      <point x="299" y="780" type="line"/>
      <point x="456" y="780" type="line"/>
      <point x="441" y="731" type="line"/>
    </contour>
  </outline>
</glyph>
<glyph name="bracketright" format="1">
  <advance width="266"/>
  <unicode hex="005D"/>
  <outline>
    <contour>
      <point x="36" y="-171" type="line"/>
      <point x="314" y="731" type="line"/>
      <point x="208" y="731" type="line"/>
      <point x="224" y="780" type="line"/>
      <point x="380" y="780" type="line"/>
      <point x="71" y="-220" type="line"/>
      <point x="-85" y="-220" type="line"/>
      <point x="-70" y="-171" type="line"/>
    </contour>
  </outline>
</glyph>
<glyph name="asciicircum" format="1">
  <advance width="479"/>
  <unicode hex="005E"/>
  <outline>
    <contour>
      <point x="411" y="648" type="line"/>
      <point x="217" y="461" type="line"/>
      <point x="160" y="461" type="line"/>
      <point x="414" y="709" type="line"/>
      <point x="437" y="709" type="line"/>
      <point x="522" y="459" type="line"/>
      <point x="474" y="459" type="line"/>
    </contour>
  </outline>
</glyph>
<glyph name="underscore" format="1">
  <advance width="470"/>
  <unicode hex="005F"/>
  <outline>
    <contour>
      <point x="-97" y="-123" type="line"/>
      <point x="-85" y="-87" type="line"/>
      <point x="387" y="-87" type="line"/>
      <point x="375" y="-123" type="line"/>
    </contour>
  </outline>
</glyph>
<glyph name="grave" format="1">
  <advance width="344"/>
  <unicode hex="0060"/>
  <outline>
    <contour>
      <point x="252" y="674" type="line"/>
      <point x="304" y="700" type="line"/>
      <point x="407" y="539" type="line"/>
      <point x="376" y="521" type="line"/>
    </contour>
  </outline>
</glyph>
<glyph name="b" format="1">
  <advance width="558"/>
  <unicode hex="0062"/>
  <outline>
    <contour>
      <point x="264" y="780" type="line"/>
      <point x="126" y="0" type="line"/>
      <point x="74" y="0" type="line"/>
      <point x="212" y="780" type="line"/>
    </contour>
    <contour>
      <point x="560" y="230" type="curve" smooth="yes"/>
      <point x="534" y="82"/>
      <point x="418" y="-10"/>
      <point x="295" y="-10" type="curve" smooth="yes"/>
      <point x="177" y="-10"/>
      <point x="119" y="93"/>
      <point x="143" y="230" type="curve" smooth="yes"/>
      <point x="167" y="367"/>
      <point x="262" y="470"/>
      <point x="380" y="470" type="curve" smooth="yes"/>
      <point x="503" y="470"/>
      <point x="586" y="378"/>
    </contour>
    <contour>
      <point x="508" y="230" type="curve" smooth="yes"/>
      <point x="529" y="350"/>
      <point x="461" y="421"/>
      <point x="364" y="421" type="curve" smooth="yes"/>
      <point x="278" y="421"/>
      <point x="186" y="340"/>
      <point x="167" y="230" type="curve" smooth="yes"/>
      <point x="148" y="120"/>
      <point x="211" y="39"/>
      <point x="297" y="39" type="curve" smooth="yes"/>
      <point x="394" y="39"/>
      <point x="487" y="110"/>
    </contour>
  </outline>
</glyph>
<glyph name="c" format="1">
  <advance width="453"/>
  <unicode hex="0063"/>
  <outline>
    <contour>
      <point x="118" y="230" type="curve" smooth="yes"/>
      <point x="90" y="142"/>
      <point x="125" y="42"/>
      <point x="229" y="40" type="curve" smooth="yes"/>
      <point x="295" y="39"/>
      <point x="354" y="73"/>
      <point x="404" y="112" type="curve"/>
      <point x="385" y="48" type="line"/>
      <point x="335" y="15"/>
      <point x="281" y="-9"/>
      <point x="220" y="-9" type="curve" smooth="yes"/>
      <point x="88" y="-8"/>
      <point x="33" y="115"/>
      <point x="67" y="230" type="curve" smooth="yes"/>
      <point x="103" y="356"/>
      <point x="225" y="469"/>
      <point x="361" y="469" type="curve" smooth="yes"/>
      <point x="415" y="469"/>
      <point x="459" y="450"/>
      <point x="496" y="411" type="curve"/>
      <point x="477" y="347" type="line"/>
      <point x="451" y="395"/>
      <point x="410" y="421"/>
      <point x="353" y="420" type="curve" smooth="yes"/>
      <point x="246" y="419"/>
      <point x="150" y="328"/>
    </contour>
  </outline>
</glyph>
<glyph name="e" format="1">
  <advance width="479"/>
  <unicode hex="0065"/>
  <outline>
    <contour>
      <point x="101" y="217" type="line"/>
      <point x="114" y="262" type="line"/>
      <point x="434" y="262" type="line"/>
      <point x="458" y="332"/>
      <point x="438" y="421"/>
      <point x="344" y="423" type="curve" smooth="yes"/>
      <point x="242" y="425"/>
      <point x="164" y="335"/>
      <point x="130" y="250" type="curve"/>
      <point x="123" y="231" type="line"/>
      <point x="99" y="149"/>
      <point x="112" y="41"/>
      <point x="217" y="40" type="curve" smooth="yes"/>
      <point x="289" y="39"/>
      <point x="349" y="86"/>
      <point x="400" y="134" type="curve"/>
      <point x="436" y="104" type="line"/>
      <point x="373" y="42"/>
      <point x="296" y="-10"/>
      <point x="203" y="-9" type="curve" smooth="yes"/>
      <point x="73" y="-7"/>
      <point x="42" y="125"/>
      <point x="72" y="231" type="curve" smooth="yes"/>
      <point x="78" y="252"/>
      <point x="86" y="272"/>
      <point x="96" y="291" type="curve" smooth="yes"/>
      <point x="143" y="385"/>
      <point x="240" y="470"/>
      <point x="351" y="469" type="curve" smooth="yes"/>
      <point x="478" y="468"/>
      <point x="512" y="348"/>
      <point x="484" y="242" type="curve" smooth="yes"/>
      <point x="482" y="234"/>
      <point x="478" y="225"/>
      <point x="476" y="217" type="curve"/>
    </contour>
  </outline>
</glyph>
<glyph name="f" format="1">
  <advance width="265"/>
  <unicode hex="0066"/>
  <outline>
    <contour>
      <point x="143" y="460" type="line"/>
      <point x="349" y="460" type="line"/>
      <point x="331" y="411" type="line"/>
      <point x="126" y="411" type="line"/>
    </contour>
    <contour>
      <point x="443" y="704" type="line"/>
      <point x="432" y="720"/>
      <point x="420" y="736"/>
      <point x="398" y="737" type="curve" smooth="yes"/>
      <point x="344" y="738"/>
      <point x="313" y="674"/>
      <point x="296" y="632" type="curve" smooth="yes"/>
      <point x="79" y="0" type="line"/>
      <point x="27" y="0" type="line"/>
      <point x="245" y="639" type="line" smooth="yes"/>
      <point x="271" y="709"/>
      <point x="326" y="792"/>
      <point x="412" y="788" type="curve" smooth="yes"/>
      <point x="445" y="787"/>
      <point x="464" y="768"/>
      <point x="483" y="744" type="curve"/>
    </contour>
  </outline>
</glyph>
<glyph name="g" format="1">
  <advance width="525"/>
  <unicode hex="0067"/>
  <outline>
    <contour>
      <point x="-18" y="-30" type="curve"/>
      <point x="32" y="-31" type="line"/>
      <point x="17" y="-108"/>
      <point x="38" y="-178"/>
      <point x="129" y="-180" type="curve" smooth="yes"/>
      <point x="237" y="-182"/>
      <point x="322" y="-84"/>
      <point x="354" y="10" type="curve" smooth="yes"/>
      <point x="509" y="460" type="line"/>
      <point x="561" y="460" type="line"/>
      <point x="407" y="10" type="line" smooth="yes"/>
      <point x="365" y="-111"/>
      <point x="272" y="-229"/>
      <point x="128" y="-229" type="curve" smooth="yes"/>
      <point x="8" y="-229"/>
      <point x="-41" y="-136"/>
    </contour>
    <contour>
      <point x="59" y="230" type="curve" smooth="yes"/>
      <point x="98" y="350"/>
      <point x="214" y="472"/>
      <point x="348" y="470" type="curve" smooth="yes"/>
      <point x="478" y="468"/>
      <point x="487" y="326"/>
      <point x="455" y="230" type="curve" smooth="yes"/>
      <point x="419" y="118"/>
      <point x="321" y="-8"/>
      <point x="192" y="-9" type="curve" smooth="yes"/>
      <point x="58" y="-10"/>
      <point x="24" y="123"/>
    </contour>
    <contour>
      <point x="111" y="230" type="curve" smooth="yes"/>
      <point x="81" y="147"/>
      <point x="101" y="40"/>
      <point x="207" y="40" type="curve" smooth="yes"/>
      <point x="310" y="40"/>
      <point x="400" y="142"/>
      <point x="431" y="232" type="curve" smooth="yes"/>
      <point x="457" y="308"/>
      <point x="443" y="416"/>
      <point x="345" y="420" type="curve" smooth="yes"/>
      <point x="238" y="424"/>
      <point x="144" y="324"/>
    </contour>
  </outline>
</glyph>
<glyph name="h" format="1">
  <advance width="474"/>
  <unicode hex="0068"/>
  <outline>
    <contour>
      <point x="338" y="780" type="line"/>
      <point x="69" y="0" type="line"/>
      <point x="18" y="0" type="line"/>
      <point x="286" y="780" type="line"/>
    </contour>
    <contour>
      <point x="399" y="296" type="line" smooth="yes"/>
      <point x="416" y="351"/>
      <point x="417" y="417"/>
      <point x="344" y="420" type="curve" smooth="yes"/>
      <point x="261" y="423"/>
      <point x="200" y="347"/>
      <point x="164" y="282" type="curve"/>
      <point x="146" y="282" type="line"/>
      <point x="185" y="370"/>
      <point x="257" y="469"/>
      <point x="364" y="469" type="curve" smooth="yes"/>
      <point x="463" y="469"/>
      <point x="474" y="379"/>
      <point x="451" y="302" type="curve"/>
      <point x="346" y="0" type="line"/>
      <point x="297" y="0" type="line"/>
    </contour>
  </outline>
</glyph>
<glyph name="i" format="1">
  <advance width="217"/>
  <unicode hex="0069"/>
  <outline>
    <contour>
      <point x="247" y="668" type="curve" smooth="yes"/>
      <point x="247" y="688"/>
      <point x="263" y="704"/>
      <point x="283" y="704" type="curve" smooth="yes"/>
      <point x="303" y="704"/>
      <point x="320" y="688"/>
      <point x="320" y="668" type="curve" smooth="yes"/>
      <point x="320" y="648"/>
      <point x="303" y="632"/>
      <point x="283" y="632" type="curve" smooth="yes"/>
      <point x="263" y="632"/>
      <point x="247" y="648"/>
    </contour>
    <contour>
      <point x="186" y="459" type="line"/>
      <point x="239" y="459" type="line"/>
      <point x="81" y="0" type="line"/>
      <point x="30" y="0" type="line"/>
    </contour>
  </outline>
</glyph>
<glyph name="j" format="1">
  <advance width="208"/>
  <unicode hex="006A"/>
  <outline>
    <contour>
      <point x="237" y="668" type="curve" smooth="yes"/>
      <point x="237" y="688"/>
      <point x="253" y="704"/>
      <point x="273" y="704" type="curve" smooth="yes"/>
      <point x="293" y="704"/>
      <point x="310" y="688"/>
      <point x="310" y="668" type="curve" smooth="yes"/>
      <point x="310" y="648"/>
      <point x="293" y="632"/>
      <point x="273" y="632" type="curve" smooth="yes"/>
      <point x="253" y="632"/>
      <point x="237" y="648"/>
    </contour>
    <contour>
      <point x="-149" y="-135" type="line"/>
      <point x="-140" y="-150"/>
      <point x="-123" y="-167"/>
      <point x="-105" y="-168" type="curve" smooth="yes"/>
      <point x="-51" y="-170"/>
      <point x="-17" y="-102"/>
      <point x="-2" y="-63" type="curve" smooth="yes"/>
      <point x="178" y="460" type="line"/>
      <point x="229" y="460" type="line"/>
      <point x="49" y="-69" type="line" smooth="yes"/>
      <point x="23" y="-139"/>
      <point x="-25" y="-221"/>
      <point x="-111" y="-219" type="curve" smooth="yes"/>
      <point x="-144" y="-218"/>
      <point x="-169" y="-199"/>
      <point x="-189" y="-175" type="curve"/>
    </contour>
  </outline>
</glyph>
<glyph name="k" format="1">
  <advance width="387"/>
  <unicode hex="006B"/>
  <outline>
    <contour>
      <point x="280" y="779" type="line"/>
      <point x="333" y="780" type="line"/>
      <point x="64" y="0" type="line"/>
      <point x="15" y="0" type="line"/>
    </contour>
    <contour>
      <point x="404" y="459" type="line"/>
      <point x="473" y="459" type="line"/>
      <point x="196" y="262" type="line"/>
      <point x="329" y="0" type="line"/>
      <point x="271" y="0" type="line"/>
      <point x="139" y="273" type="line"/>
    </contour>
  </outline>
</glyph>
<glyph name="l" format="1">
  <advance width="197"/>
  <unicode hex="006C"/>
  <outline>
    <contour>
      <point x="285" y="779" type="line"/>
      <point x="338" y="780" type="line"/>
      <point x="68" y="0" type="line"/>
      <point x="20" y="0" type="line"/>
    </contour>
  </outline>
</glyph>
<glyph name="m" format="1">
  <advance width="699"/>
  <unicode hex="006D"/>
  <outline>
    <contour>
      <point x="373" y="296" type="line" smooth="yes"/>
      <point x="388" y="344"/>
      <point x="401" y="416"/>
      <point x="331" y="419" type="curve" smooth="yes"/>
      <point x="252" y="423"/>
      <point x="196" y="343"/>
      <point x="164" y="282" type="curve"/>
      <point x="146" y="282" type="line"/>
      <point x="183" y="364"/>
      <point x="248" y="470"/>
      <point x="351" y="469" type="curve" smooth="yes"/>
      <point x="447" y="468"/>
      <point x="445" y="372"/>
      <point x="424" y="302" type="curve" smooth="yes"/>
      <point x="320" y="0" type="line"/>
      <point x="271" y="0" type="line"/>
    </contour>
    <contour>
      <point x="228" y="460" type="line"/>
      <point x="69" y="0" type="line"/>
      <point x="17" y="0" type="line"/>
      <point x="177" y="460" type="line"/>
    </contour>
    <contour>
      <point x="675" y="302" type="curve" smooth="yes"/>
      <point x="572" y="0" type="line"/>
      <point x="520" y="0" type="line"/>
      <point x="624" y="296" type="line" smooth="yes"/>
      <point x="639" y="344"/>
      <point x="651" y="416"/>
      <point x="581" y="419" type="curve" smooth="yes"/>
      <point x="502" y="423"/>
      <point x="448" y="343"/>
      <point x="416" y="282" type="curve"/>
      <point x="388" y="282" type="line"/>
      <point x="426" y="366"/>
      <point x="497" y="471"/>
      <point x="602" y="469" type="curve" smooth="yes"/>
      <point x="698" y="468"/>
      <point x="696" y="372"/>
    </contour>
  </outline>
</glyph>
<glyph name="o" format="1">
  <advance width="517"/>
  <unicode hex="006F"/>
  <outline>
    <contour>
      <point x="72" y="230" type="curve" smooth="yes"/>
      <point x="108" y="355"/>
      <point x="231" y="469"/>
      <point x="366" y="469" type="curve" smooth="yes"/>
      <point x="498" y="469"/>
      <point x="553" y="345"/>
      <point x="519" y="230" type="curve" smooth="yes"/>
      <point x="483" y="105"/>
      <point x="360" y="-9"/>
      <point x="225" y="-9" type="curve" smooth="yes"/>
      <point x="93" y="-9"/>
      <point x="38" y="115"/>
    </contour>
    <contour>
      <point x="123" y="230" type="curve" smooth="yes"/>
      <point x="95" y="143"/>
      <point x="129" y="41"/>
      <point x="233" y="40" type="curve" smooth="yes"/>
      <point x="340" y="39"/>
      <point x="437" y="133"/>
      <point x="468" y="230" type="curve" smooth="yes"/>
      <point x="496" y="317"/>
      <point x="461" y="419"/>
      <point x="357" y="420" type="curve" smooth="yes"/>
      <point x="250" y="421"/>
      <point x="154" y="327"/>
    </contour>
  </outline>
</glyph>
<glyph name="s" format="1">
  <advance width="379"/>
  <unicode hex="0073"/>
  <outline>
    <contour>
      <point x="80" y="155" type="line"/>
      <point x="87" y="102"/>
      <point x="105" y="42"/>
      <point x="171" y="40" type="curve" smooth="yes"/>
      <point x="219" y="39"/>
      <point x="274" y="73"/>
      <point x="288" y="120" type="curve" smooth="yes"/>
      <point x="304" y="174"/>
      <point x="256" y="200"/>
      <point x="215" y="219" type="curve" smooth="yes"/>
      <point x="157" y="246"/>
      <point x="107" y="282"/>
      <point x="128" y="354" type="curve" smooth="yes"/>
      <point x="148" y="425"/>
      <point x="219" y="468"/>
      <point x="296" y="468" type="curve" smooth="yes"/>
      <point x="360" y="468"/>
      <point x="396" y="430"/>
      <point x="415" y="374" type="curve"/>
      <point x="369" y="350" type="line"/>
      <point x="355" y="389"/>
      <point x="334" y="419"/>
      <point x="288" y="420" type="curve" smooth="yes"/>
      <point x="245" y="421"/>
      <point x="192" y="395"/>
      <point x="178" y="352" type="curve" smooth="yes"/>
      <point x="160" y="297"/>
      <point x="218" y="276"/>
      <point x="258" y="258" type="curve" smooth="yes"/>
      <point x="314" y="232"/>
      <point x="358" y="187"/>
      <point x="341" y="121" type="curve" smooth="yes"/>
      <point x="321" y="43"/>
      <point x="248" y="-11"/>
      <point x="162" y="-10" type="curve" smooth="yes"/>
      <point x="77" y="-9"/>
      <point x="45" y="60"/>
      <point x="35" y="133" type="curve"/>
    </contour>
  </outline>
</glyph>
<glyph name="t" format="1">
  <advance width="206"/>
  <unicode hex="0074"/>
  <outline>
    <contour>
      <point x="114" y="460" type="line"/>
      <point x="306" y="460" type="line"/>
      <point x="288" y="411" type="line"/>
      <point x="96" y="411" type="line"/>
    </contour>
    <contour>
      <point x="235" y="619" type="line"/>
      <point x="288" y="620" type="line"/>
      <point x="73" y="0" type="line"/>
      <point x="25" y="0" type="line"/>
    </contour>
  </outline>
</glyph>
<glyph name="u" format="1">
  <advance width="474"/>
  <unicode hex="0075"/>
  <outline>
    <contour>
      <point x="295" y="0" type="line"/>
      <point x="454" y="460" type="line"/>
      <point x="506" y="460" type="line"/>
      <point x="347" y="0" type="line"/>
    </contour>
    <contour>
      <point x="126" y="168" type="line" smooth="yes"/>
      <point x="109" y="113"/>
      <point x="105" y="42"/>
      <point x="180" y="40" type="curve" smooth="yes"/>
      <point x="263" y="37"/>
      <point x="323" y="112"/>
      <point x="359" y="178" type="curve"/>
      <point x="377" y="178" type="line"/>
      <point x="338" y="90"/>
      <point x="266" y="-10"/>
      <point x="159" y="-9" type="curve" smooth="yes"/>
      <point x="58" y="-9"/>
      <point x="51" y="85"/>
      <point x="74" y="162" type="curve"/>
      <point x="178" y="460" type="line"/>
      <point x="226" y="459" type="line"/>
    </contour>
  </outline>
</glyph>
<glyph name="v" format="1">
  <advance width="405"/>
  <unicode hex="0076"/>
  <outline>
    <contour>
      <point x="112" y="460" type="line"/>
      <point x="166" y="460" type="line"/>
      <point x="194" y="89" type="line"/>
      <point x="454" y="459" type="line"/>
      <point x="514" y="459" type="line"/>
      <point x="160" y="-29" type="line"/>
    </contour>
  </outline>
</glyph>
<glyph name="w" format="1">
  <advance width="616"/>
  <unicode hex="0077"/>
  <outline>
    <contour>
      <point x="113" y="460" type="line"/>
      <point x="166" y="460" type="line"/>
      <point x="159" y="108" type="line"/>
      <point x="417" y="490" type="line"/>
      <point x="416" y="106" type="line"/>
      <point x="656" y="459" type="line"/>
      <point x="715" y="459" type="line"/>
      <point x="376" y="-30" type="line"/>
      <point x="374" y="354" type="line"/>
      <point x="112" y="-30" type="line"/>
    </contour>
  </outline>
</glyph>
<glyph name="x" format="1">
  <advance width="379"/>
  <unicode hex="0078"/>
  <outline>
    <contour>
      <point x="416" y="459" type="line"/>
      <point x="478" y="459" type="line"/>
      <point x="258" y="232" type="line"/>
      <point x="341" y="0" type="line"/>
      <point x="288" y="0" type="line"/>
      <point x="218" y="198" type="line"/>
      <point x="28" y="0" type="line"/>
      <point x="-34" y="0" type="line"/>
      <point x="203" y="243" type="line"/>
      <point x="121" y="460" type="line"/>
      <point x="175" y="460" type="line"/>
      <point x="242" y="277" type="line"/>
    </contour>
  </outline>
</glyph>
<glyph name="y" format="1">
  <advance width="407"/>
  <unicode hex="0079"/>
  <outline>
    <contour>
      <point x="511" y="459" type="line"/>
      <point x="-6" y="-219" type="line"/>
      <point x="-65" y="-219" type="line"/>
      <point x="141" y="50" type="line"/>
      <point x="107" y="460" type="line"/>
      <point x="159" y="460" type="line"/>
      <point x="189" y="68" type="line"/>
      <point x="165" y="71" type="line"/>
      <point x="452" y="459" type="line"/>
    </contour>
  </outline>
</glyph>
<glyph name="z" format="1">
  <advance width="420"/>
  <unicode hex="007A"/>
  <outline>
    <contour>
      <point x="395" y="411" type="line"/>
      <point x="125" y="411" type="line"/>
      <point x="142" y="460" type="line"/>
      <point x="508" y="460" type="line"/>
      <point x="71" y="49" type="line"/>
      <point x="358" y="49" type="line"/>
      <point x="341" y="0" type="line"/>
      <point x="-42" y="0" type="line"/>
    </contour>
  </outline>
</glyph>
<glyph name="braceleft" format="1">
  <advance width="299"/>
  <unicode hex="007B"/>
  <outline>
    <contour>
      <point x="281" y="652" type="curve" smooth="yes"/>
      <point x="248" y="466" type="line" smooth="yes"/>
      <point x="232" y="377"/>
      <point x="198" y="283"/>
      <point x="121" y="283" type="curve"/>
      <point x="123" y="297" type="line"/>
      <point x="200" y="297"/>
      <point x="202" y="203"/>
      <point x="186" y="114" type="curve" smooth="yes"/>
      <point x="153" y="-72" type="line" smooth="yes"/>
      <point x="143" y="-126"/>
      <point x="157" y="-154"/>
      <point x="201" y="-154" type="curve" smooth="yes"/>
      <point x="230" y="-154" type="line"/>
      <point x="222" y="-200" type="line"/>
      <point x="178" y="-200" type="line" smooth="yes"/>
      <point x="122" y="-200"/>
      <point x="86" y="-159"/>
      <point x="103" y="-60" type="curve" smooth="yes"/>
      <point x="140" y="150" type="line" smooth="yes"/>
      <point x="153" y="226"/>
      <point x="138" y="260"/>
      <point x="110" y="270" type="curve"/>
      <point x="117" y="310" type="line"/>
      <point x="149" y="320"/>
      <point x="177" y="354"/>
      <point x="190" y="430" type="curve" smooth="yes"/>
      <point x="227" y="640" type="line" smooth="yes"/>
      <point x="244" y="739"/>
      <point x="295" y="780"/>
      <point x="351" y="780" type="curve" smooth="yes"/>
      <point x="395" y="780" type="line"/>
      <point x="386" y="734" type="line"/>
      <point x="357" y="734" type="line" smooth="yes"/>
      <point x="313" y="734"/>
      <point x="291" y="706"/>
    </contour>
  </outline>
</glyph>
<glyph name="bar" format="1">
  <advance width="233"/>
  <unicode hex="007C"/>
  <outline>
    <contour>
      <point x="301" y="784" type="line"/>
      <point x="348" y="784" type="line"/>
      <point x="40" y="-214" type="line"/>
      <point x="-7" y="-214" type="line"/>
    </contour>
  </outline>
</glyph>
<glyph name="braceright" format="1">
  <advance width="280"/>
  <unicode hex="007D"/>
  <outline>
    <contour>
      <point x="73" y="-72" type="curve" smooth="yes"/>
      <point x="129" y="114" type="line" smooth="yes"/>
      <point x="155" y="196"/>
      <point x="188" y="271"/>
      <point x="277" y="296" type="curve"/>
      <point x="273" y="283" type="line"/>
      <point x="193" y="316"/>
      <point x="219" y="398"/>
      <point x="239" y="466" type="curve" smooth="yes"/>
      <point x="297" y="653" type="line" smooth="yes"/>
      <point x="308" y="691"/>
      <point x="311" y="732"/>
      <point x="264" y="733" type="curve" smooth="yes"/>
      <point x="236" y="734" type="line"/>
      <point x="249" y="780" type="line"/>
      <point x="289" y="780" type="line" smooth="yes"/>
      <point x="364" y="780"/>
      <point x="359" y="695"/>
      <point x="342" y="640" type="curve" smooth="yes"/>
      <point x="277" y="430" type="line" smooth="yes"/>
      <point x="264" y="384"/>
      <point x="258" y="347"/>
      <point x="291" y="310" type="curve"/>
      <point x="279" y="270" type="line"/>
      <point x="233" y="241"/>
      <point x="210" y="201"/>
      <point x="193" y="150" type="curve" smooth="yes"/>
      <point x="129" y="-61" type="line" smooth="yes"/>
      <point x="107" y="-126"/>
      <point x="66" y="-199"/>
      <point x="-8" y="-199" type="curve" smooth="yes"/>
      <point x="-52" y="-199" type="line"/>
      <point x="-38" y="-154" type="line"/>
      <point x="-12" y="-154" type="line" smooth="yes"/>
      <point x="37" y="-154"/>
      <point x="59" y="-116"/>
    </contour>
  </outline>
</glyph>
<glyph name="asciitilde" format="1">
  <advance width="541"/>
  <unicode hex="007E"/>
  <outline>
    <contour>
      <point x="134" y="177" type="curve"/>
      <point x="89" y="181" type="line"/>
      <point x="90" y="189"/>
      <point x="90" y="198"/>
      <point x="92" y="206" type="curve" smooth="yes"/>
      <point x="101" y="233"/>
      <point x="119" y="261"/>
      <point x="139" y="281" type="curve" smooth="yes"/>
      <point x="166" y="307"/>
      <point x="204" y="326"/>
      <point x="242" y="326" type="curve" smooth="yes"/>
      <point x="285" y="326"/>
      <point x="312" y="297"/>
      <point x="338" y="267" type="curve" smooth="yes"/>
      <point x="353" y="247"/>
      <point x="373" y="222"/>
      <point x="402" y="222" type="curve" smooth="yes"/>
      <point x="440" y="222"/>
      <point x="472" y="260"/>
      <point x="484" y="293" type="curve" smooth="yes"/>
      <point x="488" y="302"/>
      <point x="488" y="313"/>
      <point x="488" y="322" type="curve"/>
      <point x="537" y="318" type="line"/>
      <point x="536" y="309"/>
      <point x="535" y="298"/>
      <point x="532" y="289" type="curve" smooth="yes"/>
      <point x="524" y="262"/>
      <point x="509" y="234"/>
      <point x="489" y="214" type="curve" smooth="yes"/>
      <point x="466" y="191"/>
      <point x="430" y="172"/>
      <point x="397" y="173" type="curve" smooth="yes"/>
      <point x="357" y="174"/>
      <point x="331" y="202"/>
      <point x="307" y="229" type="curve" smooth="yes"/>
      <point x="288" y="252"/>
      <point x="268" y="278"/>
      <point x="234" y="278" type="curve" smooth="yes"/>
      <point x="187" y="278"/>
      <point x="152" y="238"/>
      <point x="138" y="199" type="curve" smooth="yes"/>
      <point x="135" y="192"/>
      <point x="135" y="184"/>
    </contour>
  </outline>
</glyph>
<glyph name="exclamdown" format="1">
  <advance width="282"/>
  <unicode hex="00A1"/>
  <outline>
    <contour>
      <point x="43" y="-245" type="line"/>
      <point x="-23" y="-245" type="line"/>
      <point x="162" y="254" type="line"/>
      <point x="200" y="254" type="line"/>
    </contour>
    <contour>
      <point x="277" y="429" type="curve" smooth="yes"/>
      <point x="273" y="413"/>
      <point x="247" y="392"/>
      <point x="230" y="394" type="curve" smooth="yes"/>
      <point x="212" y="396"/>
      <point x="201" y="414"/>
      <point x="205" y="432" type="curve" smooth="yes"/>
      <point x="209" y="448"/>
      <point x="235" y="469"/>
      <point x="252" y="467" type="curve" smooth="yes"/>
      <point x="270" y="465"/>
      <point x="281" y="447"/>
    </contour>
  </outline>
</glyph>
<glyph name="cent" format="1">
  <advance width="545"/>
  <unicode hex="00A2"/>
  <outline>
    <contour>
      <point x="230" y="20" type="line"/>
      <point x="269" y="20" type="line"/>
      <point x="224" y="-111" type="line"/>
      <point x="182" y="-111" type="line"/>
    </contour>
    <contour>
      <point x="152" y="230" type="curve" smooth="yes"/>
      <point x="121" y="144"/>
      <point x="152" y="42"/>
      <point x="256" y="40" type="curve" smooth="yes"/>
      <point x="323" y="39"/>
      <point x="382" y="73"/>
      <point x="433" y="112" type="curve"/>
      <point x="413" y="48" type="line"/>
      <point x="363" y="15"/>
      <point x="307" y="-9"/>
      <point x="246" y="-9" type="curve" smooth="yes"/>
      <point x="113" y="-8"/>
      <point x="64" y="116"/>
      <point x="101" y="230" type="curve" smooth="yes"/>
      <point x="142" y="356"/>
      <point x="266" y="468"/>
      <point x="403" y="469" type="curve" smooth="yes"/>
      <point x="456" y="469"/>
      <point x="499" y="450"/>
      <point x="535" y="411" type="curve"/>
      <point x="515" y="347" type="line"/>
      <point x="491" y="396"/>
      <point x="450" y="421"/>
      <point x="394" y="420" type="curve" smooth="yes"/>
      <point x="286" y="419"/>
      <point x="187" y="328"/>
    </contour>
    <contour>
      <point x="418" y="577" type="line"/>
      <point x="461" y="577" type="line"/>
      <point x="411" y="443" type="line"/>
      <point x="372" y="443" type="line"/>
    </contour>
  </outline>
</glyph>
<glyph name="sterling" format="1">
  <advance width="545"/>
  <unicode hex="00A3"/>
  <outline>
    <contour>
      <point x="133" y="344" type="line"/>
      <point x="455" y="344" type="line"/>
      <point x="437" y="295" type="line"/>
      <point x="115" y="295" type="line"/>
    </contour>
    <contour>
      <point x="547" y="487" type="line"/>
      <point x="562" y="556"/>
      <point x="566" y="652"/>
      <point x="472" y="655" type="curve" smooth="yes"/>
      <point x="396" y="658"/>
      <point x="321" y="596"/>
      <point x="295" y="527" type="curve" smooth="yes"/>
      <point x="262" y="438"/>
      <point x="334" y="353"/>
      <point x="306" y="263" type="curve" smooth="yes"/>
      <point x="273" y="157"/>
      <point x="173" y="85"/>
      <point x="82" y="32" type="curve"/>
      <point x="88" y="52" type="line"/>
      <point x="444" y="52" type="line"/>
      <point x="425" y="0" type="line"/>
      <point x="17" y="0" type="line"/>
      <point x="100" y="75"/>
      <point x="215" y="143"/>
      <point x="252" y="255" type="curve" smooth="yes"/>
      <point x="282" y="347"/>
      <point x="211" y="434"/>
      <point x="240" y="527" type="curve" smooth="yes"/>
      <point x="272" y="627"/>
      <point x="375" y="711"/>
      <point x="482" y="709" type="curve" smooth="yes"/>
      <point x="598" y="707"/>
      <point x="614" y="595"/>
      <point x="597" y="504" type="curve"/>
    </contour>
  </outline>
</glyph>
<glyph name="currency" format="1">
  <advance width="537"/>
  <unicode hex="00A4"/>
  <outline>
    <contour>
      <point x="161" y="513" type="line"/>
      <point x="204" y="544" type="line"/>
      <point x="255" y="461" type="line"/>
      <point x="214" y="431" type="line"/>
    </contour>
    <contour>
      <point x="40" y="56" type="line"/>
      <point x="17" y="92" type="line"/>
      <point x="122" y="169" type="line"/>
      <point x="145" y="134" type="line"/>
    </contour>
    <contour>
      <point x="517" y="431" type="line"/>
      <point x="493" y="466" type="line"/>
      <point x="598" y="544" type="line"/>
      <point x="620" y="508" type="line"/>
    </contour>
    <contour>
      <point x="382" y="139" type="line"/>
      <point x="424" y="169" type="line"/>
      <point x="476" y="87" type="line"/>
      <point x="435" y="56" type="line"/>
    </contour>
    <contour>
      <point x="95" y="300" type="curve" smooth="yes"/>
      <point x="135" y="423"/>
      <point x="260" y="539"/>
      <point x="395" y="539" type="curve" smooth="yes"/>
      <point x="527" y="539"/>
      <point x="576" y="413"/>
      <point x="539" y="300" type="curve" smooth="yes"/>
      <point x="499" y="177"/>
      <point x="374" y="61"/>
      <point x="239" y="61" type="curve" smooth="yes"/>
      <point x="107" y="61"/>
      <point x="58" y="187"/>
    </contour>
    <contour>
      <point x="147" y="300" type="curve" smooth="yes"/>
      <point x="117" y="215"/>
      <point x="143" y="111"/>
      <point x="248" y="110" type="curve" smooth="yes"/>
      <point x="355" y="109"/>
      <point x="454" y="204"/>
      <point x="488" y="300" type="curve" smooth="yes"/>
      <point x="518" y="385"/>
      <point x="491" y="489"/>
      <point x="386" y="490" type="curve" smooth="yes"/>
      <point x="279" y="491"/>
      <point x="181" y="396"/>
    </contour>
  </outline>
</glyph>
<glyph name="yen" format="1">
  <advance width="574"/>
  <unicode hex="00A5"/>
  <outline>
    <contour>
      <point x="309" y="326" type="line"/>
      <point x="365" y="326" type="line"/>
      <point x="308" y="0" type="line"/>
      <point x="252" y="0" type="line"/>
    </contour>
    <contour>
      <point x="604" y="700" type="line"/>
      <point x="665" y="700" type="line"/>
      <point x="321" y="240" type="line"/>
      <point x="145" y="700" type="line"/>
      <point x="206" y="700" type="line"/>
      <point x="339" y="338" type="line"/>
    </contour>
    <contour>
      <point x="64" y="142" type="line"/>
      <point x="73" y="191" type="line"/>
      <point x="555" y="191" type="line"/>
      <point x="546" y="142" type="line"/>
    </contour>
    <contour>
      <point x="89" y="282" type="line"/>
      <point x="97" y="331" type="line"/>
      <point x="579" y="331" type="line"/>
      <point x="571" y="282" type="line"/>
    </contour>
  </outline>
</glyph>
<glyph name="brokenbar" format="1">
  <advance width="233"/>
  <unicode hex="00A6"/>
  <outline>
    <contour>
      <point x="277" y="694" type="line"/>
      <point x="324" y="694" type="line"/>
      <point x="241" y="456" type="line"/>
      <point x="194" y="456" type="line"/>
    </contour>
    <contour>
      <point x="170" y="244" type="line"/>
      <point x="87" y="6" type="line"/>
      <point x="40" y="6" type="line"/>
      <point x="123" y="244" type="line"/>
    </contour>
  </outline>
</glyph>
<glyph name="section" format="1">
  <advance width="379"/>
  <unicode hex="00A7"/>
  <outline>
    <contour>
      <point x="461" y="594" type="line"/>
      <point x="444" y="635"/>
      <point x="416" y="659"/>
      <point x="369" y="659" type="curve" smooth="yes"/>
      <point x="327" y="659"/>
      <point x="267" y="636"/>
      <point x="253" y="592" type="curve" smooth="yes"/>
      <point x="236" y="539"/>
      <point x="303" y="516"/>
      <point x="339" y="497" type="curve" smooth="yes"/>
      <point x="390" y="470"/>
      <point x="442" y="430"/>
      <point x="424" y="365" type="curve" smooth="yes"/>
      <point x="398" y="273"/>
      <point x="305" y="248"/>
      <point x="223" y="242" type="curve"/>
      <point x="230" y="261" type="line"/>
      <point x="284" y="279"/>
      <point x="354" y="301"/>
      <point x="371" y="362" type="curve" smooth="yes"/>
      <point x="386" y="416"/>
      <point x="335" y="442"/>
      <point x="295" y="462" type="curve" smooth="yes"/>
      <point x="242" y="489"/>
      <point x="181" y="524"/>
      <point x="203" y="594" type="curve" smooth="yes"/>
      <point x="225" y="665"/>
      <point x="307" y="708"/>
      <point x="378" y="709" type="curve" smooth="yes"/>
      <point x="442" y="710"/>
      <point x="487" y="679"/>
      <point x="506" y="619" type="curve"/>
    </contour>
    <contour>
      <point x="63" y="147" type="line"/>
      <point x="66" y="87"/>
      <point x="93" y="41"/>
      <point x="158" y="40" type="curve" smooth="yes"/>
      <point x="207" y="39"/>
      <point x="268" y="64"/>
      <point x="286" y="114" type="curve" smooth="yes"/>
      <point x="307" y="172"/>
      <point x="252" y="199"/>
      <point x="210" y="222" type="curve" smooth="yes"/>
      <point x="157" y="251"/>
      <point x="101" y="292"/>
      <point x="122" y="360" type="curve" smooth="yes"/>
      <point x="149" y="450"/>
      <point x="243" y="471"/>
      <point x="323" y="478" type="curve"/>
      <point x="318" y="463" type="line"/>
      <point x="264" y="443"/>
      <point x="193" y="425"/>
      <point x="174" y="365" type="curve" smooth="yes"/>
      <point x="155" y="306"/>
      <point x="211" y="279"/>
      <point x="254" y="256" type="curve" smooth="yes"/>
      <point x="308" y="227"/>
      <point x="359" y="185"/>
      <point x="339" y="117" type="curve" smooth="yes"/>
      <point x="316" y="36"/>
      <point x="225" y="-11"/>
      <point x="145" y="-9" type="curve" smooth="yes"/>
      <point x="63" y="-7"/>
      <point x="18" y="46"/>
      <point x="15" y="124" type="curve"/>
    </contour>
  </outline>
</glyph>
<glyph name="dieresis" format="1">
  <advance width="424"/>
  <unicode hex="00A8"/>
  <outline>
    <contour>
      <point x="443" y="673" type="curve" smooth="yes"/>
      <point x="446" y="689"/>
      <point x="472" y="710"/>
      <point x="489" y="708" type="curve" smooth="yes"/>
      <point x="507" y="706"/>
      <point x="518" y="688"/>
      <point x="515" y="670" type="curve" smooth="yes"/>
      <point x="512" y="654"/>
      <point x="485" y="633"/>
      <point x="468" y="635" type="curve" smooth="yes"/>
      <point x="450" y="637"/>
      <point x="440" y="655"/>
    </contour>
    <contour>
      <point x="255" y="673" type="curve" smooth="yes"/>
      <point x="258" y="689"/>
      <point x="284" y="710"/>
      <point x="301" y="708" type="curve" smooth="yes"/>
      <point x="319" y="706"/>
      <point x="330" y="688"/>
      <point x="327" y="670" type="curve" smooth="yes"/>
      <point x="324" y="654"/>
      <point x="297" y="633"/>
      <point x="280" y="635" type="curve" smooth="yes"/>
      <point x="262" y="637"/>
      <point x="252" y="655"/>
    </contour>
  </outline>
</glyph>
<glyph name="copyright" format="1">
  <advance width="752"/>
  <unicode hex="00A9"/>
  <outline>
    <contour>
      <point x="283" y="350" type="curve" smooth="yes"/>
      <point x="256" y="268"/>
      <point x="284" y="171"/>
      <point x="384" y="169" type="curve" smooth="yes"/>
      <point x="439" y="167"/>
      <point x="488" y="194"/>
      <point x="532" y="223" type="curve"/>
      <point x="519" y="180" type="line"/>
      <point x="476" y="154"/>
      <point x="431" y="134"/>
      <point x="380" y="135" type="curve" smooth="yes"/>
      <point x="263" y="136"/>
      <point x="218" y="249"/>
      <point x="248" y="350" type="curve" smooth="yes"/>
      <point x="280" y="461"/>
      <point x="386" y="563"/>
      <point x="506" y="565" type="curve" smooth="yes"/>
      <point x="553" y="566"/>
      <point x="589" y="549"/>
      <point x="623" y="519" type="curve"/>
      <point x="610" y="475" type="line"/>
      <point x="582" y="511"/>
      <point x="550" y="531"/>
      <point x="503" y="531" type="curve" smooth="yes"/>
      <point x="401" y="531"/>
      <point x="313" y="442"/>
    </contour>
    <contour>
      <point x="147" y="350" type="curve" smooth="yes"/>
      <point x="98" y="196"/>
      <point x="167" y="26"/>
      <point x="346" y="25" type="curve" smooth="yes"/>
      <point x="531" y="24"/>
      <point x="699" y="180"/>
      <point x="753" y="350" type="curve" smooth="yes"/>
      <point x="802" y="504"/>
      <point x="733" y="674"/>
      <point x="554" y="675" type="curve" smooth="yes"/>
      <point x="369" y="676"/>
      <point x="201" y="520"/>
    </contour>
    <contour>
      <point x="110" y="350" type="curve" smooth="yes"/>
      <point x="167" y="541"/>
      <point x="352" y="711"/>
      <point x="557" y="710" type="curve" smooth="yes"/>
      <point x="755" y="709"/>
      <point x="842" y="525"/>
      <point x="790" y="350" type="curve" smooth="yes"/>
      <point x="733" y="159"/>
      <point x="548" y="-11"/>
      <point x="343" y="-10" type="curve" smooth="yes"/>
      <point x="145" y="-9"/>
      <point x="58" y="175"/>
    </contour>
  </outline>
</glyph>
<glyph name="ordfeminine" format="1">
  <advance width="223"/>
  <unicode hex="00AA"/>
  <outline>
    <contour>
      <point x="172" y="530" type="curve" smooth="yes"/>
      <point x="165" y="504"/>
      <point x="181" y="482"/>
      <point x="207" y="480" type="curve" smooth="yes"/>
      <point x="250" y="477"/>
      <point x="279" y="515"/>
      <point x="302" y="545" type="curve"/>
      <point x="303" y="529" type="line"/>
      <point x="279" y="492"/>
      <point x="247" y="454"/>
      <point x="198" y="456" type="curve" smooth="yes"/>
      <point x="157" y="458"/>
      <point x="134" y="493"/>
      <point x="147" y="532" type="curve" smooth="yes"/>
      <point x="162" y="576"/>
      <point x="217" y="607"/>
      <point x="261" y="607" type="curve" smooth="yes"/>
      <point x="287" y="607"/>
      <point x="304" y="595"/>
      <point x="324" y="580" type="curve"/>
      <point x="319" y="564" type="line"/>
      <point x="300" y="576"/>
      <point x="283" y="588"/>
      <point x="260" y="588" type="curve" smooth="yes"/>
      <point x="228" y="588"/>
      <point x="181" y="563"/>
    </contour>
    <contour>
      <point x="222" y="653" type="curve"/>
      <point x="215" y="674" type="line"/>
      <point x="241" y="687"/>
      <point x="272" y="705"/>
      <point x="303" y="703" type="curve" smooth="yes"/>
      <point x="345" y="700"/>
      <point x="364" y="670"/>
      <point x="356" y="630" type="curve"/>
      <point x="297" y="461" type="line"/>
      <point x="271" y="461" type="line"/>
      <point x="331" y="631" type="line"/>
      <point x="331" y="655"/>
      <point x="329" y="675"/>
      <point x="300" y="678" type="curve" smooth="yes"/>
      <point x="273" y="681"/>
      <point x="244" y="665"/>
    </contour>
  </outline>
</glyph>
<glyph name="guillemotleft" format="1">
  <advance width="469"/>
  <unicode hex="00AB"/>
  <outline>
    <contour>
      <point x="276" y="257" type="line"/>
      <point x="368" y="49" type="line"/>
      <point x="329" y="20" type="line"/>
      <point x="221" y="259" type="line"/>
      <point x="485" y="489" type="line"/>
      <point x="509" y="458" type="line"/>
    </contour>
    <contour>
      <point x="125" y="257" type="line"/>
      <point x="218" y="49" type="line"/>
      <point x="178" y="20" type="line"/>
      <point x="70" y="259" type="line"/>
      <point x="334" y="489" type="line"/>
      <point x="359" y="458" type="line"/>
    </contour>
  </outline>
</glyph>
<glyph name="logicalnot" format="1">
  <advance width="583"/>
  <unicode hex="00AC"/>
  <outline>
    <contour>
      <point x="117" y="326" type="line"/>
      <point x="134" y="375" type="line"/>
      <point x="598" y="375" type="line"/>
      <point x="527" y="176" type="line"/>
      <point x="479" y="176" type="line"/>
      <point x="533" y="326" type="line"/>
    </contour>
  </outline>
</glyph>
<glyph name="registered" format="1">
  <advance width="752"/>
  <unicode hex="00AE"/>
  <outline>
    <contour>
      <point x="406" y="351" type="line"/>
      <point x="441" y="351" type="line"/>
      <point x="518" y="149" type="line"/>
      <point x="479" y="149" type="line"/>
    </contour>
    <contour>
      <point x="409" y="569" type="line"/>
      <point x="442" y="569" type="line"/>
      <point x="311" y="151" type="line"/>
      <point x="279" y="151" type="line"/>
    </contour>
    <contour>
      <point x="415" y="540" type="line"/>
      <point x="424" y="569" type="line"/>
      <point x="497" y="570" type="line"/>
      <point x="566" y="566"/>
      <point x="618" y="520"/>
      <point x="597" y="447" type="curve" smooth="yes"/>
      <point x="576" y="372"/>
      <point x="499" y="331"/>
      <point x="426" y="327" type="curve"/>
      <point x="349" y="327" type="line"/>
      <point x="358" y="355" type="line"/>
      <point x="431" y="355" type="line"/>
      <point x="487" y="359"/>
      <point x="547" y="390"/>
      <point x="564" y="448" type="curve" smooth="yes"/>
      <point x="581" y="503"/>
      <point x="544" y="534"/>
      <point x="492" y="539" type="curve"/>
    </contour>
    <contour>
      <point x="147" y="350" type="curve" smooth="yes"/>
      <point x="98" y="196"/>
      <point x="167" y="26"/>
      <point x="346" y="25" type="curve" smooth="yes"/>
      <point x="531" y="24"/>
      <point x="699" y="180"/>
      <point x="753" y="350" type="curve" smooth="yes"/>
      <point x="802" y="504"/>
      <point x="733" y="674"/>
      <point x="554" y="675" type="curve" smooth="yes"/>
      <point x="369" y="676"/>
      <point x="201" y="520"/>
    </contour>
    <contour>
      <point x="110" y="350" type="curve" smooth="yes"/>
      <point x="167" y="540"/>
      <point x="352" y="711"/>
      <point x="557" y="710" type="curve" smooth="yes"/>
      <point x="755" y="709"/>
      <point x="842" y="525"/>
      <point x="790" y="350" type="curve" smooth="yes"/>
      <point x="733" y="160"/>
      <point x="548" y="-11"/>
      <point x="343" y="-10" type="curve" smooth="yes"/>
      <point x="145" y="-9"/>
      <point x="58" y="175"/>
    </contour>
  </outline>
</glyph>
<glyph name="macron" format="1">
  <advance width="479"/>
  <unicode hex="00AF"/>
  <outline>
    <contour>
      <point x="234" y="626" type="line"/>
      <point x="249" y="675" type="line"/>
      <point x="580" y="675" type="line"/>
      <point x="565" y="626" type="line"/>
    </contour>
  </outline>
</glyph>
<glyph name="degree" format="1">
  <advance width="261"/>
  <unicode hex="00B0"/>
  <outline>
    <contour>
      <point x="168" y="601" type="curve" smooth="yes"/>
      <point x="187" y="662"/>
      <point x="254" y="720"/>
      <point x="320" y="719" type="curve" smooth="yes"/>
      <point x="386" y="718"/>
      <point x="413" y="657"/>
      <point x="395" y="599" type="curve" smooth="yes"/>
      <point x="376" y="538"/>
      <point x="309" y="480"/>
      <point x="243" y="481" type="curve" smooth="yes"/>
      <point x="177" y="482"/>
      <point x="150" y="543"/>
    </contour>
    <contour>
      <point x="195" y="600" type="curve" smooth="yes"/>
      <point x="180" y="559"/>
      <point x="196" y="509"/>
      <point x="246" y="508" type="curve" smooth="yes"/>
      <point x="297" y="507"/>
      <point x="350" y="554"/>
      <point x="367" y="600" type="curve" smooth="yes"/>
      <point x="382" y="641"/>
      <point x="366" y="691"/>
      <point x="316" y="692" type="curve" smooth="yes"/>
      <point x="265" y="693"/>
      <point x="212" y="646"/>
    </contour>
  </outline>
</glyph>
<glyph name="plusminus" format="1">
  <advance width="576"/>
  <unicode hex="00B1"/>
  <outline>
    <contour>
      <point x="28" y="0" type="line"/>
      <point x="43" y="52" type="line"/>
      <point x="499" y="52" type="line"/>
      <point x="483" y="0" type="line"/>
    </contour>
    <contour>
      <point x="138" y="359" type="line"/>
      <point x="154" y="411" type="line"/>
      <point x="610" y="411" type="line"/>
      <point x="594" y="359" type="line"/>
    </contour>
    <contour>
      <point x="418" y="620" type="line"/>
      <point x="473" y="620" type="line"/>
      <point x="326" y="150" type="line"/>
      <point x="274" y="151" type="line"/>
    </contour>
  </outline>
</glyph>
<glyph name="uni00B2" format="1">
  <advance width="319"/>
  <unicode hex="00B2"/>
  <outline>
    <contour>
      <point x="67" y="284" type="line"/>
      <point x="319" y="490" type="line" smooth="yes"/>
      <point x="351" y="516"/>
      <point x="389" y="548"/>
      <point x="403" y="589" type="curve" smooth="yes"/>
      <point x="417" y="630"/>
      <point x="401" y="674"/>
      <point x="353" y="677" type="curve" smooth="yes"/>
      <point x="285" y="682"/>
      <point x="240" y="612"/>
      <point x="213" y="560" type="curve"/>
      <point x="180" y="560" type="line"/>
      <point x="213" y="630"/>
      <point x="269" y="710"/>
      <point x="357" y="708" type="curve" smooth="yes"/>
      <point x="425" y="707"/>
      <point x="453" y="646"/>
      <point x="434" y="586" type="curve" smooth="yes"/>
      <point x="419" y="539"/>
      <point x="381" y="502"/>
      <point x="344" y="471" type="curve" smooth="yes"/>
      <point x="146" y="314" type="line"/>
      <point x="348" y="313" type="line"/>
      <point x="337" y="283" type="line"/>
    </contour>
  </outline>
</glyph>
<glyph name="uni00B3" format="1">
  <advance width="291"/>
  <unicode hex="00B3"/>
  <outline>
    <contour>
      <point x="245" y="493" type="curve"/>
      <point x="252" y="513" type="line"/>
      <point x="302" y="523"/>
      <point x="358" y="543"/>
      <point x="377" y="596" type="curve" smooth="yes"/>
      <point x="391" y="634"/>
      <point x="374" y="672"/>
      <point x="332" y="675" type="curve" smooth="yes"/>
      <point x="282" y="678"/>
      <point x="247" y="635"/>
      <point x="222" y="598" type="curve"/>
      <point x="190" y="599" type="line"/>
      <point x="220" y="654"/>
      <point x="267" y="707"/>
      <point x="336" y="705" type="curve" smooth="yes"/>
      <point x="396" y="703"/>
      <point x="428" y="650"/>
      <point x="409" y="595" type="curve" smooth="yes"/>
      <point x="386" y="525"/>
      <point x="311" y="502"/>
    </contour>
    <contour>
      <point x="192" y="275" type="curve" smooth="yes"/>
      <point x="118" y="275"/>
      <point x="96" y="326"/>
      <point x="104" y="391" type="curve"/>
      <point x="136" y="391" type="line"/>
      <point x="132" y="345"/>
      <point x="141" y="308"/>
      <point x="196" y="306" type="curve" smooth="yes"/>
      <point x="247" y="304"/>
      <point x="303" y="345"/>
      <point x="318" y="393" type="curve" smooth="yes"/>
      <point x="337" y="452"/>
      <point x="291" y="473"/>
      <point x="242" y="483" type="curve"/>
      <point x="249" y="504" type="line"/>
      <point x="315" y="495"/>
      <point x="374" y="465"/>
      <point x="350" y="388" type="curve" smooth="yes"/>
      <point x="330" y="323"/>
      <point x="259" y="275"/>
    </contour>
  </outline>
</glyph>
<glyph name="acute" format="1">
  <advance width="366"/>
  <unicode hex="00B4"/>
  <outline>
    <contour>
      <point x="400" y="673" type="line"/>
      <point x="196" y="520" type="line"/>
      <point x="170" y="540" type="line"/>
      <point x="356" y="700" type="line"/>
    </contour>
  </outline>
</glyph>
<glyph name="mu" format="1">
  <advance width="474"/>
  <unicode hex="00B5"/>
  <outline>
    <contour>
      <point x="295" y="0" type="line"/>
      <point x="454" y="460" type="line"/>
      <point x="506" y="460" type="line"/>
      <point x="347" y="0" type="line"/>
    </contour>
    <contour>
      <point x="126" y="168" type="line" smooth="yes"/>
      <point x="109" y="113"/>
      <point x="105" y="42"/>
      <point x="180" y="40" type="curve" smooth="yes"/>
      <point x="263" y="37"/>
      <point x="323" y="112"/>
      <point x="359" y="178" type="curve"/>
      <point x="383" y="178" type="line"/>
      <point x="343" y="90"/>
      <point x="267" y="-10"/>
      <point x="159" y="-9" type="curve" smooth="yes"/>
      <point x="58" y="-9"/>
      <point x="51" y="85"/>
      <point x="74" y="162" type="curve"/>
      <point x="178" y="460" type="line"/>
      <point x="226" y="459" type="line"/>
    </contour>
    <contour>
      <point x="176" y="459" type="line"/>
      <point x="229" y="460" type="line"/>
      <point x="-41" y="-320" type="line"/>
      <point x="-89" y="-319" type="line"/>
    </contour>
  </outline>
</glyph>
<glyph name="paragraph" format="1">
  <advance width="494"/>
  <unicode hex="00B6"/>
  <outline>
    <contour>
      <point x="441" y="658" type="line"/>
      <point x="454" y="699" type="line"/>
      <point x="606" y="699" type="line"/>
      <point x="593" y="658" type="line"/>
    </contour>
    <contour>
      <point x="579" y="699" type="line"/>
      <point x="624" y="699" type="line"/>
      <point x="310" y="-219" type="line"/>
      <point x="265" y="-219" type="line"/>
    </contour>
    <contour>
      <point x="454" y="699" type="line"/>
      <point x="500" y="699" type="line"/>
      <point x="185" y="-219" type="line"/>
      <point x="141" y="-219" type="line"/>
    </contour>
    <contour>
      <point x="311" y="271" type="line"/>
      <point x="191" y="284"/>
      <point x="127" y="367"/>
      <point x="166" y="486" type="curve" smooth="yes"/>
      <point x="208" y="615"/>
      <point x="323" y="699"/>
      <point x="454" y="699" type="curve"/>
    </contour>
  </outline>
</glyph>
<glyph name="periodcentered" format="1">
  <advance width="260"/>
  <unicode hex="00B7"/>
  <outline>
    <contour>
      <point x="119" y="234" type="curve" smooth="yes"/>
      <point x="123" y="250"/>
      <point x="149" y="271"/>
      <point x="166" y="269" type="curve" smooth="yes"/>
      <point x="184" y="267"/>
      <point x="196" y="249"/>
      <point x="192" y="231" type="curve" smooth="yes"/>
      <point x="188" y="215"/>
      <point x="161" y="194"/>
      <point x="144" y="196" type="curve" smooth="yes"/>
      <point x="126" y="198"/>
      <point x="115" y="216"/>
    </contour>
  </outline>
</glyph>
<glyph name="cedilla" format="1">
  <advance width="350"/>
  <unicode hex="00B8"/>
  <outline>
    <contour>
      <point x="194" y="36" type="line"/>
      <point x="235" y="36" type="line"/>
      <point x="157" y="-63" type="line"/>
      <point x="97" y="-100" type="line"/>
    </contour>
    <contour>
      <point x="253" y="-126" type="curve"/>
      <point x="215" y="-126" type="line"/>
      <point x="221" y="-94"/>
      <point x="200" y="-79"/>
      <point x="168" y="-79" type="curve" smooth="yes"/>
      <point x="150" y="-79"/>
      <point x="123" y="-84"/>
      <point x="97" y="-100" type="curve"/>
      <point x="130" y="-71" type="line"/>
      <point x="159" y="-55"/>
      <point x="172" y="-52"/>
      <point x="193" y="-52" type="curve" smooth="yes"/>
      <point x="226" y="-52"/>
      <point x="262" y="-77"/>
    </contour>
    <contour>
      <point x="253" y="-126" type="line"/>
      <point x="242" y="-187"/>
      <point x="184" y="-220"/>
      <point x="129" y="-220" type="curve" smooth="yes"/>
      <point x="92" y="-220"/>
      <point x="70" y="-210"/>
      <point x="47" y="-182" type="curve"/>
      <point x="74" y="-156" type="line"/>
      <point x="94" y="-175"/>
      <point x="107" y="-184"/>
      <point x="136" y="-184" type="curve" smooth="yes"/>
      <point x="175" y="-184"/>
      <point x="208" y="-163"/>
      <point x="215" y="-126" type="curve"/>
    </contour>
  </outline>
</glyph>
<glyph name="uni00B9" format="1">
  <advance width="442"/>
  <unicode hex="00B9"/>
  <outline>
    <contour>
      <point x="302" y="635" type="line"/>
      <point x="312" y="668" type="line"/>
      <point x="449" y="699" type="line"/>
      <point x="301" y="275" type="line"/>
      <point x="269" y="275" type="line"/>
      <point x="399" y="657" type="line"/>
    </contour>
  </outline>
</glyph>
<glyph name="ordmasculine" format="1">
  <advance width="261"/>
  <unicode hex="00BA"/>
  <outline>
    <contour>
      <point x="161" y="581" type="curve" smooth="yes"/>
      <point x="180" y="642"/>
      <point x="247" y="700"/>
      <point x="313" y="699" type="curve" smooth="yes"/>
      <point x="379" y="698"/>
      <point x="406" y="637"/>
      <point x="388" y="579" type="curve" smooth="yes"/>
      <point x="369" y="518"/>
      <point x="302" y="460"/>
      <point x="236" y="461" type="curve" smooth="yes"/>
      <point x="170" y="462"/>
      <point x="143" y="523"/>
    </contour>
    <contour>
      <point x="188" y="580" type="curve" smooth="yes"/>
      <point x="173" y="539"/>
      <point x="189" y="489"/>
      <point x="239" y="488" type="curve" smooth="yes"/>
      <point x="290" y="487"/>
      <point x="344" y="534"/>
      <point x="361" y="580" type="curve" smooth="yes"/>
      <point x="376" y="621"/>
      <point x="360" y="671"/>
      <point x="310" y="672" type="curve" smooth="yes"/>
      <point x="259" y="673"/>
      <point x="205" y="626"/>
    </contour>
  </outline>
</glyph>
<glyph name="guillemotright" format="1">
  <advance width="469"/>
  <unicode hex="00BB"/>
  <outline>
    <contour>
      <point x="260" y="253" type="line"/>
      <point x="168" y="461" type="line"/>
      <point x="207" y="490" type="line"/>
      <point x="316" y="251" type="line"/>
      <point x="51" y="21" type="line"/>
      <point x="27" y="52" type="line"/>
    </contour>
    <contour>
      <point x="411" y="253" type="line"/>
      <point x="319" y="461" type="line"/>
      <point x="358" y="490" type="line"/>
      <point x="466" y="251" type="line"/>
      <point x="201" y="21" type="line"/>
      <point x="178" y="52" type="line"/>
    </contour>
  </outline>
</glyph>
<glyph name="onequarter" format="1">
  <advance width="754"/>
  <unicode hex="00BC"/>
  <outline>
    <contour>
      <point x="762" y="700" type="line"/>
      <point x="806" y="700" type="line"/>
      <point x="142" y="0" type="line"/>
      <point x="98" y="0" type="line"/>
    </contour>
    <contour>
      <point x="138" y="633" type="line"/>
      <point x="144" y="668" type="line"/>
      <point x="279" y="699" type="line"/>
      <point x="204" y="274" type="line"/>
      <point x="171" y="274" type="line"/>
      <point x="239" y="659" type="line"/>
    </contour>
    <contour>
      <point x="414" y="84" type="line"/>
      <point x="447" y="113" type="line"/>
      <point x="644" y="113" type="line" smooth="yes"/>
      <point x="651" y="113" type="line" smooth="yes"/>
      <point x="730" y="113" type="line"/>
      <point x="725" y="84" type="line"/>
    </contour>
    <contour>
      <point x="449" y="84" type="line"/>
      <point x="414" y="84" type="line"/>
      <point x="705" y="420" type="line"/>
      <point x="718" y="420" type="line"/>
      <point x="644" y="0" type="line"/>
      <point x="611" y="0" type="line"/>
      <point x="628" y="98" type="line" smooth="yes"/>
      <point x="629" y="102" type="line" smooth="yes"/>
      <point x="672" y="344" type="line"/>
    </contour>
  </outline>
</glyph>
<glyph name="onehalf" format="1">
  <advance width="770"/>
  <unicode hex="00BD"/>
  <outline>
    <contour>
      <point x="784" y="698" type="line"/>
      <point x="828" y="697" type="line"/>
      <point x="81" y="0" type="line"/>
      <point x="37" y="0" type="line"/>
    </contour>
    <contour>
      <point x="187" y="635" type="line"/>
      <point x="197" y="668" type="line"/>
      <point x="334" y="699" type="line"/>
      <point x="187" y="275" type="line"/>
      <point x="154" y="275" type="line"/>
      <point x="284" y="657" type="line"/>
    </contour>
    <contour>
      <point x="411" y="4" type="line"/>
      <point x="663" y="209" type="line" smooth="yes"/>
      <point x="695" y="235"/>
      <point x="733" y="268"/>
      <point x="747" y="309" type="curve" smooth="yes"/>
      <point x="761" y="350"/>
      <point x="745" y="392"/>
      <point x="697" y="396" type="curve" smooth="yes"/>
      <point x="629" y="401"/>
      <point x="584" y="332"/>
      <point x="557" y="280" type="curve"/>
      <point x="524" y="280" type="line"/>
      <point x="557" y="350"/>
      <point x="613" y="430"/>
      <point x="701" y="428" type="curve" smooth="yes"/>
      <point x="769" y="426"/>
      <point x="798" y="366"/>
      <point x="779" y="306" type="curve" smooth="yes"/>
      <point x="764" y="259"/>
      <point x="725" y="222"/>
      <point x="688" y="191" type="curve" smooth="yes"/>
      <point x="491" y="34" type="line"/>
      <point x="692" y="33" type="line"/>
      <point x="682" y="3" type="line"/>
    </contour>
  </outline>
</glyph>
<glyph name="threequarters" format="1">
  <advance width="771"/>
  <unicode hex="00BE"/>
  <outline>
    <contour>
      <point x="847" y="698" type="line"/>
      <point x="891" y="697" type="line"/>
      <point x="144" y="0" type="line"/>
      <point x="100" y="0" type="line"/>
    </contour>
    <contour>
      <point x="250" y="493" type="curve"/>
      <point x="257" y="513" type="line"/>
      <point x="307" y="523"/>
      <point x="363" y="543"/>
      <point x="382" y="596" type="curve" smooth="yes"/>
      <point x="396" y="634"/>
      <point x="379" y="672"/>
      <point x="337" y="675" type="curve" smooth="yes"/>
      <point x="287" y="678"/>
      <point x="251" y="635"/>
      <point x="226" y="598" type="curve"/>
      <point x="195" y="599" type="line"/>
      <point x="225" y="654"/>
      <point x="272" y="707"/>
      <point x="341" y="705" type="curve" smooth="yes"/>
      <point x="401" y="703"/>
      <point x="433" y="650"/>
      <point x="414" y="595" type="curve" smooth="yes"/>
      <point x="391" y="525"/>
      <point x="316" y="502"/>
    </contour>
    <contour>
      <point x="197" y="275" type="curve" smooth="yes"/>
      <point x="123" y="275"/>
      <point x="100" y="326"/>
      <point x="108" y="391" type="curve"/>
      <point x="140" y="391" type="line"/>
      <point x="136" y="345"/>
      <point x="145" y="308"/>
      <point x="200" y="306" type="curve" smooth="yes"/>
      <point x="251" y="304"/>
      <point x="308" y="345"/>
      <point x="323" y="393" type="curve" smooth="yes"/>
      <point x="342" y="452"/>
      <point x="296" y="473"/>
      <point x="247" y="483" type="curve"/>
      <point x="254" y="504" type="line"/>
      <point x="320" y="495"/>
      <point x="379" y="465"/>
      <point x="355" y="388" type="curve" smooth="yes"/>
      <point x="335" y="323"/>
      <point x="264" y="275"/>
    </contour>
    <contour>
      <point x="413" y="85" type="line"/>
      <point x="446" y="112" type="line"/>
      <point x="631" y="113" type="line"/>
      <point x="638" y="113" type="line"/>
      <point x="715" y="113" type="line"/>
      <point x="706" y="85" type="line"/>
    </contour>
    <contour>
      <point x="448" y="86" type="line"/>
      <point x="412" y="87" type="line"/>
      <point x="744" y="418" type="line"/>
      <point x="758" y="419" type="line"/>
      <point x="615" y="0" type="line"/>
      <point x="582" y="0" type="line"/>
      <point x="616" y="98" type="line"/>
      <point x="617" y="102" type="line"/>
      <point x="699" y="336" type="line"/>
    </contour>
  </outline>
</glyph>
<glyph name="questiondown" format="1">
  <advance width="518"/>
  <unicode hex="00BF"/>
  <outline>
    <contour>
      <point x="125" y="192" type="curve" smooth="yes"/>
      <point x="94" y="113"/>
      <point x="135" y="41"/>
      <point x="222" y="40" type="curve" smooth="yes"/>
      <point x="296" y="39"/>
      <point x="357" y="86"/>
      <point x="409" y="133" type="curve"/>
      <point x="444" y="104" type="line"/>
      <point x="379" y="43"/>
      <point x="302" y="-11"/>
      <point x="208" y="-9" type="curve" smooth="yes"/>
      <point x="95" y="-7"/>
      <point x="40" y="90"/>
      <point x="74" y="193" type="curve" smooth="yes"/>
      <point x="113" y="310"/>
      <point x="230" y="373"/>
      <point x="345" y="391" type="curve"/>
      <point x="399" y="529" type="line"/>
      <point x="437" y="530" type="line"/>
      <point x="393" y="355" type="line"/>
      <point x="379" y="355" type="line"/>
      <point x="247" y="343"/>
      <point x="156" y="273"/>
    </contour>
    <contour>
      <point x="505" y="674" type="curve" smooth="yes"/>
      <point x="501" y="658"/>
      <point x="474" y="637"/>
      <point x="457" y="639" type="curve" smooth="yes"/>
      <point x="439" y="641"/>
      <point x="429" y="659"/>
      <point x="433" y="677" type="curve" smooth="yes"/>
      <point x="437" y="693"/>
      <point x="463" y="714"/>
      <point x="480" y="712" type="curve" smooth="yes"/>
      <point x="498" y="710"/>
      <point x="509" y="692"/>
    </contour>
  </outline>
</glyph>
<glyph name="Agrave" format="1">
  <advance width="597"/>
  <unicode hex="00C0"/>
  <outline>
    <contour>
      <point x="157" y="236" type="line"/>
      <point x="190" y="286" type="line"/>
      <point x="497" y="287" type="line"/>
      <point x="497" y="235" type="line"/>
    </contour>
    <contour>
      <point x="454" y="600" type="line"/>
      <point x="211" y="269" type="line"/>
      <point x="202" y="257" type="line"/>
      <point x="13" y="0" type="line"/>
      <point x="-50" y="0" type="line"/>
      <point x="493" y="729" type="line"/>
      <point x="535" y="0" type="line"/>
      <point x="477" y="0" type="line"/>
      <point x="467" y="253" type="line"/>
      <point x="467" y="266" type="line"/>
    </contour>
    <contour>
      <point x="440" y="941" type="line"/>
      <point x="494" y="967" type="line"/>
      <point x="591" y="806" type="line"/>
      <point x="559" y="787" type="line"/>
    </contour>
  </outline>
</glyph>
<glyph name="Atilde" format="1">
  <advance width="597"/>
  <unicode hex="00C3"/>
  <outline>
    <contour>
      <point x="157" y="236" type="line"/>
      <point x="190" y="286" type="line"/>
      <point x="497" y="287" type="line"/>
      <point x="497" y="235" type="line"/>
    </contour>
    <contour>
      <point x="454" y="600" type="line"/>
      <point x="211" y="269" type="line"/>
      <point x="202" y="257" type="line"/>
      <point x="13" y="0" type="line"/>
      <point x="-50" y="0" type="line"/>
      <point x="493" y="729" type="line"/>
      <point x="535" y="0" type="line"/>
      <point x="477" y="0" type="line"/>
      <point x="467" y="253" type="line"/>
      <point x="467" y="266" type="line"/>
    </contour>
    <contour>
      <point x="378" y="808" type="line"/>
      <point x="403" y="840"/>
      <point x="437" y="879"/>
      <point x="483" y="877" type="curve" smooth="yes"/>
      <point x="526" y="876"/>
      <point x="544" y="829"/>
      <point x="583" y="832" type="curve" smooth="yes"/>
      <point x="611" y="834"/>
      <point x="635" y="860"/>
      <point x="654" y="878" type="curve"/>
      <point x="678" y="850" type="line"/>
      <point x="652" y="823"/>
      <point x="615" y="786"/>
      <point x="573" y="788" type="curve" smooth="yes"/>
      <point x="531" y="790"/>
      <point x="514" y="835"/>
      <point x="475" y="833" type="curve" smooth="yes"/>
      <point x="444" y="831"/>
      <point x="424" y="806"/>
      <point x="407" y="784" type="curve"/>
    </contour>
  </outline>
</glyph>
<glyph name="Adieresis" format="1">
  <advance width="597"/>
  <unicode hex="00C4"/>
  <outline>
    <contour>
      <point x="157" y="236" type="line"/>
      <point x="190" y="286" type="line"/>
      <point x="497" y="287" type="line"/>
      <point x="497" y="235" type="line"/>
    </contour>
    <contour>
      <point x="454" y="600" type="line"/>
      <point x="211" y="269" type="line"/>
      <point x="202" y="257" type="line"/>
      <point x="13" y="0" type="line"/>
      <point x="-50" y="0" type="line"/>
      <point x="493" y="729" type="line"/>
      <point x="535" y="0" type="line"/>
      <point x="477" y="0" type="line"/>
      <point x="467" y="253" type="line"/>
      <point x="467" y="266" type="line"/>
    </contour>
    <contour>
      <point x="588" y="834" type="curve" smooth="yes"/>
      <point x="592" y="850"/>
      <point x="618" y="871"/>
      <point x="635" y="869" type="curve" smooth="yes"/>
      <point x="653" y="867"/>
      <point x="663" y="849"/>
      <point x="659" y="831" type="curve" smooth="yes"/>
      <point x="655" y="815"/>
      <point x="629" y="794"/>
      <point x="612" y="796" type="curve" smooth="yes"/>
      <point x="594" y="798"/>
      <point x="584" y="816"/>
    </contour>
    <contour>
      <point x="399" y="834" type="curve" smooth="yes"/>
      <point x="403" y="850"/>
      <point x="429" y="871"/>
      <point x="446" y="869" type="curve" smooth="yes"/>
      <point x="464" y="867"/>
      <point x="475" y="849"/>
      <point x="471" y="831" type="curve" smooth="yes"/>
      <point x="467" y="815"/>
      <point x="441" y="794"/>
      <point x="424" y="796" type="curve" smooth="yes"/>
      <point x="406" y="798"/>
      <point x="395" y="816"/>
    </contour>
  </outline>
</glyph>
<glyph name="Aring" format="1">
  <advance width="636"/>
  <unicode hex="00C5"/>
  <outline>
    <contour>
      <point x="180" y="235" type="line"/>
      <point x="208" y="287" type="line"/>
      <point x="532" y="287" type="line"/>
      <point x="540" y="235" type="line"/>
    </contour>
    <contour>
      <point x="424" y="600" type="line"/>
      <point x="229" y="269" type="line"/>
      <point x="221" y="257" type="line"/>
      <point x="71" y="0" type="line"/>
      <point x="9" y="0" type="line"/>
      <point x="446" y="727" type="line"/>
      <point x="627" y="0" type="line"/>
      <point x="565" y="0" type="line"/>
      <point x="506" y="253" type="line"/>
      <point x="503" y="266" type="line"/>
    </contour>
    <contour>
      <point x="357" y="802" type="curve" smooth="yes"/>
      <point x="368" y="862"/>
      <point x="425" y="902"/>
      <point x="477" y="902" type="curve" smooth="yes"/>
      <point x="529" y="902"/>
      <point x="572" y="862"/>
      <point x="561" y="802" type="curve" smooth="yes"/>
      <point x="550" y="742"/>
      <point x="494" y="702"/>
      <point x="442" y="702" type="curve" smooth="yes"/>
      <point x="390" y="702"/>
      <point x="346" y="742"/>
    </contour>
    <contour>
      <point x="392" y="802" type="curve" smooth="yes"/>
      <point x="385" y="761"/>
      <point x="413" y="734"/>
      <point x="447" y="734" type="curve" smooth="yes"/>
      <point x="481" y="734"/>
      <point x="519" y="761"/>
      <point x="526" y="802" type="curve" smooth="yes"/>
      <point x="533" y="843"/>
      <point x="505" y="870"/>
      <point x="471" y="870" type="curve" smooth="yes"/>
      <point x="437" y="870"/>
      <point x="399" y="843"/>
    </contour>
  </outline>
</glyph>
<glyph name="AE" format="1">
  <advance width="879"/>
  <unicode hex="00C6"/>
  <outline>
    <contour>
      <point x="228" y="239" type="line"/>
      <point x="245" y="290" type="line"/>
      <point x="526" y="290" type="line"/>
      <point x="508" y="238" type="line"/>
    </contour>
    <contour>
      <point x="615" y="700" type="line"/>
      <point x="650" y="672" type="line"/>
      <point x="11" y="0" type="line"/>
      <point x="-50" y="0" type="line"/>
    </contour>
    <contour>
      <point x="436" y="0" type="line"/>
      <point x="454" y="52" type="line"/>
      <point x="775" y="52" type="line"/>
      <point x="757" y="0" type="line"/>
    </contour>
    <contour>
      <point x="667" y="648" type="line"/>
      <point x="615" y="700" type="line"/>
      <point x="996" y="700" type="line"/>
      <point x="978" y="648" type="line"/>
    </contour>
    <contour>
      <point x="558" y="358" type="line"/>
      <point x="576" y="410" type="line"/>
      <point x="878" y="410" type="line"/>
      <point x="861" y="358" type="line"/>
    </contour>
    <contour>
      <point x="645" y="699" type="line"/>
      <point x="701" y="700" type="line"/>
      <point x="459" y="0" type="line"/>
      <point x="406" y="0" type="line"/>
    </contour>
  </outline>
</glyph>
<glyph name="Ccedilla" format="1">
  <advance width="644"/>
  <unicode hex="00C7"/>
  <outline>
    <contour>
      <point x="163" y="350" type="curve" smooth="yes"/>
      <point x="116" y="216"/>
      <point x="155" y="51"/>
      <point x="321" y="48" type="curve" smooth="yes"/>
      <point x="413" y="46"/>
      <point x="496" y="90"/>
      <point x="569" y="141" type="curve"/>
      <point x="546" y="68" type="line"/>
      <point x="474" y="22"/>
      <point x="396" y="-10"/>
      <point x="310" y="-9" type="curve" smooth="yes"/>
      <point x="113" y="-7"/>
      <point x="50" y="185"/>
      <point x="105" y="350" type="curve" smooth="yes"/>
      <point x="166" y="535"/>
      <point x="344" y="707"/>
      <point x="547" y="709" type="curve" smooth="yes"/>
      <point x="623" y="710"/>
      <point x="684" y="685"/>
      <point x="737" y="631" type="curve"/>
      <point x="713" y="558" type="line"/>
      <point x="672" y="622"/>
      <point x="612" y="653"/>
      <point x="536" y="653" type="curve" smooth="yes"/>
      <point x="365" y="652"/>
      <point x="217" y="503"/>
    </contour>
    <contour>
      <point x="311" y="33" type="line"/>
      <point x="353" y="33" type="line"/>
      <point x="260" y="-62" type="line"/>
      <point x="270" y="-58"/>
      <point x="282" y="-52"/>
      <point x="293" y="-53" type="curve" smooth="yes"/>
      <point x="331" y="-59"/>
      <point x="350" y="-92"/>
      <point x="340" y="-129" type="curve" smooth="yes"/>
      <point x="326" y="-181"/>
      <point x="262" y="-220"/>
      <point x="210" y="-220" type="curve" smooth="yes"/>
      <point x="177" y="-220"/>
      <point x="157" y="-203"/>
      <point x="135" y="-181" type="curve"/>
      <point x="163" y="-157" type="line"/>
      <point x="178" y="-171"/>
      <point x="193" y="-184"/>
      <point x="216" y="-184" type="curve" smooth="yes"/>
      <point x="248" y="-184"/>
      <point x="294" y="-158"/>
      <point x="303" y="-126" type="curve" smooth="yes"/>
      <point x="310" y="-101"/>
      <point x="294" y="-82"/>
      <point x="270" y="-80" type="curve" smooth="yes"/>
      <point x="246" y="-77"/>
      <point x="219" y="-90"/>
      <point x="197" y="-99" type="curve"/>
    </contour>
  </outline>
</glyph>
<glyph name="Egrave" format="1">
  <advance width="501"/>
  <unicode hex="00C8"/>
  <outline>
    <contour>
      <point x="52" y="0" type="line"/>
      <point x="69" y="52" type="line"/>
      <point x="398" y="52" type="line"/>
      <point x="381" y="0" type="line"/>
    </contour>
    <contour>
      <point x="274" y="649" type="line"/>
      <point x="291" y="700" type="line"/>
      <point x="619" y="700" type="line"/>
      <point x="602" y="648" type="line"/>
    </contour>
    <contour>
      <point x="174" y="358" type="line"/>
      <point x="192" y="410" type="line"/>
      <point x="501" y="410" type="line"/>
      <point x="484" y="358" type="line"/>
    </contour>
    <contour>
      <point x="262" y="699" type="line"/>
      <point x="318" y="700" type="line"/>
      <point x="77" y="0" type="line"/>
      <point x="25" y="0" type="line"/>
    </contour>
    <contour>
      <point x="383" y="923" type="line"/>
      <point x="436" y="949" type="line"/>
      <point x="534" y="788" type="line"/>
      <point x="503" y="770" type="line"/>
    </contour>
  </outline>
</glyph>
<glyph name="Eacute" format="1">
  <advance width="501"/>
  <unicode hex="00C9"/>
  <outline>
    <contour>
      <point x="52" y="0" type="line"/>
      <point x="69" y="52" type="line"/>
      <point x="398" y="52" type="line"/>
      <point x="381" y="0" type="line"/>
    </contour>
    <contour>
      <point x="274" y="649" type="line"/>
      <point x="291" y="700" type="line"/>
      <point x="619" y="700" type="line"/>
      <point x="602" y="648" type="line"/>
    </contour>
    <contour>
      <point x="174" y="358" type="line"/>
      <point x="192" y="410" type="line"/>
      <point x="501" y="410" type="line"/>
      <point x="484" y="358" type="line"/>
    </contour>
    <contour>
      <point x="262" y="699" type="line"/>
      <point x="318" y="700" type="line"/>
      <point x="77" y="0" type="line"/>
      <point x="25" y="0" type="line"/>
    </contour>
    <contour>
      <point x="650" y="918" type="line"/>
      <point x="431" y="771" type="line"/>
      <point x="407" y="792" type="line"/>
      <point x="611" y="948" type="line"/>
    </contour>
  </outline>
</glyph>
<glyph name="Ecircumflex" format="1">
  <advance width="501"/>
  <unicode hex="00CA"/>
  <outline>
    <contour>
      <point x="52" y="0" type="line"/>
      <point x="69" y="52" type="line"/>
      <point x="398" y="52" type="line"/>
      <point x="381" y="0" type="line"/>
    </contour>
    <contour>
      <point x="274" y="649" type="line"/>
      <point x="291" y="700" type="line"/>
      <point x="619" y="700" type="line"/>
      <point x="602" y="648" type="line"/>
    </contour>
    <contour>
      <point x="174" y="358" type="line"/>
      <point x="192" y="410" type="line"/>
      <point x="501" y="410" type="line"/>
      <point x="484" y="358" type="line"/>
    </contour>
    <contour>
      <point x="262" y="699" type="line"/>
      <point x="318" y="700" type="line"/>
      <point x="77" y="0" type="line"/>
      <point x="25" y="0" type="line"/>
    </contour>
    <contour>
      <point x="511" y="879" type="line"/>
      <point x="352" y="771" type="line"/>
      <point x="327" y="799" type="line"/>
      <point x="524" y="936" type="line"/>
      <point x="631" y="795" type="line"/>
      <point x="593" y="770" type="line"/>
    </contour>
  </outline>
</glyph>
<glyph name="Edieresis" format="1">
  <advance width="501"/>
  <unicode hex="00CB"/>
  <outline>
    <contour>
      <point x="52" y="0" type="line"/>
      <point x="69" y="52" type="line"/>
      <point x="398" y="52" type="line"/>
      <point x="381" y="0" type="line"/>
    </contour>
    <contour>
      <point x="274" y="649" type="line"/>
      <point x="291" y="700" type="line"/>
      <point x="619" y="700" type="line"/>
      <point x="602" y="648" type="line"/>
    </contour>
    <contour>
      <point x="174" y="358" type="line"/>
      <point x="192" y="410" type="line"/>
      <point x="501" y="410" type="line"/>
      <point x="484" y="358" type="line"/>
    </contour>
    <contour>
      <point x="262" y="699" type="line"/>
      <point x="318" y="700" type="line"/>
      <point x="77" y="0" type="line"/>
      <point x="25" y="0" type="line"/>
    </contour>
    <contour>
      <point x="548" y="828" type="curve" smooth="yes"/>
      <point x="552" y="844"/>
      <point x="578" y="865"/>
      <point x="595" y="863" type="curve" smooth="yes"/>
      <point x="613" y="861"/>
      <point x="624" y="843"/>
      <point x="620" y="825" type="curve" smooth="yes"/>
      <point x="616" y="809"/>
      <point x="590" y="788"/>
      <point x="573" y="790" type="curve" smooth="yes"/>
      <point x="555" y="792"/>
      <point x="544" y="810"/>
    </contour>
    <contour>
      <point x="359" y="828" type="curve" smooth="yes"/>
      <point x="363" y="844"/>
      <point x="389" y="865"/>
      <point x="406" y="863" type="curve" smooth="yes"/>
      <point x="424" y="861"/>
      <point x="436" y="843"/>
      <point x="432" y="825" type="curve" smooth="yes"/>
      <point x="428" y="809"/>
      <point x="402" y="788"/>
      <point x="385" y="790" type="curve" smooth="yes"/>
      <point x="367" y="792"/>
      <point x="355" y="810"/>
    </contour>
  </outline>
</glyph>
<glyph name="Igrave" format="1">
  <advance width="205"/>
  <unicode hex="00CC"/>
  <outline>
    <contour>
      <point x="261" y="699" type="line"/>
      <point x="316" y="700" type="line"/>
      <point x="74" y="0" type="line"/>
      <point x="23" y="0" type="line"/>
    </contour>
    <contour>
      <point x="230" y="923" type="line"/>
      <point x="284" y="949" type="line"/>
      <point x="381" y="788" type="line"/>
      <point x="349" y="770" type="line"/>
    </contour>
  </outline>
</glyph>
<glyph name="Iacute" format="1">
  <advance width="205"/>
  <unicode hex="00CD"/>
  <outline>
    <contour>
      <point x="261" y="699" type="line"/>
      <point x="316" y="700" type="line"/>
      <point x="74" y="0" type="line"/>
      <point x="23" y="0" type="line"/>
    </contour>
    <contour>
      <point x="496" y="918" type="line"/>
      <point x="278" y="771" type="line"/>
      <point x="255" y="792" type="line"/>
      <point x="458" y="948" type="line"/>
    </contour>
  </outline>
</glyph>
<glyph name="Icircumflex" format="1">
  <advance width="205"/>
  <unicode hex="00CE"/>
  <outline>
    <contour>
      <point x="261" y="699" type="line"/>
      <point x="316" y="700" type="line"/>
      <point x="74" y="0" type="line"/>
      <point x="23" y="0" type="line"/>
    </contour>
    <contour>
      <point x="353" y="879" type="line"/>
      <point x="193" y="771" type="line"/>
      <point x="168" y="799" type="line"/>
      <point x="365" y="936" type="line"/>
      <point x="472" y="795" type="line"/>
      <point x="434" y="770" type="line"/>
    </contour>
  </outline>
</glyph>
<glyph name="Idieresis" format="1">
  <advance width="205"/>
  <unicode hex="00CF"/>
  <outline>
    <contour>
      <point x="261" y="699" type="line"/>
      <point x="316" y="700" type="line"/>
      <point x="74" y="0" type="line"/>
      <point x="23" y="0" type="line"/>
    </contour>
    <contour>
      <point x="374" y="816" type="curve" smooth="yes"/>
      <point x="378" y="831"/>
      <point x="404" y="853"/>
      <point x="421" y="851" type="curve" smooth="yes"/>
      <point x="439" y="849"/>
      <point x="450" y="831"/>
      <point x="446" y="813" type="curve" smooth="yes"/>
      <point x="442" y="797"/>
      <point x="415" y="776"/>
      <point x="398" y="778" type="curve" smooth="yes"/>
      <point x="379" y="780"/>
      <point x="370" y="799"/>
    </contour>
    <contour>
      <point x="208" y="816" type="curve" smooth="yes"/>
      <point x="212" y="831"/>
      <point x="238" y="853"/>
      <point x="255" y="851" type="curve" smooth="yes"/>
      <point x="273" y="849"/>
      <point x="284" y="831"/>
      <point x="280" y="813" type="curve" smooth="yes"/>
      <point x="276" y="797"/>
      <point x="250" y="776"/>
      <point x="233" y="778" type="curve" smooth="yes"/>
      <point x="214" y="780"/>
      <point x="204" y="799"/>
    </contour>
  </outline>
</glyph>
<glyph name="Eth" format="1">
  <advance width="639"/>
  <unicode hex="00D0"/>
  <outline>
    <contour>
      <point x="61" y="325" type="line"/>
      <point x="78" y="373" type="line"/>
      <point x="362" y="373" type="line"/>
      <point x="346" y="324" type="line"/>
    </contour>
    <contour>
      <point x="262" y="699" type="line"/>
      <point x="318" y="700" type="line"/>
      <point x="77" y="0" type="line"/>
      <point x="25" y="0" type="line"/>
    </contour>
    <contour>
      <point x="208" y="0" type="curve" smooth="yes"/>
      <point x="52" y="0" type="line"/>
      <point x="71" y="55" type="line"/>
      <point x="219" y="55" type="line" smooth="yes"/>
      <point x="392" y="61"/>
      <point x="538" y="190"/>
      <point x="594" y="350" type="curve" smooth="yes"/>
      <point x="645" y="493"/>
      <point x="594" y="638"/>
      <point x="427" y="645" type="curve" smooth="yes"/>
      <point x="272" y="645" type="line"/>
      <point x="291" y="700" type="line"/>
      <point x="438" y="700" type="line" smooth="yes"/>
      <point x="635" y="693"/>
      <point x="705" y="522"/>
      <point x="648" y="350" type="curve" smooth="yes"/>
      <point x="586" y="161"/>
      <point x="412" y="6"/>
    </contour>
  </outline>
</glyph>
<glyph name="Ntilde" format="1">
  <advance width="687"/>
  <unicode hex="00D1"/>
  <outline>
    <contour>
      <point x="749" y="700" type="line"/>
      <point x="803" y="700" type="line"/>
      <point x="553" y="-26" type="line"/>
      <point x="264" y="584" type="line"/>
      <point x="62" y="0" type="line"/>
      <point x="7" y="0" type="line"/>
      <point x="257" y="726" type="line"/>
      <point x="547" y="114" type="line"/>
    </contour>
    <contour>
      <point x="408" y="780" type="line"/>
      <point x="433" y="812"/>
      <point x="467" y="851"/>
      <point x="513" y="849" type="curve" smooth="yes"/>
      <point x="552" y="848"/>
      <point x="575" y="801"/>
      <point x="614" y="804" type="curve" smooth="yes"/>
      <point x="642" y="806"/>
      <point x="665" y="832"/>
      <point x="684" y="850" type="curve"/>
      <point x="708" y="822" type="line"/>
      <point x="682" y="795"/>
      <point x="645" y="758"/>
      <point x="603" y="760" type="curve" smooth="yes"/>
      <point x="565" y="762"/>
      <point x="544" y="806"/>
      <point x="505" y="805" type="curve" smooth="yes"/>
      <point x="474" y="804"/>
      <point x="454" y="778"/>
      <point x="437" y="756" type="curve"/>
    </contour>
  </outline>
</glyph>
<glyph name="Otilde" format="1">
  <advance width="737"/>
  <unicode hex="00D5"/>
  <outline>
    <contour>
      <point x="163" y="350" type="curve" smooth="yes"/>
      <point x="115" y="213"/>
      <point x="157" y="49"/>
      <point x="326" y="47" type="curve" smooth="yes"/>
      <point x="499" y="45"/>
      <point x="651" y="196"/>
      <point x="705" y="350" type="curve" smooth="yes"/>
      <point x="753" y="487"/>
      <point x="711" y="651"/>
      <point x="542" y="653" type="curve" smooth="yes"/>
      <point x="369" y="655"/>
      <point x="217" y="504"/>
    </contour>
    <contour>
      <point x="105" y="350" type="curve" smooth="yes"/>
      <point x="166" y="536"/>
      <point x="348" y="710"/>
      <point x="552" y="709" type="curve" smooth="yes"/>
      <point x="751" y="708"/>
      <point x="818" y="517"/>
      <point x="763" y="350" type="curve" smooth="yes"/>
      <point x="702" y="164"/>
      <point x="520" y="-10"/>
      <point x="316" y="-9" type="curve" smooth="yes"/>
      <point x="117" y="-8"/>
      <point x="50" y="183"/>
    </contour>
    <contour>
      <point x="446" y="802" type="line"/>
      <point x="448" y="836"/>
      <point x="518" y="872"/>
      <point x="550" y="871" type="curve" smooth="yes"/>
      <point x="589" y="870"/>
      <point x="611" y="823"/>
      <point x="651" y="826" type="curve" smooth="yes"/>
      <point x="679" y="828"/>
      <point x="703" y="854"/>
      <point x="722" y="872" type="curve"/>
      <point x="745" y="844" type="line"/>
      <point x="719" y="817"/>
      <point x="683" y="780"/>
      <point x="641" y="782" type="curve" smooth="yes"/>
      <point x="603" y="784"/>
      <point x="582" y="828"/>
      <point x="543" y="827" type="curve" smooth="yes"/>
      <point x="511" y="826"/>
      <point x="491" y="800"/>
      <point x="474" y="778" type="curve"/>
    </contour>
  </outline>
</glyph>
<glyph name="Odieresis" format="1">
  <advance width="783"/>
  <unicode hex="00D6"/>
  <outline>
    <contour>
      <point x="164" y="350" type="curve" smooth="yes"/>
      <point x="133" y="175"/>
      <point x="232" y="46"/>
      <point x="400" y="46" type="curve" smooth="yes"/>
      <point x="568" y="46"/>
      <point x="712" y="175"/>
      <point x="743" y="350" type="curve" smooth="yes"/>
      <point x="774" y="525"/>
      <point x="675" y="654"/>
      <point x="507" y="654" type="curve" smooth="yes"/>
      <point x="339" y="654"/>
      <point x="195" y="525"/>
    </contour>
    <contour>
      <point x="106" y="350" type="curve" smooth="yes"/>
      <point x="142" y="556"/>
      <point x="317" y="709"/>
      <point x="517" y="709" type="curve" smooth="yes"/>
      <point x="717" y="709"/>
      <point x="838" y="556"/>
      <point x="802" y="350" type="curve" smooth="yes"/>
      <point x="766" y="144"/>
      <point x="590" y="-9"/>
      <point x="390" y="-9" type="curve" smooth="yes"/>
      <point x="190" y="-9"/>
      <point x="70" y="144"/>
    </contour>
    <contour>
      <point x="602" y="819" type="curve" smooth="yes"/>
      <point x="606" y="840"/>
      <point x="627" y="856"/>
      <point x="647" y="856" type="curve" smooth="yes"/>
      <point x="667" y="856"/>
      <point x="681" y="840"/>
      <point x="677" y="819" type="curve" smooth="yes"/>
      <point x="673" y="798"/>
      <point x="654" y="781"/>
      <point x="634" y="781" type="curve" smooth="yes"/>
      <point x="614" y="781"/>
      <point x="598" y="798"/>
    </contour>
    <contour>
      <point x="394" y="819" type="curve" smooth="yes"/>
      <point x="398" y="840"/>
      <point x="419" y="856"/>
      <point x="439" y="856" type="curve" smooth="yes"/>
      <point x="459" y="856"/>
      <point x="473" y="840"/>
      <point x="469" y="819" type="curve" smooth="yes"/>
      <point x="465" y="798"/>
      <point x="446" y="781"/>
      <point x="426" y="781" type="curve" smooth="yes"/>
      <point x="406" y="781"/>
      <point x="390" y="798"/>
    </contour>
  </outline>
</glyph>
<glyph name="multiply" format="1">
  <advance width="553"/>
  <unicode hex="00D7"/>
  <outline>
    <contour>
      <point x="60" y="32" type="line"/>
      <point x="35" y="72" type="line"/>
      <point x="280" y="257" type="line"/>
      <point x="163" y="445" type="line"/>
      <point x="207" y="478" type="line"/>
      <point x="318" y="289" type="line"/>
      <point x="560" y="477" type="line"/>
      <point x="584" y="437" type="line"/>
      <point x="340" y="252" type="line"/>
      <point x="456" y="65" type="line"/>
      <point x="412" y="32" type="line"/>
      <point x="301" y="220" type="line"/>
    </contour>
  </outline>
</glyph>
<glyph name="Ugrave" format="1">
  <advance width="569"/>
  <unicode hex="00D9"/>
  <outline>
    <contour>
      <point x="259" y="700" type="line"/>
      <point x="313" y="700" type="line"/>
      <point x="149" y="226" type="line" smooth="yes"/>
      <point x="123" y="143"/>
      <point x="135" y="45"/>
      <point x="242" y="43" type="curve" smooth="yes"/>
      <point x="350" y="41"/>
      <point x="429" y="133"/>
      <point x="465" y="226" type="curve"/>
      <point x="629" y="700" type="line"/>
      <point x="683" y="700" type="line"/>
      <point x="521" y="226" type="line" smooth="yes"/>
      <point x="477" y="104"/>
      <point x="371" y="-9"/>
      <point x="232" y="-9" type="curve" smooth="yes"/>
      <point x="96" y="-9"/>
      <point x="63" y="113"/>
      <point x="97" y="226" type="curve"/>
    </contour>
    <contour>
      <point x="420" y="923" type="line"/>
      <point x="473" y="949" type="line"/>
      <point x="571" y="788" type="line"/>
      <point x="539" y="770" type="line"/>
    </contour>
  </outline>
</glyph>
<glyph name="Ucircumflex" format="1">
  <advance width="569"/>
  <unicode hex="00DB"/>
  <outline>
    <contour>
      <point x="259" y="700" type="line"/>
      <point x="313" y="700" type="line"/>
      <point x="149" y="226" type="line" smooth="yes"/>
      <point x="123" y="143"/>
      <point x="135" y="45"/>
      <point x="242" y="43" type="curve" smooth="yes"/>
      <point x="350" y="41"/>
      <point x="429" y="133"/>
      <point x="465" y="226" type="curve"/>
      <point x="629" y="700" type="line"/>
      <point x="683" y="700" type="line"/>
      <point x="521" y="226" type="line" smooth="yes"/>
      <point x="477" y="104"/>
      <point x="371" y="-9"/>
      <point x="232" y="-9" type="curve" smooth="yes"/>
      <point x="96" y="-9"/>
      <point x="63" y="113"/>
      <point x="97" y="226" type="curve"/>
    </contour>
    <contour>
      <point x="535" y="879" type="line"/>
      <point x="375" y="771" type="line"/>
      <point x="351" y="799" type="line"/>
      <point x="548" y="936" type="line"/>
      <point x="655" y="795" type="line"/>
      <point x="616" y="770" type="line"/>
    </contour>
  </outline>
</glyph>
<glyph name="Udieresis" format="1">
  <advance width="569"/>
  <unicode hex="00DC"/>
  <outline>
    <contour>
      <point x="259" y="700" type="line"/>
      <point x="313" y="700" type="line"/>
      <point x="149" y="226" type="line" smooth="yes"/>
      <point x="123" y="143"/>
      <point x="135" y="45"/>
      <point x="242" y="43" type="curve" smooth="yes"/>
      <point x="350" y="41"/>
      <point x="429" y="133"/>
      <point x="465" y="226" type="curve"/>
      <point x="629" y="700" type="line"/>
      <point x="683" y="700" type="line"/>
      <point x="521" y="226" type="line" smooth="yes"/>
      <point x="477" y="104"/>
      <point x="371" y="-9"/>
      <point x="232" y="-9" type="curve" smooth="yes"/>
      <point x="96" y="-9"/>
      <point x="63" y="113"/>
      <point x="97" y="226" type="curve"/>
    </contour>
    <contour>
      <point x="561" y="808" type="curve" smooth="yes"/>
      <point x="565" y="824"/>
      <point x="591" y="845"/>
      <point x="608" y="843" type="curve" smooth="yes"/>
      <point x="626" y="841"/>
      <point x="637" y="823"/>
      <point x="633" y="805" type="curve" smooth="yes"/>
      <point x="629" y="789"/>
      <point x="603" y="768"/>
      <point x="586" y="770" type="curve" smooth="yes"/>
      <point x="568" y="772"/>
      <point x="557" y="790"/>
    </contour>
    <contour>
      <point x="380" y="808" type="curve" smooth="yes"/>
      <point x="384" y="824"/>
      <point x="410" y="845"/>
      <point x="427" y="843" type="curve" smooth="yes"/>
      <point x="445" y="841"/>
      <point x="456" y="823"/>
      <point x="452" y="805" type="curve" smooth="yes"/>
      <point x="448" y="789"/>
      <point x="422" y="768"/>
      <point x="405" y="770" type="curve" smooth="yes"/>
      <point x="387" y="772"/>
      <point x="376" y="790"/>
    </contour>
  </outline>
</glyph>
<glyph name="Yacute" format="1">
  <advance width="507"/>
  <unicode hex="00DD"/>
  <outline>
    <contour>
      <point x="647" y="918" type="line"/>
      <point x="429" y="771" type="line"/>
      <point x="406" y="792" type="line"/>
      <point x="608" y="948" type="line"/>
    </contour>
    <contour>
      <point x="623" y="699" type="line"/>
      <point x="687" y="699" type="line"/>
      <point x="322" y="285" type="line"/>
      <point x="224" y="0" type="line"/>
      <point x="169" y="0" type="line"/>
      <point x="271" y="291" type="line"/>
      <point x="194" y="700" type="line"/>
      <point x="251" y="700" type="line"/>
      <point x="311" y="340" type="line"/>
    </contour>
  </outline>
</glyph>
<glyph name="Thorn" format="1">
  <advance width="505"/>
  <unicode hex="00DE"/>
  <outline>
    <contour>
      <point x="259" y="699" type="line"/>
      <point x="314" y="700" type="line"/>
      <point x="72" y="0" type="line"/>
      <point x="21" y="0" type="line"/>
    </contour>
    <contour>
      <point x="220" y="508" type="line"/>
      <point x="239" y="560" type="line"/>
      <point x="376" y="560" type="line" smooth="yes"/>
      <point x="495" y="555"/>
      <point x="572" y="468"/>
      <point x="533" y="349" type="curve" smooth="yes"/>
      <point x="493" y="224"/>
      <point x="367" y="145"/>
      <point x="240" y="140" type="curve" smooth="yes"/>
      <point x="95" y="140" type="line"/>
      <point x="114" y="192" type="line"/>
      <point x="250" y="192" type="line"/>
      <point x="348" y="197"/>
      <point x="446" y="255"/>
      <point x="480" y="350" type="curve" smooth="yes"/>
      <point x="512" y="441"/>
      <point x="456" y="502"/>
      <point x="365" y="507" type="curve"/>
    </contour>
  </outline>
</glyph>
<glyph name="germandbls" format="1">
  <advance width="520"/>
  <unicode hex="00DF"/>
  <outline>
    <contour>
      <point x="206" y="39" type="line"/>
      <point x="316" y="55"/>
      <point x="416" y="123"/>
      <point x="454" y="231" type="curve" smooth="yes"/>
      <point x="492" y="340"/>
      <point x="421" y="406"/>
      <point x="319" y="420" type="curve"/>
      <point x="330" y="454" type="line"/>
      <point x="458" y="443"/>
      <point x="547" y="358"/>
      <point x="503" y="224" type="curve" smooth="yes"/>
      <point x="458" y="87"/>
      <point x="329" y="4"/>
      <point x="190" y="-9" type="curve"/>
    </contour>
    <contour>
      <point x="323" y="434" type="curve"/>
      <point x="334" y="469" type="line"/>
      <point x="422" y="478"/>
      <point x="509" y="511"/>
      <point x="542" y="600" type="curve" smooth="yes"/>
      <point x="569" y="673"/>
      <point x="539" y="739"/>
      <point x="456" y="740" type="curve" smooth="yes"/>
      <point x="375" y="741"/>
      <point x="304" y="678"/>
      <point x="278" y="606" type="curve" smooth="yes"/>
      <point x="70" y="0" type="line"/>
      <point x="19" y="0" type="line"/>
      <point x="226" y="607" type="line" smooth="yes"/>
      <point x="262" y="706"/>
      <point x="349" y="789"/>
      <point x="464" y="789" type="curve" smooth="yes"/>
      <point x="573" y="789"/>
      <point x="628" y="707"/>
      <point x="595" y="605" type="curve" smooth="yes"/>
      <point x="554" y="483"/>
      <point x="441" y="441"/>
    </contour>
  </outline>
</glyph>
<glyph name="aacute" format="1">
  <advance width="437"/>
  <unicode hex="00E1"/>
  <outline>
    <contour>
      <point x="73" y="135" type="curve" smooth="yes"/>
      <point x="53" y="78"/>
      <point x="88" y="39"/>
      <point x="145" y="38" type="curve" smooth="yes"/>
      <point x="233" y="36"/>
      <point x="294" y="100"/>
      <point x="334" y="171" type="curve"/>
      <point x="335" y="140" type="line"/>
      <point x="294" y="58"/>
      <point x="222" y="-10"/>
      <point x="125" y="-9" type="curve" smooth="yes"/>
      <point x="44" y="-8"/>
      <point x="-4" y="52"/>
      <point x="21" y="130" type="curve" smooth="yes"/>
      <point x="51" y="225"/>
      <point x="154" y="284"/>
      <point x="250" y="283" type="curve" smooth="yes"/>
      <point x="301" y="283"/>
      <point x="340" y="265"/>
      <point x="374" y="228" type="curve"/>
      <point x="363" y="198" type="line"/>
      <point x="329" y="227"/>
      <point x="291" y="243"/>
      <point x="245" y="242" type="curve" smooth="yes"/>
      <point x="176" y="241"/>
      <point x="97" y="204"/>
    </contour>
    <contour>
      <point x="167" y="370" type="curve"/>
      <point x="154" y="412" type="line"/>
      <point x="208" y="443"/>
      <point x="267" y="470"/>
      <point x="330" y="469" type="curve" smooth="yes"/>
      <point x="415" y="467"/>
      <point x="457" y="407"/>
      <point x="435" y="326" type="curve"/>
      <point x="323" y="0" type="line"/>
      <point x="271" y="0" type="line"/>
      <point x="386" y="326" type="line"/>
      <point x="394" y="378"/>
      <point x="382" y="420"/>
      <point x="321" y="422" type="curve" smooth="yes"/>
      <point x="266" y="424"/>
      <point x="213" y="396"/>
    </contour>
    <contour>
      <point x="544" y="687" type="line"/>
      <point x="327" y="540" type="line"/>
      <point x="302" y="561" type="line"/>
      <point x="505" y="717" type="line"/>
    </contour>
  </outline>
</glyph>
<glyph name="aring" format="1">
  <advance width="437"/>
  <unicode hex="00E5"/>
  <outline>
    <contour>
      <point x="73" y="135" type="curve" smooth="yes"/>
      <point x="53" y="78"/>
      <point x="88" y="39"/>
      <point x="145" y="38" type="curve" smooth="yes"/>
      <point x="233" y="36"/>
      <point x="294" y="100"/>
      <point x="334" y="171" type="curve"/>
      <point x="335" y="140" type="line"/>
      <point x="294" y="58"/>
      <point x="222" y="-10"/>
      <point x="125" y="-9" type="curve" smooth="yes"/>
      <point x="44" y="-8"/>
      <point x="-4" y="52"/>
      <point x="21" y="130" type="curve" smooth="yes"/>
      <point x="51" y="225"/>
      <point x="154" y="284"/>
      <point x="250" y="283" type="curve" smooth="yes"/>
      <point x="301" y="283"/>
      <point x="340" y="265"/>
      <point x="374" y="228" type="curve"/>
      <point x="363" y="198" type="line"/>
      <point x="329" y="227"/>
      <point x="291" y="243"/>
      <point x="245" y="242" type="curve" smooth="yes"/>
      <point x="176" y="241"/>
      <point x="97" y="204"/>
    </contour>
    <contour>
      <point x="167" y="370" type="curve"/>
      <point x="154" y="412" type="line"/>
      <point x="208" y="443"/>
      <point x="267" y="470"/>
      <point x="330" y="469" type="curve" smooth="yes"/>
      <point x="415" y="467"/>
      <point x="457" y="407"/>
      <point x="435" y="326" type="curve"/>
      <point x="323" y="0" type="line"/>
      <point x="271" y="0" type="line"/>
      <point x="386" y="326" type="line"/>
      <point x="394" y="378"/>
      <point x="382" y="420"/>
      <point x="321" y="422" type="curve" smooth="yes"/>
      <point x="266" y="424"/>
      <point x="213" y="396"/>
    </contour>
    <contour>
      <point x="291" y="632" type="curve" smooth="yes"/>
      <point x="307" y="682"/>
      <point x="366" y="730"/>
      <point x="420" y="729" type="curve" smooth="yes"/>
      <point x="474" y="728"/>
      <point x="501" y="677"/>
      <point x="486" y="628" type="curve" smooth="yes"/>
      <point x="470" y="578"/>
      <point x="411" y="530"/>
      <point x="357" y="531" type="curve" smooth="yes"/>
      <point x="303" y="532"/>
      <point x="276" y="583"/>
    </contour>
    <contour>
      <point x="325" y="629" type="curve" smooth="yes"/>
      <point x="316" y="600"/>
      <point x="329" y="566"/>
      <point x="362" y="563" type="curve" smooth="yes"/>
      <point x="396" y="560"/>
      <point x="443" y="600"/>
      <point x="453" y="631" type="curve" smooth="yes"/>
      <point x="462" y="660"/>
      <point x="447" y="694"/>
      <point x="414" y="697" type="curve" smooth="yes"/>
      <point x="380" y="700"/>
      <point x="335" y="660"/>
    </contour>
  </outline>
</glyph>
<glyph name="ae" format="1">
  <advance width="776"/>
  <unicode hex="00E6"/>
  <outline>
    <contour>
      <point x="72" y="134" type="curve" smooth="yes"/>
      <point x="52" y="77"/>
      <point x="88" y="39"/>
      <point x="145" y="38" type="curve" smooth="yes"/>
      <point x="233" y="36"/>
      <point x="300" y="102"/>
      <point x="333" y="173" type="curve"/>
      <point x="354" y="142" type="line"/>
      <point x="317" y="59"/>
      <point x="236" y="-9"/>
      <point x="137" y="-9" type="curve" smooth="yes"/>
      <point x="56" y="-9"/>
      <point x="-6" y="45"/>
      <point x="20" y="129" type="curve" smooth="yes"/>
      <point x="50" y="225"/>
      <point x="154" y="284"/>
      <point x="251" y="283" type="curve" smooth="yes"/>
      <point x="301" y="283"/>
      <point x="341" y="265"/>
      <point x="374" y="228" type="curve"/>
      <point x="363" y="198" type="line"/>
      <point x="329" y="227"/>
      <point x="293" y="243"/>
      <point x="247" y="242" type="curve" smooth="yes"/>
      <point x="177" y="241"/>
      <point x="96" y="204"/>
    </contour>
    <contour>
      <point x="168" y="370" type="curve"/>
      <point x="154" y="412" type="line"/>
      <point x="207" y="443"/>
      <point x="268" y="471"/>
      <point x="332" y="469" type="curve" smooth="yes"/>
      <point x="415" y="466"/>
      <point x="445" y="406"/>
      <point x="424" y="330" type="curve"/>
      <point x="362" y="144" type="line"/>
      <point x="324" y="145" type="line"/>
      <point x="385" y="320" type="line"/>
      <point x="399" y="371"/>
      <point x="382" y="419"/>
      <point x="323" y="422" type="curve" smooth="yes"/>
      <point x="268" y="426"/>
      <point x="214" y="396"/>
    </contour>
    <contour>
      <point x="385" y="218" type="line"/>
      <point x="399" y="261" type="line"/>
      <point x="762" y="262" type="line"/>
      <point x="761" y="217" type="line"/>
    </contour>
    <contour>
      <point x="720" y="250" type="line" smooth="yes"/>
      <point x="746" y="326"/>
      <point x="733" y="420"/>
      <point x="636" y="423" type="curve" smooth="yes"/>
      <point x="531" y="426"/>
      <point x="451" y="337"/>
      <point x="411" y="250" type="curve"/>
      <point x="404" y="232" type="line"/>
      <point x="378" y="151"/>
      <point x="382" y="43"/>
      <point x="490" y="40" type="curve" smooth="yes"/>
      <point x="566" y="38"/>
      <point x="630" y="85"/>
      <point x="684" y="133" type="curve"/>
      <point x="719" y="104" type="line"/>
      <point x="652" y="41"/>
      <point x="571" y="-12"/>
      <point x="476" y="-9" type="curve" smooth="yes"/>
      <point x="350" y="-5"/>
      <point x="316" y="128"/>
      <point x="357" y="230" type="curve" smooth="yes"/>
      <point x="364" y="247"/>
      <point x="374" y="263"/>
      <point x="383" y="279" type="curve" smooth="yes"/>
      <point x="440" y="375"/>
      <point x="529" y="471"/>
      <point x="651" y="469" type="curve" smooth="yes"/>
      <point x="775" y="467"/>
      <point x="801" y="341"/>
      <point x="771" y="242" type="curve" smooth="yes"/>
      <point x="769" y="234"/>
      <point x="766" y="226"/>
      <point x="763" y="218" type="curve"/>
      <point x="713" y="231" type="line"/>
    </contour>
  </outline>
</glyph>
<glyph name="ccedilla" format="1">
  <advance width="453"/>
  <unicode hex="00E7"/>
  <outline>
    <contour>
      <point x="106" y="230" type="curve" smooth="yes"/>
      <point x="75" y="144"/>
      <point x="105" y="42"/>
      <point x="210" y="40" type="curve" smooth="yes"/>
      <point x="276" y="39"/>
      <point x="336" y="73"/>
      <point x="387" y="112" type="curve"/>
      <point x="367" y="48" type="line"/>
      <point x="317" y="15"/>
      <point x="261" y="-9"/>
      <point x="200" y="-9" type="curve" smooth="yes"/>
      <point x="67" y="-8"/>
      <point x="18" y="116"/>
      <point x="55" y="230" type="curve" smooth="yes"/>
      <point x="95" y="356"/>
      <point x="220" y="469"/>
      <point x="357" y="469" type="curve" smooth="yes"/>
      <point x="410" y="469"/>
      <point x="453" y="450"/>
      <point x="489" y="411" type="curve"/>
      <point x="469" y="347" type="line"/>
      <point x="445" y="396"/>
      <point x="404" y="421"/>
      <point x="348" y="420" type="curve" smooth="yes"/>
      <point x="240" y="419"/>
      <point x="141" y="328"/>
    </contour>
    <contour>
      <point x="202" y="33" type="line"/>
      <point x="243" y="33" type="line"/>
      <point x="151" y="-63" type="line"/>
      <point x="161" y="-59"/>
      <point x="173" y="-53"/>
      <point x="184" y="-54" type="curve" smooth="yes"/>
      <point x="222" y="-60"/>
      <point x="241" y="-92"/>
      <point x="231" y="-129" type="curve" smooth="yes"/>
      <point x="217" y="-181"/>
      <point x="152" y="-221"/>
      <point x="100" y="-221" type="curve" smooth="yes"/>
      <point x="67" y="-221"/>
      <point x="47" y="-204"/>
      <point x="25" y="-182" type="curve"/>
      <point x="54" y="-158" type="line"/>
      <point x="69" y="-172"/>
      <point x="84" y="-185"/>
      <point x="107" y="-185" type="curve" smooth="yes"/>
      <point x="139" y="-185"/>
      <point x="185" y="-159"/>
      <point x="194" y="-127" type="curve" smooth="yes"/>
      <point x="201" y="-102"/>
      <point x="184" y="-83"/>
      <point x="160" y="-81" type="curve" smooth="yes"/>
      <point x="136" y="-78"/>
      <point x="110" y="-91"/>
      <point x="88" y="-100" type="curve"/>
    </contour>
  </outline>
</glyph>
<glyph name="eacute" format="1">
  <advance width="479"/>
  <unicode hex="00E9"/>
  <outline>
    <contour>
      <point x="93" y="218" type="line"/>
      <point x="107" y="261" type="line"/>
      <point x="428" y="262" type="line"/>
      <point x="448" y="332"/>
      <point x="435" y="421"/>
      <point x="341" y="423" type="curve" smooth="yes"/>
      <point x="238" y="425"/>
      <point x="158" y="335"/>
      <point x="123" y="250" type="curve"/>
      <point x="116" y="231" type="line"/>
      <point x="91" y="149"/>
      <point x="101" y="43"/>
      <point x="206" y="40" type="curve" smooth="yes"/>
      <point x="278" y="38"/>
      <point x="340" y="86"/>
      <point x="391" y="133" type="curve"/>
      <point x="426" y="104" type="line"/>
      <point x="361" y="42"/>
      <point x="284" y="-10"/>
      <point x="191" y="-9" type="curve" smooth="yes"/>
      <point x="61" y="-7"/>
      <point x="34" y="126"/>
      <point x="65" y="231" type="curve" smooth="yes"/>
      <point x="71" y="252"/>
      <point x="80" y="272"/>
      <point x="90" y="291" type="curve" smooth="yes"/>
      <point x="139" y="384"/>
      <point x="237" y="470"/>
      <point x="348" y="469" type="curve" smooth="yes"/>
      <point x="476" y="468"/>
      <point x="507" y="346"/>
      <point x="477" y="242" type="curve" smooth="yes"/>
      <point x="475" y="234"/>
      <point x="472" y="226"/>
      <point x="469" y="218" type="curve"/>
    </contour>
    <contour>
      <point x="578" y="684" type="line"/>
      <point x="362" y="537" type="line"/>
      <point x="338" y="557" type="line"/>
      <point x="538" y="713" type="line"/>
    </contour>
  </outline>
</glyph>
<glyph name="igrave" format="1">
  <advance width="217"/>
  <unicode hex="00EC"/>
  <outline>
    <contour>
      <point x="186" y="459" type="line"/>
      <point x="239" y="460" type="line"/>
      <point x="79" y="0" type="line"/>
      <point x="30" y="0" type="line"/>
    </contour>
    <contour>
      <point x="142" y="696" type="line"/>
      <point x="196" y="722" type="line"/>
      <point x="293" y="561" type="line"/>
      <point x="261" y="542" type="line"/>
    </contour>
  </outline>
</glyph>
<glyph name="iacute" format="1">
  <advance width="217"/>
  <unicode hex="00ED"/>
  <outline>
    <contour>
      <point x="186" y="459" type="line"/>
      <point x="239" y="460" type="line"/>
      <point x="79" y="0" type="line"/>
      <point x="30" y="0" type="line"/>
    </contour>
    <contour>
      <point x="442" y="691" type="line"/>
      <point x="225" y="544" type="line"/>
      <point x="200" y="565" type="line"/>
      <point x="403" y="721" type="line"/>
    </contour>
  </outline>
</glyph>
<glyph name="icircumflex" format="1">
  <advance width="217"/>
  <unicode hex="00EE"/>
  <outline>
    <contour>
      <point x="186" y="459" type="line"/>
      <point x="239" y="460" type="line"/>
      <point x="79" y="0" type="line"/>
      <point x="30" y="0" type="line"/>
    </contour>
    <contour>
      <point x="279" y="646" type="line"/>
      <point x="120" y="537" type="line"/>
      <point x="95" y="565" type="line"/>
      <point x="292" y="702" type="line"/>
      <point x="399" y="562" type="line"/>
      <point x="361" y="537" type="line"/>
    </contour>
  </outline>
</glyph>
<glyph name="idieresis" format="1">
  <advance width="217"/>
  <unicode hex="00EF"/>
  <outline>
    <contour>
      <point x="186" y="459" type="line"/>
      <point x="239" y="460" type="line"/>
      <point x="79" y="0" type="line"/>
      <point x="30" y="0" type="line"/>
    </contour>
    <contour>
      <point x="305" y="587" type="curve" smooth="yes"/>
      <point x="309" y="603"/>
      <point x="335" y="624"/>
      <point x="352" y="622" type="curve" smooth="yes"/>
      <point x="370" y="620"/>
      <point x="381" y="602"/>
      <point x="377" y="584" type="curve" smooth="yes"/>
      <point x="373" y="568"/>
      <point x="347" y="547"/>
      <point x="330" y="549" type="curve" smooth="yes"/>
      <point x="312" y="551"/>
      <point x="301" y="569"/>
    </contour>
    <contour>
      <point x="132" y="587" type="curve" smooth="yes"/>
      <point x="136" y="603"/>
      <point x="162" y="624"/>
      <point x="179" y="622" type="curve" smooth="yes"/>
      <point x="197" y="620"/>
      <point x="208" y="602"/>
      <point x="204" y="584" type="curve" smooth="yes"/>
      <point x="200" y="568"/>
      <point x="174" y="547"/>
      <point x="157" y="549" type="curve" smooth="yes"/>
      <point x="139" y="551"/>
      <point x="128" y="569"/>
    </contour>
  </outline>
</glyph>
<glyph name="eth" format="1">
  <advance width="526"/>
  <unicode hex="00F0"/>
  <outline>
    <contour>
      <point x="453" y="226" type="curve" smooth="yes"/>
      <point x="483" y="311"/>
      <point x="449" y="407"/>
      <point x="348" y="407" type="curve" smooth="yes"/>
      <point x="247" y="407"/>
      <point x="152" y="317"/>
      <point x="120" y="226" type="curve" smooth="yes"/>
      <point x="90" y="142"/>
      <point x="116" y="42"/>
      <point x="219" y="41" type="curve" smooth="yes"/>
      <point x="324" y="40"/>
      <point x="420" y="131"/>
    </contour>
    <contour>
      <point x="400" y="700" type="line"/>
      <point x="508" y="377" type="line" smooth="yes"/>
      <point x="522" y="327"/>
      <point x="520" y="275"/>
      <point x="504" y="226" type="curve" smooth="yes"/>
      <point x="464" y="103"/>
      <point x="345" y="-9"/>
      <point x="210" y="-9" type="curve" smooth="yes"/>
      <point x="78" y="-9"/>
      <point x="31" y="114"/>
      <point x="68" y="227" type="curve" smooth="yes"/>
      <point x="105" y="338"/>
      <point x="214" y="447"/>
      <point x="337" y="448" type="curve" smooth="yes"/>
      <point x="386" y="448"/>
      <point x="419" y="427"/>
      <point x="448" y="389" type="curve"/>
      <point x="446" y="388" type="line"/>
      <point x="338" y="700" type="line"/>
    </contour>
    <contour>
      <point x="273" y="543" type="line"/>
      <point x="286" y="584" type="line"/>
      <point x="559" y="584" type="line"/>
      <point x="545" y="543" type="line"/>
    </contour>
  </outline>
</glyph>
<glyph name="ntilde" format="1">
  <advance width="474"/>
  <unicode hex="00F1"/>
  <outline>
    <contour>
      <point x="228" y="460" type="line"/>
      <point x="69" y="0" type="line"/>
      <point x="17" y="0" type="line"/>
      <point x="177" y="460" type="line"/>
    </contour>
    <contour>
      <point x="399" y="296" type="line" smooth="yes"/>
      <point x="416" y="351"/>
      <point x="417" y="417"/>
      <point x="344" y="420" type="curve" smooth="yes"/>
      <point x="261" y="423"/>
      <point x="200" y="347"/>
      <point x="164" y="282" type="curve"/>
      <point x="141" y="282" type="line"/>
      <point x="181" y="370"/>
      <point x="256" y="469"/>
      <point x="364" y="469" type="curve" smooth="yes"/>
      <point x="463" y="469"/>
      <point x="474" y="379"/>
      <point x="451" y="302" type="curve"/>
      <point x="346" y="0" type="line"/>
      <point x="297" y="0" type="line"/>
    </contour>
    <contour>
      <point x="233" y="563" type="line"/>
      <point x="258" y="595"/>
      <point x="292" y="634"/>
      <point x="338" y="632" type="curve" smooth="yes"/>
      <point x="377" y="631"/>
      <point x="400" y="584"/>
      <point x="439" y="587" type="curve" smooth="yes"/>
      <point x="467" y="589"/>
      <point x="490" y="615"/>
      <point x="509" y="633" type="curve"/>
      <point x="533" y="605" type="line"/>
      <point x="507" y="578"/>
      <point x="470" y="541"/>
      <point x="428" y="543" type="curve" smooth="yes"/>
      <point x="390" y="545"/>
      <point x="369" y="589"/>
      <point x="330" y="588" type="curve" smooth="yes"/>
      <point x="299" y="587"/>
      <point x="279" y="561"/>
      <point x="262" y="539" type="curve"/>
    </contour>
  </outline>
</glyph>
<glyph name="ocircumflex" format="1">
  <advance width="517"/>
  <unicode hex="00F4"/>
  <outline>
    <contour>
      <point x="59" y="230" type="curve" smooth="yes"/>
      <point x="99" y="354"/>
      <point x="225" y="469"/>
      <point x="361" y="469" type="curve" smooth="yes"/>
      <point x="494" y="469"/>
      <point x="544" y="344"/>
      <point x="507" y="230" type="curve" smooth="yes"/>
      <point x="467" y="106"/>
      <point x="341" y="-9"/>
      <point x="205" y="-9" type="curve" smooth="yes"/>
      <point x="72" y="-9"/>
      <point x="22" y="116"/>
    </contour>
    <contour>
      <point x="111" y="230" type="curve" smooth="yes"/>
      <point x="80" y="144"/>
      <point x="109" y="41"/>
      <point x="214" y="40" type="curve" smooth="yes"/>
      <point x="322" y="39"/>
      <point x="421" y="133"/>
      <point x="455" y="230" type="curve" smooth="yes"/>
      <point x="486" y="316"/>
      <point x="457" y="419"/>
      <point x="352" y="420" type="curve" smooth="yes"/>
      <point x="244" y="421"/>
      <point x="145" y="327"/>
    </contour>
    <contour>
      <point x="434" y="660" type="line"/>
      <point x="274" y="551" type="line"/>
      <point x="250" y="579" type="line"/>
      <point x="447" y="716" type="line"/>
      <point x="553" y="576" type="line"/>
      <point x="515" y="551" type="line"/>
    </contour>
  </outline>
</glyph>
<glyph name="otilde" format="1">
  <advance width="517"/>
  <unicode hex="00F5"/>
  <outline>
    <contour>
      <point x="59" y="230" type="curve" smooth="yes"/>
      <point x="99" y="354"/>
      <point x="225" y="469"/>
      <point x="361" y="469" type="curve" smooth="yes"/>
      <point x="494" y="469"/>
      <point x="544" y="344"/>
      <point x="507" y="230" type="curve" smooth="yes"/>
      <point x="467" y="106"/>
      <point x="341" y="-9"/>
      <point x="205" y="-9" type="curve" smooth="yes"/>
      <point x="72" y="-9"/>
      <point x="22" y="116"/>
    </contour>
    <contour>
      <point x="111" y="230" type="curve" smooth="yes"/>
      <point x="80" y="144"/>
      <point x="109" y="41"/>
      <point x="214" y="40" type="curve" smooth="yes"/>
      <point x="322" y="39"/>
      <point x="421" y="133"/>
      <point x="455" y="230" type="curve" smooth="yes"/>
      <point x="486" y="316"/>
      <point x="457" y="419"/>
      <point x="352" y="420" type="curve" smooth="yes"/>
      <point x="244" y="421"/>
      <point x="145" y="327"/>
    </contour>
    <contour>
      <point x="253" y="563" type="line"/>
      <point x="242" y="597"/>
      <point x="335" y="633"/>
      <point x="358" y="632" type="curve" smooth="yes"/>
      <point x="397" y="631"/>
      <point x="419" y="584"/>
      <point x="459" y="587" type="curve" smooth="yes"/>
      <point x="487" y="589"/>
      <point x="511" y="615"/>
      <point x="530" y="633" type="curve"/>
      <point x="554" y="605" type="line"/>
      <point x="528" y="578"/>
      <point x="491" y="541"/>
      <point x="449" y="543" type="curve" smooth="yes"/>
      <point x="411" y="545"/>
      <point x="390" y="590"/>
      <point x="351" y="588" type="curve" smooth="yes"/>
      <point x="320" y="586"/>
      <point x="300" y="561"/>
      <point x="283" y="539" type="curve"/>
    </contour>
  </outline>
</glyph>
<glyph name="odieresis" format="1">
  <advance width="517"/>
  <unicode hex="00F6"/>
  <outline>
    <contour>
      <point x="59" y="230" type="curve" smooth="yes"/>
      <point x="99" y="354"/>
      <point x="225" y="469"/>
      <point x="361" y="469" type="curve" smooth="yes"/>
      <point x="494" y="469"/>
      <point x="544" y="344"/>
      <point x="507" y="230" type="curve" smooth="yes"/>
      <point x="467" y="106"/>
      <point x="341" y="-9"/>
      <point x="205" y="-9" type="curve" smooth="yes"/>
      <point x="72" y="-9"/>
      <point x="22" y="116"/>
    </contour>
    <contour>
      <point x="111" y="230" type="curve" smooth="yes"/>
      <point x="80" y="144"/>
      <point x="109" y="41"/>
      <point x="214" y="40" type="curve" smooth="yes"/>
      <point x="322" y="39"/>
      <point x="421" y="133"/>
      <point x="455" y="230" type="curve" smooth="yes"/>
      <point x="486" y="316"/>
      <point x="457" y="419"/>
      <point x="352" y="420" type="curve" smooth="yes"/>
      <point x="244" y="421"/>
      <point x="145" y="327"/>
    </contour>
    <contour>
      <point x="465" y="595" type="curve" smooth="yes"/>
      <point x="469" y="611"/>
      <point x="495" y="632"/>
      <point x="512" y="630" type="curve" smooth="yes"/>
      <point x="530" y="628"/>
      <point x="541" y="610"/>
      <point x="537" y="592" type="curve" smooth="yes"/>
      <point x="533" y="576"/>
      <point x="507" y="555"/>
      <point x="490" y="557" type="curve" smooth="yes"/>
      <point x="472" y="559"/>
      <point x="461" y="577"/>
    </contour>
    <contour>
      <point x="277" y="595" type="curve" smooth="yes"/>
      <point x="281" y="611"/>
      <point x="307" y="632"/>
      <point x="324" y="630" type="curve" smooth="yes"/>
      <point x="342" y="628"/>
      <point x="353" y="610"/>
      <point x="349" y="592" type="curve" smooth="yes"/>
      <point x="345" y="576"/>
      <point x="319" y="555"/>
      <point x="302" y="557" type="curve" smooth="yes"/>
      <point x="284" y="559"/>
      <point x="273" y="577"/>
    </contour>
  </outline>
</glyph>
<glyph name="divide" format="1">
  <advance width="586"/>
  <unicode hex="00F7"/>
  <outline>
    <contour>
      <point x="355" y="452" type="curve" smooth="yes"/>
      <point x="359" y="468"/>
      <point x="385" y="489"/>
      <point x="402" y="487" type="curve" smooth="yes"/>
      <point x="420" y="485"/>
      <point x="431" y="467"/>
      <point x="427" y="449" type="curve" smooth="yes"/>
      <point x="423" y="433"/>
      <point x="397" y="412"/>
      <point x="380" y="414" type="curve" smooth="yes"/>
      <point x="362" y="416"/>
      <point x="351" y="434"/>
    </contour>
    <contour>
      <point x="220" y="56" type="curve" smooth="yes"/>
      <point x="224" y="72"/>
      <point x="250" y="93"/>
      <point x="267" y="91" type="curve" smooth="yes"/>
      <point x="285" y="89"/>
      <point x="296" y="71"/>
      <point x="292" y="53" type="curve" smooth="yes"/>
      <point x="288" y="37"/>
      <point x="262" y="16"/>
      <point x="245" y="18" type="curve" smooth="yes"/>
      <point x="227" y="20"/>
      <point x="216" y="38"/>
    </contour>
    <contour>
      <point x="81" y="230" type="line"/>
      <point x="98" y="281" type="line"/>
      <point x="570" y="281" type="line"/>
      <point x="553" y="229" type="line"/>
    </contour>
  </outline>
</glyph>
<glyph name="oslash" format="1">
  <advance width="513"/>
  <unicode hex="00F8"/>
  <outline>
    <contour>
      <point x="59" y="230" type="curve" smooth="yes"/>
      <point x="99" y="354"/>
      <point x="225" y="469"/>
      <point x="361" y="469" type="curve" smooth="yes"/>
      <point x="494" y="469"/>
      <point x="544" y="344"/>
      <point x="507" y="230" type="curve" smooth="yes"/>
      <point x="467" y="106"/>
      <point x="341" y="-9"/>
      <point x="205" y="-9" type="curve" smooth="yes"/>
      <point x="72" y="-9"/>
      <point x="22" y="116"/>
    </contour>
    <contour>
      <point x="111" y="230" type="curve" smooth="yes"/>
      <point x="80" y="144"/>
      <point x="109" y="41"/>
      <point x="214" y="40" type="curve" smooth="yes"/>
      <point x="322" y="39"/>
      <point x="421" y="133"/>
      <point x="455" y="230" type="curve" smooth="yes"/>
      <point x="486" y="316"/>
      <point x="457" y="419"/>
      <point x="352" y="420" type="curve" smooth="yes"/>
      <point x="244" y="421"/>
      <point x="145" y="327"/>
    </contour>
    <contour>
      <point x="534" y="496" type="line"/>
      <point x="562" y="480" type="line"/>
      <point x="16" y="-40" type="line"/>
      <point x="-11" y="-24" type="line"/>
    </contour>
  </outline>
</glyph>
<glyph name="ugrave" format="1">
  <advance width="474"/>
  <unicode hex="00F9"/>
  <outline>
    <contour>
      <point x="295" y="0" type="line"/>
      <point x="454" y="460" type="line"/>
      <point x="506" y="460" type="line"/>
      <point x="347" y="0" type="line"/>
    </contour>
    <contour>
      <point x="126" y="168" type="line" smooth="yes"/>
      <point x="109" y="113"/>
      <point x="105" y="42"/>
      <point x="180" y="40" type="curve" smooth="yes"/>
      <point x="263" y="37"/>
      <point x="323" y="112"/>
      <point x="359" y="178" type="curve"/>
      <point x="383" y="178" type="line"/>
      <point x="343" y="90"/>
      <point x="267" y="-10"/>
      <point x="159" y="-9" type="curve" smooth="yes"/>
      <point x="58" y="-9"/>
      <point x="51" y="85"/>
      <point x="74" y="162" type="curve"/>
      <point x="178" y="460" type="line"/>
      <point x="226" y="459" type="line"/>
    </contour>
    <contour>
      <point x="294" y="700" type="line"/>
      <point x="348" y="726" type="line"/>
      <point x="445" y="565" type="line"/>
      <point x="413" y="546" type="line"/>
    </contour>
  </outline>
</glyph>
<glyph name="ucircumflex" format="1">
  <advance width="474"/>
  <unicode hex="00FB"/>
  <outline>
    <contour>
      <point x="295" y="0" type="line"/>
      <point x="454" y="460" type="line"/>
      <point x="506" y="460" type="line"/>
      <point x="347" y="0" type="line"/>
    </contour>
    <contour>
      <point x="126" y="168" type="line" smooth="yes"/>
      <point x="109" y="113"/>
      <point x="105" y="42"/>
      <point x="180" y="40" type="curve" smooth="yes"/>
      <point x="263" y="37"/>
      <point x="323" y="112"/>
      <point x="359" y="178" type="curve"/>
      <point x="383" y="178" type="line"/>
      <point x="343" y="90"/>
      <point x="267" y="-10"/>
      <point x="159" y="-9" type="curve" smooth="yes"/>
      <point x="58" y="-9"/>
      <point x="51" y="85"/>
      <point x="74" y="162" type="curve"/>
      <point x="178" y="460" type="line"/>
      <point x="226" y="459" type="line"/>
    </contour>
    <contour>
      <point x="411" y="656" type="line"/>
      <point x="252" y="547" type="line"/>
      <point x="227" y="575" type="line"/>
      <point x="424" y="712" type="line"/>
      <point x="531" y="572" type="line"/>
      <point x="492" y="547" type="line"/>
    </contour>
  </outline>
</glyph>
<glyph name="udieresis" format="1">
  <advance width="474"/>
  <unicode hex="00FC"/>
  <outline>
    <contour>
      <point x="295" y="0" type="line"/>
      <point x="454" y="460" type="line"/>
      <point x="506" y="460" type="line"/>
      <point x="347" y="0" type="line"/>
    </contour>
    <contour>
      <point x="126" y="168" type="line" smooth="yes"/>
      <point x="109" y="113"/>
      <point x="105" y="42"/>
      <point x="180" y="40" type="curve" smooth="yes"/>
      <point x="263" y="37"/>
      <point x="323" y="112"/>
      <point x="359" y="178" type="curve"/>
      <point x="383" y="178" type="line"/>
      <point x="343" y="90"/>
      <point x="267" y="-10"/>
      <point x="159" y="-9" type="curve" smooth="yes"/>
      <point x="58" y="-9"/>
      <point x="51" y="85"/>
      <point x="74" y="162" type="curve"/>
      <point x="178" y="460" type="line"/>
      <point x="226" y="459" type="line"/>
    </contour>
    <contour>
      <point x="435" y="589" type="curve" smooth="yes"/>
      <point x="439" y="604"/>
      <point x="464" y="626"/>
      <point x="481" y="624" type="curve" smooth="yes"/>
      <point x="499" y="622"/>
      <point x="511" y="604"/>
      <point x="507" y="586" type="curve" smooth="yes"/>
      <point x="503" y="570"/>
      <point x="476" y="549"/>
      <point x="459" y="551" type="curve" smooth="yes"/>
      <point x="440" y="553"/>
      <point x="431" y="572"/>
    </contour>
    <contour>
      <point x="261" y="589" type="curve" smooth="yes"/>
      <point x="265" y="604"/>
      <point x="291" y="626"/>
      <point x="308" y="624" type="curve" smooth="yes"/>
      <point x="326" y="622"/>
      <point x="337" y="604"/>
      <point x="333" y="586" type="curve" smooth="yes"/>
      <point x="329" y="570"/>
      <point x="303" y="549"/>
      <point x="286" y="551" type="curve" smooth="yes"/>
      <point x="267" y="553"/>
      <point x="257" y="572"/>
    </contour>
  </outline>
</glyph>
<glyph name="yacute" format="1">
  <advance width="407"/>
  <unicode hex="00FD"/>
  <outline>
    <contour>
      <point x="511" y="459" type="line"/>
      <point x="-6" y="-219" type="line"/>
      <point x="-65" y="-219" type="line"/>
      <point x="141" y="50" type="line"/>
      <point x="107" y="460" type="line"/>
      <point x="165" y="460" type="line"/>
      <point x="188" y="68" type="line"/>
      <point x="165" y="71" type="line"/>
      <point x="452" y="459" type="line"/>
    </contour>
    <contour>
      <point x="520" y="691" type="line"/>
      <point x="302" y="544" type="line"/>
      <point x="278" y="565" type="line"/>
      <point x="481" y="721" type="line"/>
    </contour>
  </outline>
</glyph>
<glyph name="thorn" format="1">
  <advance width="525"/>
  <unicode hex="00FE"/>
  <outline>
    <contour>
      <point x="-9" y="-219" type="line"/>
      <point x="-62" y="-220" type="line"/>
      <point x="282" y="780" type="line"/>
      <point x="331" y="779" type="line"/>
    </contour>
    <contour>
      <point x="514" y="230" type="curve" smooth="yes"/>
      <point x="475" y="110"/>
      <point x="360" y="-12"/>
      <point x="226" y="-10" type="curve" smooth="yes"/>
      <point x="96" y="-8"/>
      <point x="88" y="134"/>
      <point x="120" y="230" type="curve" smooth="yes"/>
      <point x="156" y="342"/>
      <point x="253" y="468"/>
      <point x="382" y="469" type="curve" smooth="yes"/>
      <point x="516" y="470"/>
      <point x="549" y="337"/>
    </contour>
    <contour>
      <point x="463" y="230" type="curve" smooth="yes"/>
      <point x="492" y="313"/>
      <point x="472" y="421"/>
      <point x="366" y="420" type="curve" smooth="yes"/>
      <point x="264" y="419"/>
      <point x="175" y="319"/>
      <point x="143" y="230" type="curve" smooth="yes"/>
      <point x="117" y="154"/>
      <point x="129" y="44"/>
      <point x="228" y="40" type="curve" smooth="yes"/>
      <point x="335" y="36"/>
      <point x="430" y="136"/>
    </contour>
  </outline>
</glyph>
<glyph name="ydieresis" format="1">
  <advance width="407"/>
  <unicode hex="00FF"/>
  <outline>
    <contour>
      <point x="511" y="459" type="line"/>
      <point x="-6" y="-219" type="line"/>
      <point x="-65" y="-219" type="line"/>
      <point x="141" y="50" type="line"/>
      <point x="107" y="460" type="line"/>
      <point x="165" y="460" type="line"/>
      <point x="188" y="68" type="line"/>
      <point x="165" y="71" type="line"/>
      <point x="452" y="459" type="line"/>
    </contour>
    <contour>
      <point x="397" y="577" type="curve" smooth="yes"/>
      <point x="401" y="593"/>
      <point x="427" y="614"/>
      <point x="444" y="612" type="curve" smooth="yes"/>
      <point x="462" y="610"/>
      <point x="473" y="592"/>
      <point x="469" y="574" type="curve" smooth="yes"/>
      <point x="465" y="558"/>
      <point x="439" y="537"/>
      <point x="422" y="539" type="curve" smooth="yes"/>
      <point x="404" y="541"/>
      <point x="393" y="559"/>
    </contour>
    <contour>
      <point x="224" y="577" type="curve" smooth="yes"/>
      <point x="228" y="593"/>
      <point x="254" y="614"/>
      <point x="271" y="612" type="curve" smooth="yes"/>
      <point x="289" y="610"/>
      <point x="300" y="592"/>
      <point x="296" y="574" type="curve" smooth="yes"/>
      <point x="292" y="558"/>
      <point x="265" y="537"/>
      <point x="248" y="539" type="curve" smooth="yes"/>
      <point x="230" y="541"/>
      <point x="220" y="559"/>
    </contour>
  </outline>
</glyph>
<glyph name="Amacron" format="1">
  <advance width="597"/>
  <unicode hex="0100"/>
  <outline>
    <contour>
      <point x="157" y="236" type="line"/>
      <point x="190" y="286" type="line"/>
      <point x="497" y="287" type="line"/>
      <point x="497" y="235" type="line"/>
    </contour>
    <contour>
      <point x="454" y="600" type="line"/>
      <point x="211" y="269" type="line"/>
      <point x="202" y="257" type="line"/>
      <point x="13" y="0" type="line"/>
      <point x="-50" y="0" type="line"/>
      <point x="493" y="729" type="line"/>
      <point x="535" y="0" type="line"/>
      <point x="477" y="0" type="line"/>
      <point x="467" y="253" type="line"/>
      <point x="467" y="266" type="line"/>
    </contour>
    <contour>
      <point x="352" y="796" type="line"/>
      <point x="368" y="844" type="line"/>
      <point x="700" y="844" type="line"/>
      <point x="683" y="795" type="line"/>
    </contour>
  </outline>
</glyph>
<glyph name="Abreve" format="1">
  <advance width="597"/>
  <unicode hex="0102"/>
  <outline>
    <contour>
      <point x="157" y="236" type="line"/>
      <point x="190" y="286" type="line"/>
      <point x="497" y="287" type="line"/>
      <point x="497" y="235" type="line"/>
    </contour>
    <contour>
      <point x="454" y="600" type="line"/>
      <point x="211" y="269" type="line"/>
      <point x="202" y="257" type="line"/>
      <point x="13" y="0" type="line"/>
      <point x="-50" y="0" type="line"/>
      <point x="493" y="729" type="line"/>
      <point x="535" y="0" type="line"/>
      <point x="477" y="0" type="line"/>
      <point x="467" y="253" type="line"/>
      <point x="467" y="266" type="line"/>
    </contour>
    <contour>
      <point x="413" y="931" type="curve"/>
      <point x="457" y="930" type="line"/>
      <point x="450" y="878"/>
      <point x="466" y="836"/>
      <point x="526" y="835" type="curve" smooth="yes"/>
      <point x="590" y="834"/>
      <point x="635" y="880"/>
      <point x="667" y="930" type="curve"/>
      <point x="713" y="929" type="line"/>
      <point x="674" y="853"/>
      <point x="608" y="792"/>
      <point x="519" y="792" type="curve" smooth="yes"/>
      <point x="432" y="792"/>
      <point x="401" y="853"/>
    </contour>
  </outline>
</glyph>
<glyph name="abreve" format="1">
  <advance width="437"/>
  <unicode hex="0103"/>
  <outline>
    <contour>
      <point x="73" y="135" type="curve" smooth="yes"/>
      <point x="53" y="78"/>
      <point x="88" y="39"/>
      <point x="145" y="38" type="curve" smooth="yes"/>
      <point x="233" y="36"/>
      <point x="294" y="100"/>
      <point x="334" y="171" type="curve"/>
      <point x="335" y="140" type="line"/>
      <point x="294" y="58"/>
      <point x="222" y="-10"/>
      <point x="125" y="-9" type="curve" smooth="yes"/>
      <point x="44" y="-8"/>
      <point x="-4" y="52"/>
      <point x="21" y="130" type="curve" smooth="yes"/>
      <point x="51" y="225"/>
      <point x="154" y="284"/>
      <point x="250" y="283" type="curve" smooth="yes"/>
      <point x="301" y="283"/>
      <point x="340" y="265"/>
      <point x="374" y="228" type="curve"/>
      <point x="363" y="198" type="line"/>
      <point x="329" y="227"/>
      <point x="291" y="243"/>
      <point x="245" y="242" type="curve" smooth="yes"/>
      <point x="176" y="241"/>
      <point x="97" y="204"/>
    </contour>
    <contour>
      <point x="167" y="370" type="curve"/>
      <point x="154" y="412" type="line"/>
      <point x="208" y="443"/>
      <point x="267" y="470"/>
      <point x="330" y="469" type="curve" smooth="yes"/>
      <point x="415" y="467"/>
      <point x="457" y="407"/>
      <point x="435" y="326" type="curve"/>
      <point x="323" y="0" type="line"/>
      <point x="271" y="0" type="line"/>
      <point x="386" y="326" type="line"/>
      <point x="394" y="378"/>
      <point x="382" y="420"/>
      <point x="321" y="422" type="curve" smooth="yes"/>
      <point x="266" y="424"/>
      <point x="213" y="396"/>
    </contour>
    <contour>
      <point x="250" y="674" type="curve"/>
      <point x="294" y="673" type="line"/>
      <point x="287" y="621"/>
      <point x="302" y="579"/>
      <point x="362" y="578" type="curve" smooth="yes"/>
      <point x="426" y="577"/>
      <point x="471" y="623"/>
      <point x="503" y="673" type="curve"/>
      <point x="550" y="672" type="line"/>
      <point x="511" y="597"/>
      <point x="444" y="535"/>
      <point x="355" y="535" type="curve" smooth="yes"/>
      <point x="268" y="535"/>
      <point x="238" y="596"/>
    </contour>
  </outline>
</glyph>
<glyph name="Aogonek" format="1">
  <advance width="597"/>
  <unicode hex="0104"/>
  <outline>
    <contour>
      <point x="158" y="236" type="line"/>
      <point x="191" y="286" type="line"/>
      <point x="497" y="287" type="line"/>
      <point x="497" y="235" type="line"/>
    </contour>
    <contour>
      <point x="454" y="600" type="line"/>
      <point x="211" y="269" type="line"/>
      <point x="202" y="257" type="line"/>
      <point x="13" y="0" type="line"/>
      <point x="-50" y="0" type="line"/>
      <point x="493" y="729" type="line"/>
      <point x="535" y="0" type="line"/>
      <point x="477" y="0" type="line"/>
      <point x="467" y="253" type="line"/>
      <point x="467" y="266" type="line"/>
    </contour>
    <contour>
      <point x="500" y="-148" type="curve"/>
      <point x="512" y="-183" type="line"/>
      <point x="482" y="-202"/>
      <point x="451" y="-219"/>
      <point x="414" y="-219" type="curve" smooth="yes"/>
      <point x="359" y="-220"/>
      <point x="317" y="-185"/>
      <point x="333" y="-127" type="curve" smooth="yes"/>
      <point x="355" y="-51"/>
      <point x="449" y="-12"/>
      <point x="514" y="18" type="curve"/>
      <point x="537" y="0" type="line"/>
      <point x="488" y="-26"/>
      <point x="403" y="-55"/>
      <point x="387" y="-116" type="curve" smooth="yes"/>
      <point x="379" y="-147"/>
      <point x="396" y="-170"/>
      <point x="427" y="-173" type="curve" smooth="yes"/>
      <point x="452" y="-175"/>
      <point x="479" y="-160"/>
    </contour>
  </outline>
</glyph>
<glyph name="aogonek" format="1">
  <advance width="437"/>
  <unicode hex="0105"/>
  <outline>
    <contour>
      <point x="73" y="135" type="curve" smooth="yes"/>
      <point x="55" y="79"/>
      <point x="89" y="39"/>
      <point x="145" y="38" type="curve" smooth="yes"/>
      <point x="232" y="36"/>
      <point x="294" y="100"/>
      <point x="334" y="171" type="curve"/>
      <point x="335" y="140" type="line"/>
      <point x="294" y="58"/>
      <point x="222" y="-10"/>
      <point x="125" y="-9" type="curve" smooth="yes"/>
      <point x="43" y="-8"/>
      <point x="-3" y="56"/>
      <point x="22" y="134" type="curve" smooth="yes"/>
      <point x="52" y="228"/>
      <point x="155" y="284"/>
      <point x="250" y="283" type="curve" smooth="yes"/>
      <point x="301" y="282"/>
      <point x="340" y="265"/>
      <point x="374" y="228" type="curve"/>
      <point x="363" y="198" type="line"/>
      <point x="329" y="227"/>
      <point x="291" y="243"/>
      <point x="245" y="242" type="curve" smooth="yes"/>
      <point x="176" y="241"/>
      <point x="96" y="205"/>
    </contour>
    <contour>
      <point x="167" y="370" type="curve"/>
      <point x="154" y="412" type="line"/>
      <point x="208" y="443"/>
      <point x="267" y="470"/>
      <point x="330" y="469" type="curve" smooth="yes"/>
      <point x="415" y="467"/>
      <point x="457" y="407"/>
      <point x="435" y="326" type="curve"/>
      <point x="323" y="0" type="line"/>
      <point x="271" y="0" type="line"/>
      <point x="386" y="326" type="line"/>
      <point x="394" y="378"/>
      <point x="382" y="420"/>
      <point x="321" y="422" type="curve" smooth="yes"/>
      <point x="266" y="424"/>
      <point x="213" y="396"/>
    </contour>
    <contour>
      <point x="287" y="-148" type="curve"/>
      <point x="299" y="-183" type="line"/>
      <point x="269" y="-202"/>
      <point x="238" y="-219"/>
      <point x="201" y="-219" type="curve" smooth="yes"/>
      <point x="146" y="-220"/>
      <point x="104" y="-185"/>
      <point x="120" y="-127" type="curve" smooth="yes"/>
      <point x="142" y="-51"/>
      <point x="237" y="-12"/>
      <point x="302" y="18" type="curve"/>
      <point x="324" y="0" type="line"/>
      <point x="275" y="-26"/>
      <point x="190" y="-55"/>
      <point x="174" y="-116" type="curve" smooth="yes"/>
      <point x="166" y="-147"/>
      <point x="184" y="-170"/>
      <point x="215" y="-173" type="curve" smooth="yes"/>
      <point x="240" y="-175"/>
      <point x="266" y="-160"/>
    </contour>
  </outline>
</glyph>
<glyph name="Cacute" format="1">
  <advance width="644"/>
  <unicode hex="0106"/>
  <outline>
    <contour>
      <point x="163" y="350" type="curve" smooth="yes"/>
      <point x="116" y="216"/>
      <point x="155" y="51"/>
      <point x="321" y="48" type="curve" smooth="yes"/>
      <point x="413" y="46"/>
      <point x="496" y="90"/>
      <point x="569" y="141" type="curve"/>
      <point x="546" y="68" type="line"/>
      <point x="474" y="22"/>
      <point x="396" y="-10"/>
      <point x="310" y="-9" type="curve" smooth="yes"/>
      <point x="113" y="-7"/>
      <point x="50" y="185"/>
      <point x="105" y="350" type="curve" smooth="yes"/>
      <point x="166" y="535"/>
      <point x="344" y="707"/>
      <point x="547" y="709" type="curve" smooth="yes"/>
      <point x="623" y="710"/>
      <point x="684" y="685"/>
      <point x="737" y="631" type="curve"/>
      <point x="713" y="558" type="line"/>
      <point x="672" y="622"/>
      <point x="612" y="653"/>
      <point x="536" y="653" type="curve" smooth="yes"/>
      <point x="365" y="652"/>
      <point x="217" y="503"/>
    </contour>
    <contour>
      <point x="749" y="918" type="line"/>
      <point x="531" y="771" type="line"/>
      <point x="507" y="792" type="line"/>
      <point x="710" y="948" type="line"/>
    </contour>
  </outline>
</glyph>
<glyph name="ccircumflex" format="1">
  <advance width="482"/>
  <unicode hex="0109"/>
  <outline>
    <contour>
      <point x="128" y="230" type="curve" smooth="yes"/>
      <point x="108" y="119"/>
      <point x="173" y="39"/>
      <point x="277" y="39" type="curve" smooth="yes"/>
      <point x="351" y="39"/>
      <point x="420" y="77"/>
      <point x="448" y="114" type="curve"/>
      <point x="437" y="49" type="line"/>
      <point x="403" y="16"/>
      <point x="335" y="-10"/>
      <point x="268" y="-10" type="curve" smooth="yes"/>
      <point x="134" y="-10"/>
      <point x="50" y="91"/>
      <point x="75" y="230" type="curve" smooth="yes"/>
      <point x="100" y="369"/>
      <point x="219" y="470"/>
      <point x="353" y="470" type="curve" smooth="yes"/>
      <point x="420" y="470"/>
      <point x="478" y="443"/>
      <point x="500" y="411" type="curve"/>
      <point x="489" y="346" type="line"/>
      <point x="475" y="383"/>
      <point x="418" y="421"/>
      <point x="344" y="421" type="curve" smooth="yes"/>
      <point x="240" y="421"/>
      <point x="148" y="341"/>
    </contour>
    <contour>
      <point x="383" y="641" type="line"/>
      <point x="236" y="530" type="line"/>
      <point x="208" y="557" type="line"/>
      <point x="393" y="697" type="line"/>
      <point x="528" y="557" type="line"/>
      <point x="490" y="530" type="line"/>
    </contour>
  </outline>
</glyph>
<glyph name="Cdotaccent" format="1">
  <advance width="644"/>
  <unicode hex="010A"/>
  <outline>
    <contour>
      <point x="163" y="350" type="curve" smooth="yes"/>
      <point x="116" y="216"/>
      <point x="155" y="51"/>
      <point x="321" y="48" type="curve" smooth="yes"/>
      <point x="413" y="46"/>
      <point x="496" y="90"/>
      <point x="569" y="141" type="curve"/>
      <point x="546" y="68" type="line"/>
      <point x="474" y="22"/>
      <point x="396" y="-10"/>
      <point x="310" y="-9" type="curve" smooth="yes"/>
      <point x="113" y="-7"/>
      <point x="50" y="185"/>
      <point x="105" y="350" type="curve" smooth="yes"/>
      <point x="166" y="535"/>
      <point x="344" y="707"/>
      <point x="547" y="709" type="curve" smooth="yes"/>
      <point x="623" y="710"/>
      <point x="684" y="685"/>
      <point x="737" y="631" type="curve"/>
      <point x="713" y="558" type="line"/>
      <point x="672" y="622"/>
      <point x="612" y="653"/>
      <point x="536" y="653" type="curve" smooth="yes"/>
      <point x="365" y="652"/>
      <point x="217" y="503"/>
    </contour>
    <contour>
      <point x="550" y="812" type="curve" smooth="yes"/>
      <point x="554" y="828"/>
      <point x="580" y="849"/>
      <point x="597" y="847" type="curve" smooth="yes"/>
      <point x="615" y="845"/>
      <point x="625" y="827"/>
      <point x="621" y="809" type="curve" smooth="yes"/>
      <point x="617" y="793"/>
      <point x="591" y="772"/>
      <point x="574" y="774" type="curve" smooth="yes"/>
      <point x="556" y="776"/>
      <point x="546" y="794"/>
    </contour>
  </outline>
</glyph>
<glyph name="ccaron" format="1">
  <advance width="453"/>
  <unicode hex="010D"/>
  <outline>
    <contour>
      <point x="106" y="230" type="curve" smooth="yes"/>
      <point x="75" y="144"/>
      <point x="105" y="42"/>
      <point x="210" y="40" type="curve" smooth="yes"/>
      <point x="276" y="39"/>
      <point x="336" y="73"/>
      <point x="387" y="112" type="curve"/>
      <point x="367" y="48" type="line"/>
      <point x="317" y="15"/>
      <point x="261" y="-9"/>
      <point x="200" y="-9" type="curve" smooth="yes"/>
      <point x="67" y="-8"/>
      <point x="18" y="116"/>
      <point x="55" y="230" type="curve" smooth="yes"/>
      <point x="95" y="356"/>
      <point x="220" y="469"/>
      <point x="357" y="469" type="curve" smooth="yes"/>
      <point x="410" y="469"/>
      <point x="453" y="450"/>
      <point x="489" y="411" type="curve"/>
      <point x="469" y="347" type="line"/>
      <point x="445" y="396"/>
      <point x="404" y="421"/>
      <point x="348" y="420" type="curve" smooth="yes"/>
      <point x="240" y="419"/>
      <point x="141" y="328"/>
    </contour>
    <contour>
      <point x="399" y="595" type="line"/>
      <point x="558" y="704" type="line"/>
      <point x="583" y="675" type="line"/>
      <point x="386" y="538" type="line"/>
      <point x="279" y="679" type="line"/>
      <point x="318" y="705" type="line"/>
    </contour>
  </outline>
</glyph>
